Pliska-BoldItalic.ufo
<glyph name="exclam" format="2">
  <advance width="389"/>
  <unicode hex="0021"/>
  <outline>
    <contour>
      <point x="196" y="204" type="line"/>
      <point x="238" y="312"/>
      <point x="281.73" y="411.65"/>
      <point x="339" y="522" type="curve" smooth="yes"/>
      <point x="363.742" y="569.674"/>
      <point x="370" y="584"/>
      <point x="370" y="611" type="curve" smooth="yes"/>
      <point x="370" y="655"/>
      <point x="342" y="684"/>
      <point x="301" y="684" type="curve" smooth="yes"/>
      <point x="231.507" y="684"/>
      <point x="222.975" y="617.573"/>
      <point x="220" y="565" type="curve" smooth="yes"/>
      <point x="215.584" y="486.965"/>
      <point x="197" y="368"/>
      <point x="167" y="212" type="curve"/>
    </contour>
    <contour>
      <point x="140" y="133" type="curve" smooth="yes"/>
      <point x="99" y="133"/>
      <point x="67" y="100"/>
      <point x="67" y="58" type="curve" smooth="yes"/>
      <point x="67" y="17"/>
      <point x="98" y="-13"/>
      <point x="139" y="-13" type="curve" smooth="yes"/>
      <point x="180" y="-13"/>
      <point x="213" y="19"/>
      <point x="213" y="58" type="curve" smooth="yes"/>
      <point x="213" y="97"/>
      <point x="178" y="133"/>
    </contour>
  </outline>
</glyph>
<glyph name="quotedbl" format="2">
  <advance width="555"/>
  <unicode hex="0022"/>
  <outline>
    <contour>
      <point x="177" y="398" type="line"/>
      <point x="261" y="589" type="line" smooth="yes"/>
      <point x="272.898" y="616.054"/>
      <point x="276" y="625.773"/>
      <point x="276" y="636" type="curve" smooth="yes"/>
      <point x="276" y="663.856"/>
      <point x="255.157" y="685"/>
      <point x="227.698" y="685" type="curve" smooth="yes"/>
      <point x="185.852" y="685"/>
      <point x="155.263" y="655.636"/>
      <point x="152" y="612" type="curve" smooth="yes"/>
      <point x="136" y="398" type="line"/>
    </contour>
    <contour>
      <point x="437" y="398" type="line"/>
      <point x="521" y="589" type="line" smooth="yes"/>
      <point x="532.898" y="616.054"/>
      <point x="536" y="625.773"/>
      <point x="536" y="636" type="curve" smooth="yes"/>
      <point x="536" y="663.856"/>
      <point x="515.157" y="685"/>
      <point x="487.698" y="685" type="curve" smooth="yes"/>
      <point x="445.852" y="685"/>
      <point x="415.263" y="655.636"/>
      <point x="412" y="612" type="curve" smooth="yes"/>
      <point x="396" y="398" type="line"/>
    </contour>
  </outline>
</glyph>
<glyph name="numbersign" format="2">
  <advance width="500"/>
  <unicode hex="0023"/>
  <outline>
    <contour>
      <point x="449" y="283" type="line"/>
      <point x="362" y="283" type="line"/>
      <point x="416" y="417" type="line"/>
      <point x="513" y="417" type="line"/>
      <point x="533" y="490" type="line"/>
      <point x="445" y="490" type="line"/>
      <point x="531" y="700" type="line"/>
      <point x="454" y="700" type="line"/>
      <point x="367" y="490" type="line"/>
      <point x="254" y="490" type="line"/>
      <point x="340" y="700" type="line"/>
      <point x="263" y="700" type="line"/>
      <point x="176" y="490" type="line"/>
      <point x="71" y="490" type="line"/>
      <point x="51" y="417" type="line"/>
      <point x="147" y="417" type="line"/>
      <point x="93" y="283" type="line"/>
      <point x="-13" y="283" type="line"/>
      <point x="-33" y="210" type="line"/>
      <point x="63" y="210" type="line"/>
      <point x="-22" y="0" type="line"/>
      <point x="56" y="0" type="line"/>
      <point x="141" y="210" type="line"/>
      <point x="254" y="210" type="line"/>
      <point x="169" y="0" type="line"/>
      <point x="247" y="0" type="line"/>
      <point x="332" y="210" type="line"/>
      <point x="429" y="210" type="line"/>
    </contour>
    <contour>
      <point x="338" y="417" type="line"/>
      <point x="284" y="283" type="line"/>
      <point x="171" y="283" type="line"/>
      <point x="225" y="417" type="line"/>
    </contour>
  </outline>
</glyph>
<glyph name="dollar" format="2">
  <advance width="500"/>
  <unicode hex="0024"/>
  <outline>
    <contour>
      <point x="248" y="436" type="line" smooth="yes"/>
      <point x="194.509" y="475.34"/>
      <point x="178" y="502"/>
      <point x="178" y="542" type="curve" smooth="yes"/>
      <point x="178" y="599"/>
      <point x="222" y="637"/>
      <point x="288" y="637" type="curve" smooth="yes"/>
      <point x="395.538" y="637"/>
      <point x="443.11" y="570.21"/>
      <point x="434" y="470" type="curve"/>
      <point x="455" y="465" type="line"/>
      <point x="497" y="598" type="line"/>
      <point x="432.731" y="647.987"/>
      <point x="356.007" y="670"/>
      <point x="275" y="670" type="curve" smooth="yes"/>
      <point x="164" y="670"/>
      <point x="79" y="591"/>
      <point x="79" y="488" type="curve" smooth="yes"/>
      <point x="79" y="427.038"/>
      <point x="95.9497" y="404.1"/>
      <point x="212.091" y="307.889" type="curve" smooth="yes"/>
      <point x="253" y="274" type="line" smooth="yes"/>
      <point x="307.241" y="229.067"/>
      <point x="323" y="204"/>
      <point x="323" y="157" type="curve" smooth="yes"/>
      <point x="323" y="75.7883"/>
      <point x="272.232" y="32.2971"/>
      <point x="193.028" y="32.2971" type="curve" smooth="yes"/>
      <point x="77.1223" y="32.2971"/>
      <point x="46.825" y="120.301"/>
      <point x="44" y="222" type="curve"/>
      <point x="22" y="228" type="line"/>
      <point x="-20" y="86" type="line"/>
      <point x="45.6374" y="27.7933"/>
      <point x="112.611" y="0"/>
      <point x="201" y="0" type="curve" smooth="yes"/>
      <point x="331" y="0"/>
      <point x="432" y="87"/>
      <point x="432" y="201" type="curve" smooth="yes"/>
      <point x="432" y="265.23"/>
      <point x="381.524" y="337.8"/>
      <point x="290.06" y="405.067" type="curve" smooth="yes"/>
    </contour>
    <contour>
      <point x="98" y="-100" type="line"/>
      <point x="150" y="-100" type="line"/>
      <point x="381" y="733" type="line"/>
      <point x="331" y="733" type="line"/>
    </contour>
  </outline>
</glyph>
<glyph name="percent" format="2">
  <advance width="833"/>
  <unicode hex="0025"/>
  <outline>
    <contour>
      <point x="676" y="376" type="curve" smooth="yes"/>
      <point x="556.471" y="376"/>
      <point x="450" y="241.393"/>
      <point x="450" y="128" type="curve" smooth="yes"/>
      <point x="450" y="45"/>
      <point x="503" y="-10"/>
      <point x="583" y="-10" type="curve" smooth="yes"/>
      <point x="713.899" y="-10"/>
      <point x="793" y="145.415"/>
      <point x="793" y="260" type="curve" smooth="yes"/>
      <point x="793" y="329"/>
      <point x="746" y="376"/>
    </contour>
    <contour>
      <point x="706.099" y="325.04" type="curve" smooth="yes"/>
      <point x="736.516" y="325.04"/>
      <point x="759" y="295"/>
      <point x="759" y="257" type="curve" smooth="yes"/>
      <point x="759" y="187.682"/>
      <point x="700.267" y="36"/>
      <point x="617" y="36" type="curve" smooth="yes"/>
      <point x="588.268" y="36"/>
      <point x="566.874" y="58.9316"/>
      <point x="566.874" y="88.9817" type="curve" smooth="yes"/>
      <point x="566.874" y="144.223"/>
      <point x="632.325" y="325.04"/>
    </contour>
    <contour>
      <point x="194" y="-8" type="line"/>
      <point x="250" y="-8" type="line"/>
      <point x="644" y="692" type="line"/>
      <point x="605" y="692" type="line"/>
      <point x="549" y="643"/>
      <point x="499" y="623"/>
      <point x="436" y="623" type="curve" smooth="yes"/>
      <point x="394" y="623"/>
      <point x="368" y="631"/>
      <point x="340" y="651" type="curve" smooth="yes"/>
      <point x="311" y="672"/>
      <point x="292" y="679"/>
      <point x="263" y="679" type="curve" smooth="yes"/>
      <point x="151" y="679"/>
      <point x="39" y="555"/>
      <point x="39" y="431" type="curve" smooth="yes"/>
      <point x="39" y="351"/>
      <point x="93" y="294"/>
      <point x="168" y="294" type="curve" smooth="yes"/>
      <point x="305.058" y="294"/>
      <point x="382.687" y="448.04"/>
      <point x="382.687" y="561.983" type="curve" smooth="yes"/>
      <point x="382.687" y="571.65"/>
      <point x="382.129" y="581.029"/>
      <point x="381" y="590" type="curve"/>
      <point x="397.873" y="586.022"/>
      <point x="414" y="585"/>
      <point x="424" y="585" type="curve" smooth="yes"/>
      <point x="461" y="585"/>
      <point x="500" y="594"/>
      <point x="543" y="612" type="curve"/>
    </contour>
    <contour>
      <point x="153.868" y="389.945" type="curve" smooth="yes"/>
      <point x="153.868" y="440.723"/>
      <point x="222.627" y="631.137"/>
      <point x="284.614" y="631.137" type="curve" smooth="yes"/>
      <point x="291.578" y="631.137"/>
      <point x="297.118" y="627.63"/>
      <point x="302" y="623" type="curve" smooth="yes"/>
      <point x="307.577" y="617.711"/>
      <point x="310.929" y="614.828"/>
      <point x="318" y="612" type="curve" smooth="yes"/>
      <point x="345.932" y="600.827"/>
      <point x="347" y="599"/>
      <point x="347" y="577" type="curve" smooth="yes"/>
      <point x="347" y="463"/>
      <point x="272" y="340"/>
      <point x="202" y="340" type="curve" smooth="yes"/>
      <point x="174.279" y="340"/>
      <point x="153.868" y="361.016"/>
    </contour>
  </outline>
</glyph>
<glyph name="ampersand" format="2">
  <advance width="778"/>
  <unicode hex="0026"/>
  <outline>
    <contour>
      <point x="5" y="148" type="curve" smooth="yes"/>
      <point x="5" y="49"/>
      <point x="84" y="-19"/>
      <point x="198" y="-19" type="curve" smooth="yes"/>
      <point x="268" y="-19"/>
      <point x="324" y="-1"/>
      <point x="390" y="44" type="curve"/>
      <point x="435" y="0"/>
      <point x="476" y="-18"/>
      <point x="529" y="-18" type="curve" smooth="yes"/>
      <point x="595" y="-18"/>
      <point x="638" y="7"/>
      <point x="699" y="80" type="curve"/>
      <point x="673" y="101" type="line"/>
      <point x="644" y="72"/>
      <point x="623" y="61"/>
      <point x="596" y="61" type="curve" smooth="yes"/>
      <point x="557" y="61"/>
      <point x="525" y="82"/>
      <point x="486" y="133" type="curve"/>
      <point x="574.119" y="249.921" type="line" smooth="yes"/>
      <point x="629.583" y="323.513"/>
      <point x="646.179" y="327.325"/>
      <point x="691" y="336" type="curve"/>
      <point x="691" y="361" type="line"/>
      <point x="479" y="361" type="line"/>
      <point x="479" y="336" type="line"/>
      <point x="521" y="329"/>
      <point x="535" y="320"/>
      <point x="535" y="298" type="curve" smooth="yes"/>
      <point x="535" y="270"/>
      <point x="518" y="241"/>
      <point x="461" y="169" type="curve"/>
      <point x="420" y="235"/>
      <point x="387" y="322"/>
      <point x="375" y="396" type="curve"/>
      <point x="499" y="446"/>
      <point x="557" y="501"/>
      <point x="557" y="568" type="curve" smooth="yes"/>
      <point x="557" y="634"/>
      <point x="499" y="682"/>
      <point x="419" y="682" type="curve" smooth="yes"/>
      <point x="309" y="682"/>
      <point x="234" y="598"/>
      <point x="234" y="476" type="curve" smooth="yes"/>
      <point x="234" y="452"/>
      <point x="237" y="429"/>
      <point x="245" y="384" type="curve"/>
      <point x="90.4831" y="323.684"/>
      <point x="5" y="260"/>
    </contour>
    <contour>
      <point x="138" y="190" type="curve" smooth="yes"/>
      <point x="138" y="260"/>
      <point x="169" y="302"/>
      <point x="253" y="343" type="curve"/>
      <point x="279" y="232"/>
      <point x="306" y="167"/>
      <point x="362" y="80" type="curve"/>
      <point x="322" y="60"/>
      <point x="296" y="52"/>
      <point x="265" y="52" type="curve" smooth="yes"/>
      <point x="193" y="52"/>
      <point x="138" y="111"/>
    </contour>
    <contour>
      <point x="366" y="434" type="curve"/>
      <point x="357" y="488"/>
      <point x="355" y="505"/>
      <point x="355" y="530" type="curve" smooth="yes"/>
      <point x="355" y="607"/>
      <point x="380" y="649"/>
      <point x="425" y="649" type="curve" smooth="yes"/>
      <point x="458" y="649"/>
      <point x="477" y="624"/>
      <point x="477" y="582" type="curve" smooth="yes"/>
      <point x="477" y="507.179"/>
      <point x="422.622" y="467.667"/>
    </contour>
  </outline>
</glyph>
<glyph name="quotesingle" format="2">
  <advance width="278"/>
  <unicode hex="0027"/>
  <outline>
    <contour>
      <point x="169" y="398" type="line"/>
      <point x="253" y="589" type="line" smooth="yes"/>
      <point x="264.898" y="616.054"/>
      <point x="268" y="625.773"/>
      <point x="268" y="636" type="curve" smooth="yes"/>
      <point x="268" y="663.856"/>
      <point x="247.157" y="685"/>
      <point x="219.698" y="685" type="curve" smooth="yes"/>
      <point x="177.852" y="685"/>
      <point x="147.263" y="655.636"/>
      <point x="144" y="612" type="curve" smooth="yes"/>
      <point x="128" y="398" type="line"/>
    </contour>
  </outline>
</glyph>
<glyph name="parenleft" format="2">
  <advance width="333"/>
  <unicode hex="0028"/>
  <outline>
    <contour>
      <point x="170" y="-179" type="curve"/>
      <point x="193" y="-164" type="line"/>
      <point x="137.225" y="-68"/>
      <point x="121" y="-6"/>
      <point x="121" y="112.461" type="curve" smooth="yes"/>
      <point x="121" y="333.962"/>
      <point x="177.192" y="513.291"/>
      <point x="344" y="665" type="curve"/>
      <point x="326" y="685" type="line"/>
      <point x="152.399" y="556.653"/>
      <point x="29" y="433.276"/>
      <point x="29" y="202.69" type="curve" smooth="yes"/>
      <point x="29" y="70"/>
      <point x="69.7113" y="-41"/>
    </contour>
  </outline>
</glyph>
<glyph name="parenright" format="2">
  <advance width="333"/>
  <unicode hex="0029"/>
  <outline>
    <contour>
      <point x="-27" y="-179" type="line"/>
      <point x="142.247" y="-57.4895"/>
      <point x="271" y="77.032"/>
      <point x="271" y="299" type="curve" smooth="yes"/>
      <point x="271" y="448.903"/>
      <point x="214.177" y="567.335"/>
      <point x="128" y="685" type="curve"/>
      <point x="105" y="670" type="line"/>
      <point x="159" y="580"/>
      <point x="177" y="513"/>
      <point x="177" y="399" type="curve" smooth="yes"/>
      <point x="177" y="173.865"/>
      <point x="120.952" y="-7.07025"/>
      <point x="-44" y="-159" type="curve"/>
    </contour>
  </outline>
</glyph>
<glyph name="asterisk" format="2">
  <advance width="500"/>
  <unicode hex="002A"/>
  <outline>
    <contour>
      <point x="65" y="388" type="curve" smooth="yes"/>
      <point x="65" y="359"/>
      <point x="88" y="334"/>
      <point x="115" y="334" type="curve" smooth="yes"/>
      <point x="140" y="334"/>
      <point x="156" y="346"/>
      <point x="177" y="382" type="curve" smooth="yes"/>
      <point x="199" y="418"/>
      <point x="208.124" y="429.522"/>
      <point x="242" y="448" type="curve" smooth="yes"/>
      <point x="253" y="454" type="line"/>
      <point x="253" y="442" type="line" smooth="yes"/>
      <point x="253" y="410"/>
      <point x="246" y="386"/>
      <point x="227" y="353" type="curve" smooth="yes"/>
      <point x="215" y="331"/>
      <point x="210" y="318"/>
      <point x="210" y="304" type="curve" smooth="yes"/>
      <point x="210" y="273"/>
      <point x="230" y="252"/>
      <point x="260" y="252" type="curve" smooth="yes"/>
      <point x="291" y="252"/>
      <point x="311" y="273"/>
      <point x="311" y="303" type="curve" smooth="yes"/>
      <point x="311" y="318"/>
      <point x="306" y="331"/>
      <point x="294" y="353" type="curve" smooth="yes"/>
      <point x="275" y="386"/>
      <point x="268" y="410"/>
      <point x="268" y="442" type="curve" smooth="yes"/>
      <point x="268" y="454" type="line"/>
      <point x="279" y="448" type="line" smooth="yes"/>
      <point x="312.876" y="429.522"/>
      <point x="322" y="418"/>
      <point x="344" y="382" type="curve" smooth="yes"/>
      <point x="365" y="346"/>
      <point x="381" y="334"/>
      <point x="406" y="334" type="curve" smooth="yes"/>
      <point x="433" y="334"/>
      <point x="456" y="359"/>
      <point x="456" y="388" type="curve" smooth="yes"/>
      <point x="456" y="430.388"/>
      <point x="409.348" y="439"/>
      <point x="377" y="439" type="curve" smooth="yes"/>
      <point x="330.972" y="439"/>
      <point x="320" y="443"/>
      <point x="287" y="462" type="curve" smooth="yes"/>
      <point x="276" y="468" type="line"/>
      <point x="287" y="474" type="line" smooth="yes"/>
      <point x="320" y="493"/>
      <point x="333" y="496"/>
      <point x="377" y="497" type="curve"/>
      <point x="408.395" y="497"/>
      <point x="456" y="506.927"/>
      <point x="456" y="548" type="curve" smooth="yes"/>
      <point x="456" y="577"/>
      <point x="432" y="603"/>
      <point x="407" y="603" type="curve" smooth="yes"/>
      <point x="383" y="603"/>
      <point x="365" y="590"/>
      <point x="344" y="555" type="curve" smooth="yes"/>
      <point x="320" y="517"/>
      <point x="308.511" y="504.097"/>
      <point x="279" y="488" type="curve" smooth="yes"/>
      <point x="268" y="482" type="line"/>
      <point x="268" y="494" type="line" smooth="yes"/>
      <point x="268" y="527"/>
      <point x="275" y="552"/>
      <point x="294" y="584" type="curve" smooth="yes"/>
      <point x="307" y="606"/>
      <point x="311" y="618"/>
      <point x="311" y="633" type="curve" smooth="yes"/>
      <point x="311" y="664"/>
      <point x="291" y="685"/>
      <point x="261" y="685" type="curve" smooth="yes"/>
      <point x="230" y="685"/>
      <point x="210" y="664"/>
      <point x="210" y="633" type="curve" smooth="yes"/>
      <point x="210" y="618"/>
      <point x="214" y="606"/>
      <point x="227" y="584" type="curve" smooth="yes"/>
      <point x="246" y="552"/>
      <point x="253" y="527"/>
      <point x="253" y="494" type="curve" smooth="yes"/>
      <point x="253" y="482" type="line"/>
      <point x="242" y="488" type="line" smooth="yes"/>
      <point x="212.489" y="504.097"/>
      <point x="201" y="517"/>
      <point x="177" y="555" type="curve" smooth="yes"/>
      <point x="155" y="590"/>
      <point x="138" y="603"/>
      <point x="114" y="603" type="curve" smooth="yes"/>
      <point x="89" y="603"/>
      <point x="65" y="577"/>
      <point x="65" y="549" type="curve" smooth="yes"/>
      <point x="65" y="507.008"/>
      <point x="111.452" y="497"/>
      <point x="144" y="497" type="curve"/>
      <point x="188" y="496"/>
      <point x="201" y="493"/>
      <point x="234" y="474" type="curve" smooth="yes"/>
      <point x="245" y="468" type="line"/>
      <point x="234" y="462" type="line" smooth="yes"/>
      <point x="201" y="443"/>
      <point x="190.028" y="439"/>
      <point x="144" y="439" type="curve" smooth="yes"/>
      <point x="111.62" y="439"/>
      <point x="65" y="430.524"/>
    </contour>
  </outline>
</glyph>
<glyph name="comma" format="2">
  <advance width="250"/>
  <unicode hex="002C"/>
  <outline>
    <contour>
      <point x="-47" y="-182" type="line"/>
      <point x="68" y="-131"/>
      <point x="144" y="-45"/>
      <point x="144" y="36" type="curve" smooth="yes"/>
      <point x="144" y="95"/>
      <point x="110" y="134"/>
      <point x="59" y="134" type="curve" smooth="yes"/>
      <point x="18" y="134"/>
      <point x="-12" y="103"/>
      <point x="-12" y="61" type="curve" smooth="yes"/>
      <point x="-12" y="34"/>
      <point x="-2" y="18"/>
      <point x="28" y="-2" type="curve" smooth="yes"/>
      <point x="51" y="-17"/>
      <point x="58" y="-27"/>
      <point x="58" y="-41" type="curve" smooth="yes"/>
      <point x="58" y="-77"/>
      <point x="18" y="-116"/>
      <point x="-60" y="-158" type="curve"/>
    </contour>
  </outline>
</glyph>
<glyph name="period" format="2">
  <advance width="250"/>
  <unicode hex="002E"/>
  <outline>
    <contour>
      <point x="66" y="135" type="curve" smooth="yes"/>
      <point x="23" y="135"/>
      <point x="-9" y="103"/>
      <point x="-9" y="60" type="curve" smooth="yes"/>
      <point x="-9" y="19"/>
      <point x="23" y="-13"/>
      <point x="64" y="-13" type="curve" smooth="yes"/>
      <point x="106" y="-13"/>
      <point x="139" y="19"/>
      <point x="139" y="61" type="curve" smooth="yes"/>
      <point x="139" y="101"/>
      <point x="106" y="135"/>
    </contour>
  </outline>
</glyph>
<glyph name="slash" format="2">
  <advance width="278"/>
  <unicode hex="002F"/>
  <outline>
    <contour>
      <point x="255" y="685" type="line"/>
      <point x="-64" y="-18" type="line"/>
      <point x="23" y="-18" type="line"/>
      <point x="342" y="685" type="line"/>
    </contour>
  </outline>
</glyph>
<glyph name="zero" format="2">
  <advance width="500"/>
  <unicode hex="0030"/>
  <outline>
    <contour>
      <point x="17" y="222.264" type="curve" smooth="yes"/>
      <point x="17" y="74.8735"/>
      <point x="82.147" y="-14"/>
      <point x="179.664" y="-14" type="curve" smooth="yes"/>
      <point x="334.869" y="-14"/>
      <point x="477" y="211.121"/>
      <point x="477" y="437.702" type="curve" smooth="yes"/>
      <point x="477" y="588.808"/>
      <point x="413.787" y="683"/>
      <point x="319.153" y="683" type="curve" smooth="yes"/>
      <point x="169.637" y="683"/>
      <point x="17" y="447.871"/>
    </contour>
    <contour>
      <point x="120" y="100.073" type="curve" smooth="yes"/>
      <point x="120" y="252.126"/>
      <point x="262.169" y="654"/>
      <point x="338.445" y="654" type="curve" smooth="yes"/>
      <point x="357.263" y="654"/>
      <point x="374" y="629.538"/>
      <point x="374" y="569.022" type="curve" smooth="yes"/>
      <point x="374" y="395.709"/>
      <point x="236.728" y="15"/>
      <point x="160.835" y="15" type="curve" smooth="yes"/>
      <point x="140.5" y="15"/>
      <point x="120" y="42.3333"/>
    </contour>
  </outline>
</glyph>
<glyph name="one" format="2">
  <advance width="500"/>
  <unicode hex="0031"/>
  <outline>
    <contour>
      <point x="5" y="0" type="line"/>
      <point x="350" y="0" type="line"/>
      <point x="350" y="23.1885" type="line"/>
      <point x="332.455" y="23.1885" type="line" smooth="yes"/>
      <point x="268.238" y="23.1885"/>
      <point x="253" y="34.9128"/>
      <point x="253" y="69" type="curve" smooth="yes"/>
      <point x="253" y="78"/>
      <point x="254" y="83"/>
      <point x="265" y="123" type="curve" smooth="yes"/>
      <point x="419" y="683" type="line"/>
      <point x="328" y="661"/>
      <point x="265" y="648"/>
      <point x="149" y="631" type="curve"/>
      <point x="147" y="608" type="line"/>
      <point x="174" y="612"/>
      <point x="191" y="613"/>
      <point x="210" y="613" type="curve" smooth="yes"/>
      <point x="241" y="613"/>
      <point x="256" y="602"/>
      <point x="256" y="580" type="curve" smooth="yes"/>
      <point x="256" y="574"/>
      <point x="254.477" y="564.881"/>
      <point x="252" y="556" type="curve" smooth="yes"/>
      <point x="124" y="97" type="line" smooth="yes"/>
      <point x="108.686" y="42.0865"/>
      <point x="77" y="23"/>
      <point x="5" y="23" type="curve"/>
    </contour>
  </outline>
</glyph>
<glyph name="two" format="2">
  <advance width="500"/>
  <unicode hex="0032"/>
  <outline>
    <contour>
      <point x="-27" y="0" type="line"/>
      <point x="340" y="0" type="line"/>
      <point x="419" y="191" type="line"/>
      <point x="394" y="191" type="line"/>
      <point x="358.322" y="125.941"/>
      <point x="332.363" y="111"/>
      <point x="255" y="111" type="curve" smooth="yes"/>
      <point x="106" y="111" type="line"/>
      <point x="302" y="278" type="line" smooth="yes"/>
      <point x="395.068" y="357.298"/>
      <point x="446" y="440.462"/>
      <point x="446" y="516.878" type="curve" smooth="yes"/>
      <point x="446" y="608.72"/>
      <point x="372.43" y="683"/>
      <point x="278.934" y="683" type="curve" smooth="yes"/>
      <point x="193.324" y="683"/>
      <point x="112.275" y="620.722"/>
      <point x="64" y="519" type="curve"/>
      <point x="86" y="507" type="line"/>
      <point x="100" y="528"/>
      <point x="143" y="593"/>
      <point x="219.507" y="593" type="curve" smooth="yes"/>
      <point x="312" y="593"/>
      <point x="312" y="498"/>
      <point x="312" y="479" type="curve" smooth="yes"/>
      <point x="312" y="410.903"/>
      <point x="276.867" y="340.964"/>
      <point x="205" y="266" type="curve" smooth="yes"/>
      <point x="-27" y="24" type="line"/>
    </contour>
  </outline>
</glyph>
<glyph name="three" format="2">
  <advance width="500"/>
  <unicode hex="0033"/>
  <outline>
    <contour>
      <point x="-15" y="71.7771" type="curve" smooth="yes"/>
      <point x="-15" y="52"/>
      <point x="-7" y="-13"/>
      <point x="113.725" y="-13" type="curve" smooth="yes"/>
      <point x="275" y="-13"/>
      <point x="408" y="103"/>
      <point x="408" y="253.189" type="curve" smooth="yes"/>
      <point x="408" y="328"/>
      <point x="374.621" y="365"/>
      <point x="330.115" y="397" type="curve"/>
      <point x="342.253" y="403" type="line" smooth="yes"/>
      <point x="433" y="448"/>
      <point x="450" y="505"/>
      <point x="450" y="547" type="curve" smooth="yes"/>
      <point x="450" y="639"/>
      <point x="368.552" y="683"/>
      <point x="293.715" y="683" type="curve" smooth="yes"/>
      <point x="200" y="683"/>
      <point x="137" y="614"/>
      <point x="97" y="550" type="curve"/>
      <point x="118" y="537" type="line"/>
      <point x="144" y="573"/>
      <point x="173" y="612"/>
      <point x="231.937" y="612" type="curve" smooth="yes"/>
      <point x="297.639" y="612"/>
      <point x="320" y="563"/>
      <point x="320" y="518.281" type="curve" smooth="yes"/>
      <point x="320" y="442.718"/>
      <point x="253.864" y="391.903"/>
      <point x="132" y="369" type="curve"/>
      <point x="128" y="347" type="line"/>
      <point x="135.829" y="347.803"/>
      <point x="143.343" y="348.195"/>
      <point x="150.548" y="348.195" type="curve" smooth="yes"/>
      <point x="243.553" y="348.195"/>
      <point x="285" y="282.81"/>
      <point x="285" y="194.718" type="curve" smooth="yes"/>
      <point x="285" y="97"/>
      <point x="234" y="27"/>
      <point x="172.771" y="27" type="curve" smooth="yes"/>
      <point x="101.067" y="27"/>
      <point x="120.986" y="123"/>
      <point x="45.4084" y="123" type="curve" smooth="yes"/>
      <point x="25" y="123"/>
      <point x="-15" y="116"/>
    </contour>
  </outline>
</glyph>
<glyph name="five" format="2">
  <advance width="500"/>
  <unicode hex="0035"/>
  <outline>
    <contour>
      <point x="197" y="560" type="line"/>
      <point x="451" y="560" type="line"/>
      <point x="487" y="669" type="line"/>
      <point x="204" y="669" type="line"/>
      <point x="78.4656" y="384.354" type="line"/>
      <point x="78.4656" y="372" type="line"/>
      <point x="214.623" y="372"/>
      <point x="307" y="299.817"/>
      <point x="307" y="192.906" type="curve" smooth="yes"/>
      <point x="307" y="104.634"/>
      <point x="244.025" y="27"/>
      <point x="182.934" y="27" type="curve" smooth="yes"/>
      <point x="115" y="27"/>
      <point x="122" y="123"/>
      <point x="48.4714" y="123" type="curve" smooth="yes"/>
      <point x="13.7434" y="123"/>
      <point x="-11" y="101.585"/>
      <point x="-11" y="68.629" type="curve" smooth="yes"/>
      <point x="-11" y="20.3993"/>
      <point x="41.993" y="-13"/>
      <point x="127.385" y="-13" type="curve" smooth="yes"/>
      <point x="286.846" y="-13"/>
      <point x="412" y="103.468"/>
      <point x="412" y="260.885" type="curve" smooth="yes"/>
      <point x="412" y="380.824"/>
      <point x="339.346" y="446.989"/>
      <point x="163" y="484" type="curve"/>
    </contour>
  </outline>
</glyph>
<glyph name="six" format="2">
  <advance width="500"/>
  <unicode hex="0036"/>
  <outline>
    <contour>
      <point x="23" y="199.122" type="curve" smooth="yes"/>
      <point x="23" y="67.3759"/>
      <point x="89.5616" y="-15"/>
      <point x="199.753" y="-15" type="curve" smooth="yes"/>
      <point x="331.937" y="-15"/>
      <point x="443" y="103.539"/>
      <point x="443" y="248.15" type="curve" smooth="yes"/>
      <point x="443" y="354.575"/>
      <point x="382.848" y="422"/>
      <point x="293.539" y="422" type="curve" smooth="yes"/>
      <point x="266.014" y="422"/>
      <point x="247.166" y="415.595"/>
      <point x="226.083" y="399.472" type="curve"/>
      <point x="223.353" y="402.107" type="line"/>
      <point x="276.762" y="519.389"/>
      <point x="375.618" y="606.91"/>
      <point x="509" y="655" type="curve"/>
      <point x="503" y="679" type="line"/>
      <point x="229.524" y="639.932"/>
      <point x="23" y="431.189"/>
    </contour>
    <contour>
      <point x="135" y="107.919" type="curve" smooth="yes"/>
      <point x="135" y="224.46"/>
      <point x="201.419" y="382"/>
      <point x="276.361" y="382" type="curve" smooth="yes"/>
      <point x="319" y="382"/>
      <point x="319" y="331"/>
      <point x="319" y="311" type="curve" smooth="yes"/>
      <point x="319" y="185.587"/>
      <point x="246.175" y="17"/>
      <point x="181.026" y="17" type="curve" smooth="yes"/>
      <point x="154.865" y="17"/>
      <point x="135" y="44.1842"/>
    </contour>
  </outline>
</glyph>
<glyph name="eight" format="2">
  <advance width="500"/>
  <unicode hex="0038"/>
  <outline>
    <contour>
      <point x="3" y="153.23" type="curve" smooth="yes"/>
      <point x="3" y="61.1883"/>
      <point x="88.9533" y="-13"/>
      <point x="201.491" y="-13" type="curve" smooth="yes"/>
      <point x="325.301" y="-13"/>
      <point x="419" y="76.7948"/>
      <point x="419" y="189.335" type="curve" smooth="yes"/>
      <point x="419" y="257.808"/>
      <point x="384.313" y="334.379"/>
      <point x="333.351" y="382.425" type="curve" smooth="yes"/>
      <point x="310.052" y="404.39" type="line" smooth="yes"/>
      <point x="242.106" y="468.448"/>
      <point x="222" y="505.081"/>
      <point x="222" y="551.038" type="curve" smooth="yes"/>
      <point x="222" y="610.196"/>
      <point x="255.317" y="651"/>
      <point x="303.199" y="651" type="curve" smooth="yes"/>
      <point x="352.284" y="651"/>
      <point x="384" y="608.121"/>
      <point x="384" y="540.871" type="curve" smooth="yes"/>
      <point x="384" y="490.782"/>
      <point x="366.405" y="460.719"/>
      <point x="293.573" y="387.127" type="curve"/>
      <point x="318.011" y="376.531" type="line"/>
      <point x="427.588" y="417.739"/>
      <point x="476" y="467.666"/>
      <point x="476" y="534.787" type="curve" smooth="yes"/>
      <point x="476" y="620.805"/>
      <point x="396.49" y="683"/>
      <point x="298.627" y="683" type="curve" smooth="yes"/>
      <point x="188.052" y="683"/>
      <point x="109" y="603.599"/>
      <point x="109" y="498.399" type="curve" smooth="yes"/>
      <point x="109" y="440.96"/>
      <point x="132.566" y="393.347"/>
      <point x="184.333" y="346.482" type="curve" smooth="yes"/>
      <point x="210.802" y="322.52" type="line" smooth="yes"/>
      <point x="287.573" y="253.018"/>
      <point x="306" y="215.311"/>
      <point x="306" y="160.326" type="curve" smooth="yes"/>
      <point x="306" y="73.1014"/>
      <point x="259.631" y="19"/>
      <point x="197.475" y="19" type="curve" smooth="yes"/>
      <point x="137.745" y="19"/>
      <point x="100" y="68.9598"/>
      <point x="100" y="145.366" type="curve" smooth="yes"/>
      <point x="100" y="220.96"/>
      <point x="136.947" y="276.218"/>
      <point x="222.698" y="330.193" type="curve"/>
      <point x="201.459" y="349.331" type="line"/>
      <point x="74.546" y="305.385"/>
      <point x="3" y="237.204"/>
    </contour>
  </outline>
</glyph>
<glyph name="nine" format="2">
  <advance width="500"/>
  <unicode hex="0039"/>
  <outline>
    <contour>
      <point x="-6" y="-10" type="line"/>
      <point x="262.45" y="28.0304"/>
      <point x="475" y="238.371"/>
      <point x="475" y="472.325" type="curve" smooth="yes"/>
      <point x="475" y="601.39"/>
      <point x="410.313" y="683"/>
      <point x="298.485" y="683" type="curve" smooth="yes"/>
      <point x="163.474" y="683"/>
      <point x="53" y="564.044"/>
      <point x="53" y="419.458" type="curve" smooth="yes"/>
      <point x="53" y="312.537"/>
      <point x="113.414" y="245"/>
      <point x="204.604" y="245" type="curve" smooth="yes"/>
      <point x="226.704" y="245"/>
      <point x="242.964" y="248.967"/>
      <point x="264.298" y="259.712" type="curve"/>
      <point x="265.702" y="258.288" type="line"/>
      <point x="210.145" y="140.183"/>
      <point x="103.228" y="46.5152"/>
      <point x="-12" y="15" type="curve"/>
    </contour>
    <contour>
      <point x="177" y="379.563" type="curve" smooth="yes"/>
      <point x="177" y="491.7"/>
      <point x="252.299" y="651"/>
      <point x="324.035" y="651" type="curve" smooth="yes"/>
      <point x="363" y="651"/>
      <point x="363" y="604"/>
      <point x="363" y="575" type="curve" smooth="yes"/>
      <point x="363" y="440.575"/>
      <point x="298.674" y="288"/>
      <point x="230.609" y="288" type="curve" smooth="yes"/>
      <point x="202.011" y="288"/>
      <point x="177" y="314.935"/>
    </contour>
  </outline>
</glyph>
<glyph name="colon" format="2">
  <advance width="333"/>
  <unicode hex="003A"/>
  <outline>
    <contour>
      <point x="98" y="135" type="curve" smooth="yes"/>
      <point x="56" y="135"/>
      <point x="23" y="103"/>
      <point x="23" y="61" type="curve" smooth="yes"/>
      <point x="23" y="19"/>
      <point x="55" y="-13"/>
      <point x="96" y="-13" type="curve" smooth="yes"/>
      <point x="138" y="-13"/>
      <point x="171" y="19"/>
      <point x="171" y="61" type="curve" smooth="yes"/>
      <point x="171" y="101"/>
      <point x="138" y="135"/>
    </contour>
    <contour>
      <point x="191" y="459" type="curve" smooth="yes"/>
      <point x="149" y="459"/>
      <point x="116" y="427"/>
      <point x="116" y="385" type="curve" smooth="yes"/>
      <point x="116" y="343"/>
      <point x="148" y="311"/>
      <point x="189" y="311" type="curve" smooth="yes"/>
      <point x="231" y="311"/>
      <point x="264" y="343"/>
      <point x="264" y="385" type="curve" smooth="yes"/>
      <point x="264" y="425"/>
      <point x="231" y="459"/>
    </contour>
  </outline>
</glyph>
<glyph name="question" format="2">
  <advance width="500"/>
  <unicode hex="003F"/>
  <outline>
    <contour>
      <point x="166.484" y="215" type="curve"/>
      <point x="195.172" y="208" type="line"/>
      <point x="203.869" y="237.774" type="line" smooth="yes"/>
      <point x="214.865" y="275.416"/>
      <point x="233.11" y="296.753"/>
      <point x="278" y="326" type="curve" smooth="yes"/>
      <point x="344" y="369" type="line" smooth="yes"/>
      <point x="432.885" y="426.91"/>
      <point x="470" y="476.915"/>
      <point x="470" y="539.136" type="curve" smooth="yes"/>
      <point x="470" y="625.272"/>
      <point x="398.868" y="684"/>
      <point x="294.092" y="684" type="curve" smooth="yes"/>
      <point x="194.041" y="684"/>
      <point x="119" y="630.45"/>
      <point x="119" y="559.55" type="curve" smooth="yes"/>
      <point x="119" y="518.152"/>
      <point x="144.583" y="488"/>
      <point x="179.869" y="488" type="curve" smooth="yes"/>
      <point x="213.198" y="488"/>
      <point x="241" y="514.899"/>
      <point x="241" y="547.516" type="curve" smooth="yes"/>
      <point x="241" y="562.645"/>
      <point x="235.02" y="576.674"/>
      <point x="221.654" y="593.127" type="curve" smooth="yes"/>
      <point x="213.939" y="602.624"/>
      <point x="211" y="608.464"/>
      <point x="211" y="614.285" type="curve" smooth="yes"/>
      <point x="211" y="633.265"/>
      <point x="242.25" y="652"/>
      <point x="274.611" y="652" type="curve" smooth="yes"/>
      <point x="316.551" y="652"/>
      <point x="343" y="620.532"/>
      <point x="343" y="569.78" type="curve" smooth="yes"/>
      <point x="343" y="525.526"/>
      <point x="322.891" y="479.596"/>
      <point x="279" y="425" type="curve" smooth="yes"/>
      <point x="238" y="374" type="line" smooth="yes"/>
      <point x="191.216" y="315.805"/>
      <point x="170.433" y="269.889"/>
    </contour>
    <contour>
      <point x="79" y="60.6001" type="curve" smooth="yes"/>
      <point x="79" y="19.2984"/>
      <point x="110.707" y="-13"/>
      <point x="152.159" y="-13" type="curve" smooth="yes"/>
      <point x="193.804" y="-13"/>
      <point x="227" y="19.5993"/>
      <point x="227" y="60.1756" type="curve" smooth="yes"/>
      <point x="227" y="101.318"/>
      <point x="192.872" y="135"/>
      <point x="151.785" y="135" type="curve" smooth="yes"/>
      <point x="111.288" y="135"/>
      <point x="79" y="102.278"/>
    </contour>
  </outline>
</glyph>
<glyph name="at" format="2">
  <advance width="832"/>
  <unicode hex="0040"/>
  <outline>
    <contour>
      <point x="545" y="463.85" type="line"/>
      <point x="523" y="505.18"/>
      <point x="509" y="515"/>
      <point x="476.02" y="515" type="curve" smooth="yes"/>
      <point x="348.007" y="515"/>
      <point x="272" y="367.048"/>
      <point x="272" y="266.706" type="curve" smooth="yes"/>
      <point x="272" y="193.009"/>
      <point x="313" y="143"/>
      <point x="366.71" y="143" type="curve" smooth="yes"/>
      <point x="408" y="143"/>
      <point x="455" y="172.556"/>
      <point x="490" y="217.084" type="curve"/>
      <point x="492.397" y="170.039"/>
      <point x="528.538" y="142"/>
      <point x="579.866" y="142" type="curve" smooth="yes"/>
      <point x="683" y="142"/>
      <point x="770" y="255.202"/>
      <point x="770" y="385.808" type="curve" smooth="yes"/>
      <point x="770" y="555"/>
      <point x="624" y="685"/>
      <point x="435.825" y="685" type="curve" smooth="yes"/>
      <point x="228.373" y="685"/>
      <point x="63" y="527"/>
      <point x="63" y="330.535" type="curve" smooth="yes"/>
      <point x="63" y="134.07"/>
      <point x="228.373" y="-18"/>
      <point x="444.664" y="-18" type="curve" smooth="yes"/>
      <point x="511" y="-18"/>
      <point x="563" y="-3.69565"/>
      <point x="660" y="41.886" type="curve"/>
      <point x="647" y="76.5789" type="line"/>
      <point x="569" y="40.8947"/>
      <point x="518" y="29"/>
      <point x="460.734" y="29" type="curve" smooth="yes"/>
      <point x="277" y="29"/>
      <point x="155" y="151.444"/>
      <point x="155" y="333.139" type="curve" smooth="yes"/>
      <point x="155" y="511.072"/>
      <point x="272" y="646"/>
      <point x="437.384" y="646" type="curve" smooth="yes"/>
      <point x="594" y="646"/>
      <point x="724" y="525"/>
      <point x="724" y="390.658" type="curve" smooth="yes"/>
      <point x="724" y="313.029"/>
      <point x="680.592" y="181"/>
      <point x="597.514" y="181" type="curve" smooth="yes"/>
      <point x="572.124" y="181"/>
      <point x="558.63" y="193.332"/>
      <point x="558.63" y="215.926" type="curve" smooth="yes"/>
      <point x="558.63" y="224.607"/>
      <point x="560.622" y="238.719"/>
      <point x="562" y="244.168" type="curve" smooth="yes"/>
      <point x="627" y="501.252" type="line"/>
      <point x="556" y="501.252" type="line"/>
    </contour>
    <contour>
      <point x="479.041" y="468" type="curve" smooth="yes"/>
      <point x="516.585" y="468"/>
      <point x="528.177" y="439.177"/>
      <point x="528.177" y="408.38" type="curve" smooth="yes"/>
      <point x="528.177" y="349.624"/>
      <point x="485.984" y="190"/>
      <point x="406.978" y="190" type="curve" smooth="yes"/>
      <point x="371" y="190"/>
      <point x="348" y="223.103"/>
      <point x="348" y="270.79" type="curve" smooth="yes"/>
      <point x="348" y="343.102"/>
      <point x="400.887" y="468"/>
    </contour>
  </outline>
</glyph>
<glyph name="A" format="2">
  <advance width="691"/>
  <unicode hex="0041"/>
  <anchor x="431.749" y="723" name="top"/>
  <anchor x="423.505" y="635.897" name="t.ring"/>
  <anchor x="446.358" y="770" name="macron"/>
  <anchor x="228.919" y="-70" name="bottom"/>
  <anchor x="456.122" y="10" name="ogonek"/>
  <anchor x="228.919" y="-70" name="b.ring"/>
  <anchor x="256" y="692" name="t.tonos"/>
  <anchor x="431.749" y="723" name="t.hook"/>
  <anchor x="288" y="722" name="gr.diacritics"/>
  <anchor x="173" y="-50" name="b.ypogegrammeni"/>
  <outline>
    <contour>
      <point x="-43" y="0" type="line"/>
      <point x="153" y="0" type="line"/>
      <point x="153" y="25" type="line"/>
      <point x="129" y="25"/>
      <point x="88" y="27"/>
      <point x="88" y="60" type="curve" smooth="yes"/>
      <point x="88" y="72.7624"/>
      <point x="93.5152" y="91.7481"/>
      <point x="104.598" y="110.561" type="curve" smooth="yes"/>
      <point x="333" y="491" type="line"/>
      <point x="388.883" y="128.428" type="line" smooth="yes"/>
      <point x="391.25" y="112.58"/>
      <point x="392" y="96.6185"/>
      <point x="392" y="81" type="curve" smooth="yes"/>
      <point x="392" y="46.078"/>
      <point x="368.094" y="29.1321"/>
      <point x="313" y="25" type="curve"/>
      <point x="313" y="0" type="line"/>
      <point x="617" y="0" type="line"/>
      <point x="617" y="25" type="line"/>
      <point x="547" y="32"/>
      <point x="545" y="41"/>
      <point x="533" y="111" type="curve" smooth="yes"/>
      <point x="437" y="683" type="line"/>
      <point x="412" y="683" type="line"/>
      <point x="40" y="95" type="line" smooth="yes"/>
      <point x="16" y="57"/>
      <point x="1" y="36"/>
      <point x="-43" y="25" type="curve"/>
    </contour>
    <contour>
      <point x="147" y="208" type="line"/>
      <point x="392" y="208" type="line"/>
      <point x="385" y="248" type="line"/>
      <point x="170" y="248" type="line"/>
    </contour>
  </outline>
  <guideline angle="74.5" x="412.415" y="652.99"/>
  <guideline angle="0" x="0" y="723"/>
  <guideline angle="0" x="0" y="-70"/>
</glyph>
<glyph name="B" format="2">
  <advance width="667"/>
  <unicode hex="0042"/>
  <anchor x="413.92" y="723" name="top"/>
  <anchor x="231.951" y="-70" name="bottom"/>
  <outline>
    <contour>
      <point x="110.423" y="0" type="line"/>
      <point x="277" y="0" type="line" smooth="yes"/>
      <point x="458.87" y="0"/>
      <point x="572" y="76.6675"/>
      <point x="572" y="203.293" type="curve" smooth="yes"/>
      <point x="572" y="277.734"/>
      <point x="532.901" y="322.385"/>
      <point x="438" y="352.947" type="curve"/>
      <point x="438" y="356.099" type="line"/>
      <point x="565.403" y="388.517"/>
      <point x="624" y="439.953"/>
      <point x="624" y="519.225" type="curve" smooth="yes"/>
      <point x="624" y="615.263"/>
      <point x="537.995" y="669"/>
      <point x="388" y="669" type="curve" smooth="yes"/>
      <point x="294.34" y="669" type="line"/>
      <point x="273.462" y="593" type="line"/>
      <point x="340" y="593" type="line"/>
      <point x="348.499" y="623.784"/>
      <point x="364.195" y="637"/>
      <point x="396.599" y="637" type="curve" smooth="yes"/>
      <point x="448.882" y="637"/>
      <point x="477" y="602.592"/>
      <point x="477" y="526.891" type="curve" smooth="yes"/>
      <point x="477" y="418.415"/>
      <point x="419.263" y="367.864"/>
      <point x="281.537" y="367.864" type="curve" smooth="yes"/>
      <point x="258.973" y="367.864" type="line"/>
      <point x="251.471" y="335.864" type="line"/>
      <point x="273.362" y="335.864" type="line" smooth="yes"/>
      <point x="379.487" y="335.864"/>
      <point x="419" y="305.399"/>
      <point x="419" y="223.257" type="curve" smooth="yes"/>
      <point x="419" y="112.766"/>
      <point x="347.506" y="32"/>
      <point x="256.506" y="32" type="curve" smooth="yes"/>
      <point x="218.74" y="32"/>
      <point x="198" y="45.9104"/>
      <point x="198" y="68.0508" type="curve" smooth="yes"/>
      <point x="198" y="78.4042"/>
      <point x="202.535" y="102.361"/>
      <point x="208.266" y="123.116" type="curve"/>
      <point x="144.253" y="123.116" type="line"/>
    </contour>
    <contour>
      <point x="64.4622" y="133.395" type="line" name=".sk1"/>
      <point x="54.58" y="97.2334" type="line" smooth="yes"/>
      <point x="40.809" y="46.3867"/>
      <point x="24.8677" y="32.344"/>
      <point x="-27.42" y="25" type="curve"/>
      <point x="-27.42" y="0" type="line"/>
      <point x="102.595" y="0" type="line"/>
      <point x="177" y="0" type="line"/>
      <point x="361" y="669" type="line" name=".sk2"/>
      <point x="212.37" y="668.996" type="line" name=".sk3"/>
      <point x="129" y="669.018" type="line"/>
      <point x="128.995" y="644.018" type="line"/>
      <point x="169.349" y="637.936"/>
      <point x="187.406" y="623.39"/>
      <point x="187.509" y="593.376" type="curve" smooth="yes"/>
      <point x="187.543" y="583.528"/>
      <point x="185.644" y="572.015"/>
      <point x="181.966" y="558.59" type="curve" smooth="yes"/>
      <point x="176.233" y="537.664" type="line"/>
    </contour>
  </outline>
  <guideline angle="74.5" x="394.504" y="652.99"/>
  <guideline angle="254.622" x="294.423" y="669"/>
</glyph>
<glyph name="C" format="2">
  <advance width="669"/>
  <unicode hex="0043"/>
  <anchor x="331.99" y="10" name="cedilla"/>
  <anchor x="458.662" y="723" name="top"/>
  <anchor x="274.307" y="-70" name="bottom"/>
  <outline>
    <contour>
      <point x="34" y="259.001" type="curve" smooth="yes"/>
      <point x="34" y="86.489"/>
      <point x="144.159" y="-18"/>
      <point x="302.155" y="-18" type="curve" smooth="yes"/>
      <point x="416.386" y="-18"/>
      <point x="516.095" y="36.6199"/>
      <point x="578" y="131" type="curve"/>
      <point x="548" y="153" type="line"/>
      <point x="482.683" y="69.665"/>
      <point x="419.229" y="35"/>
      <point x="346.008" y="35" type="curve" smooth="yes"/>
      <point x="243.092" y="35"/>
      <point x="188" y="103.483"/>
      <point x="188" y="227.093" type="curve" smooth="yes"/>
      <point x="188" y="426.083"/>
      <point x="330.773" y="650"/>
      <point x="475.199" y="650" type="curve" smooth="yes"/>
      <point x="549.469" y="650"/>
      <point x="599" y="590.786"/>
      <point x="599" y="493.831" type="curve" smooth="yes"/>
      <point x="599" y="479.667"/>
      <point x="597.943" y="467.686"/>
      <point x="596" y="457" type="curve"/>
      <point x="628" y="451" type="line"/>
      <point x="679" y="685" type="line"/>
      <point x="649" y="685" type="line"/>
      <point x="639.598" y="666.196"/>
      <point x="625.534" y="656"/>
      <point x="605.235" y="656" type="curve" smooth="yes"/>
      <point x="571" y="656"/>
      <point x="508" y="685"/>
      <point x="428.779" y="685" type="curve" smooth="yes"/>
      <point x="219.682" y="685"/>
      <point x="34" y="482.974"/>
    </contour>
  </outline>
  <guideline angle="74.5" x="439.247" y="652.99"/>
</glyph>
<glyph name="D" format="2">
  <advance width="744"/>
  <unicode hex="0044"/>
  <anchor x="286.646" y="10" name="cedilla"/>
  <anchor x="458.662" y="723" name="top"/>
  <anchor x="274.307" y="-70" name="bottom"/>
  <outline>
    <contour>
      <point x="108.697" y="0" type="line"/>
      <point x="262" y="0" type="line" smooth="yes"/>
      <point x="518.625" y="0"/>
      <point x="707" y="165.298"/>
      <point x="707" y="392.472" type="curve" smooth="yes"/>
      <point x="707" y="566.278"/>
      <point x="596.736" y="669"/>
      <point x="406" y="669" type="curve" smooth="yes"/>
      <point x="292.697" y="669" type="line"/>
      <point x="272.697" y="597.063" type="line"/>
      <point x="343" y="597.063" type="line"/>
      <point x="350.692" y="625.501"/>
      <point x="365.316" y="637"/>
      <point x="403.24" y="637" type="curve" smooth="yes"/>
      <point x="506.724" y="637"/>
      <point x="560" y="576.261"/>
      <point x="560" y="432.741" type="curve" smooth="yes"/>
      <point x="560" y="210.672"/>
      <point x="432.45" y="34"/>
      <point x="259.211" y="34" type="curve" smooth="yes"/>
      <point x="217.843" y="34"/>
      <point x="200" y="44.5672"/>
      <point x="200" y="67.7586" type="curve" smooth="yes"/>
      <point x="200" y="76.1499"/>
      <point x="202.336" y="84.4228"/>
      <point x="213" y="123.848" type="curve"/>
      <point x="142.712" y="123.848" type="line"/>
    </contour>
    <contour>
      <point x="66.4622" y="133.395" type="line" name=".sk1"/>
      <point x="56.58" y="97.2334" type="line" smooth="yes"/>
      <point x="42.809" y="46.3867"/>
      <point x="26.8677" y="32.344"/>
      <point x="-25.42" y="25" type="curve"/>
      <point x="-25.42" y="0" type="line"/>
      <point x="104.595" y="0" type="line"/>
      <point x="179" y="0" type="line"/>
      <point x="363" y="669" type="line" name=".sk2"/>
      <point x="214.37" y="668.996" type="line" name=".sk3"/>
      <point x="131" y="669.018" type="line"/>
      <point x="130.995" y="644.018" type="line"/>
      <point x="171.349" y="637.936"/>
      <point x="189.406" y="623.39"/>
      <point x="189.509" y="593.376" type="curve" smooth="yes"/>
      <point x="189.543" y="583.528"/>
      <point x="187.644" y="572.015"/>
      <point x="183.966" y="558.59" type="curve" smooth="yes"/>
      <point x="178.233" y="537.664" type="line"/>
    </contour>
  </outline>
  <guideline angle="74.5" x="439.247" y="652.99"/>
  <guideline angle="254.622" x="292.697" y="669"/>
</glyph>
<glyph name="E" format="2">
  <advance width="670"/>
  <unicode hex="0045"/>
  <anchor x="413" y="723" name="top"/>
  <anchor x="425" y="760" name="macron"/>
  <anchor x="228.919" y="-70" name="bottom"/>
  <anchor x="523.82" y="0" name="ogonek"/>
  <anchor x="296.338" y="10" name="cedilla"/>
  <anchor x="75.8639" y="692" name="t.tonos"/>
  <anchor x="111" y="722" name="gr.diacritics"/>
  <anchor x="217" y="-50" name="b.ypogegrammeni"/>
  <outline>
    <contour>
      <point x="93.8619" y="0" type="line"/>
      <point x="527" y="0" type="line"/>
      <point x="586" y="194" type="line"/>
      <point x="561" y="199" type="line"/>
      <point x="497" y="82"/>
      <point x="391" y="32"/>
      <point x="260" y="32" type="curve" smooth="yes"/>
      <point x="232" y="32"/>
      <point x="195" y="32"/>
      <point x="195" y="64" type="curve" smooth="yes"/>
      <point x="195" y="75.5735"/>
      <point x="196.543" y="85.6515"/>
      <point x="209.558" y="133" type="curve"/>
      <point x="129.862" y="133" type="line"/>
    </contour>
    <contour>
      <point x="248.611" y="337.007" type="line"/>
      <point x="273.722" y="335" type="line" smooth="yes"/>
      <point x="366.475" y="327.586"/>
      <point x="410" y="299.203"/>
      <point x="410" y="244" type="curve" smooth="yes"/>
      <point x="410" y="231"/>
      <point x="408" y="217"/>
      <point x="406" y="204" type="curve"/>
      <point x="434" y="199" type="line"/>
      <point x="508" y="472" type="line"/>
      <point x="480" y="476" type="line"/>
      <point x="431.655" y="383.363"/>
      <point x="405.616" y="377.224"/>
      <point x="305.553" y="372" type="curve" smooth="yes"/>
      <point x="257.301" y="369.481" type="line"/>
    </contour>
    <contour>
      <point x="66.4622" y="133.395" type="line" name=".sk1"/>
      <point x="56.58" y="97.2334" type="line" smooth="yes"/>
      <point x="42.809" y="46.3867"/>
      <point x="26.8677" y="32.344"/>
      <point x="-25.42" y="25" type="curve"/>
      <point x="-25.42" y="0" type="line"/>
      <point x="104.595" y="0" type="line"/>
      <point x="179" y="0" type="line"/>
      <point x="363" y="669" type="line" name=".sk2"/>
      <point x="214.37" y="668.996" type="line" name=".sk3"/>
      <point x="131" y="669.018" type="line"/>
      <point x="130.995" y="644.018" type="line"/>
      <point x="171.349" y="637.936"/>
      <point x="189.406" y="623.39"/>
      <point x="189.509" y="593.376" type="curve" smooth="yes"/>
      <point x="189.543" y="583.528"/>
      <point x="187.644" y="572.015"/>
      <point x="183.966" y="558.59" type="curve" smooth="yes"/>
      <point x="178.233" y="537.664" type="line"/>
    </contour>
    <contour>
      <point x="257.846" y="593" type="line"/>
      <point x="336" y="593" type="line"/>
      <point x="345.322" y="626.913"/>
      <point x="358" y="637"/>
      <point x="394" y="637" type="curve" smooth="yes"/>
      <point x="507.055" y="637"/>
      <point x="586.18" y="599.127"/>
      <point x="586.18" y="514.805" type="curve" smooth="yes"/>
      <point x="586.18" y="505.15"/>
      <point x="585.143" y="494.886"/>
      <point x="583" y="484" type="curve"/>
      <point x="610" y="479" type="line"/>
      <point x="653" y="669" type="line"/>
      <point x="274.944" y="669" type="line"/>
    </contour>
  </outline>
  <guideline angle="0" x="0" y="133"/>
  <guideline angle="254.854" x="129.862" y="133"/>
  <guideline angle="0" x="0" y="669"/>
  <guideline angle="74.5" x="394.504" y="652.99"/>
</glyph>
<glyph name="F" format="2">
  <advance width="621"/>
  <unicode hex="0046"/>
  <outline>
    <contour>
      <point x="248.611" y="337.007" type="line"/>
      <point x="273.722" y="335" type="line" smooth="yes"/>
      <point x="366.475" y="327.586"/>
      <point x="410" y="299.203"/>
      <point x="410" y="244" type="curve" smooth="yes"/>
      <point x="410" y="231"/>
      <point x="408" y="217"/>
      <point x="406" y="204" type="curve"/>
      <point x="434" y="199" type="line"/>
      <point x="508" y="472" type="line"/>
      <point x="480" y="476" type="line"/>
      <point x="431.655" y="383.363"/>
      <point x="405.616" y="377.224"/>
      <point x="305.553" y="372" type="curve" smooth="yes"/>
      <point x="257.301" y="369.481" type="line"/>
    </contour>
    <contour>
      <point x="66.6835" y="133.377" type="line" name=".sk1"/>
      <point x="57" y="97.23" type="line" smooth="yes"/>
      <point x="42.62" y="44.16"/>
      <point x="27" y="32.02"/>
      <point x="-23" y="25" type="curve"/>
      <point x="-23" y="0" type="line"/>
      <point x="274.99" y="0" type="line"/>
      <point x="274.99" y="25" type="line"/>
      <point x="211.99" y="30.01"/>
      <point x="201.99" y="36.03"/>
      <point x="201.99" y="68.13" type="curve" smooth="yes"/>
      <point x="201.99" y="79.83"/>
      <point x="205.14" y="94.21"/>
      <point x="210.97" y="117.35" type="curve" smooth="yes"/>
      <point x="214.698" y="133.431" type="line"/>
      <point x="363" y="669" type="line" name=".sk2"/>
      <point x="214.37" y="668.996" type="line" name=".sk3"/>
      <point x="131" y="669.018" type="line"/>
      <point x="130.995" y="644.018" type="line"/>
      <point x="171.349" y="637.936"/>
      <point x="189.406" y="623.39"/>
      <point x="189.509" y="593.376" type="curve" smooth="yes"/>
      <point x="189.543" y="583.528"/>
      <point x="187.644" y="572.015"/>
      <point x="183.966" y="558.59" type="curve" smooth="yes"/>
      <point x="178.233" y="537.664" type="line"/>
    </contour>
    <contour>
      <point x="257.846" y="593" type="line"/>
      <point x="336" y="593" type="line"/>
      <point x="345.322" y="626.913"/>
      <point x="358" y="637"/>
      <point x="394" y="637" type="curve" smooth="yes"/>
      <point x="507.055" y="637"/>
      <point x="586.18" y="599.127"/>
      <point x="586.18" y="514.805" type="curve" smooth="yes"/>
      <point x="586.18" y="505.15"/>
      <point x="585.143" y="494.886"/>
      <point x="583" y="484" type="curve"/>
      <point x="610" y="479" type="line"/>
      <point x="653" y="669" type="line"/>
      <point x="274.944" y="669" type="line"/>
    </contour>
  </outline>
</glyph>
<glyph name="G" format="2">
  <advance width="734"/>
  <unicode hex="0047"/>
  <anchor x="471.367" y="770" name="macron"/>
  <anchor x="458.662" y="723" name="top"/>
  <anchor x="238.744" y="-70" name="bottom"/>
  <outline>
    <contour>
      <point x="718" y="304" type="curve"/>
      <point x="718" y="330" type="line"/>
      <point x="431" y="330" type="line"/>
      <point x="431" y="304" type="line"/>
      <point x="463" y="302"/>
      <point x="505" y="298.088"/>
      <point x="505" y="264.01" type="curve" smooth="yes"/>
      <point x="505" y="256.453"/>
      <point x="502.935" y="241.317"/>
      <point x="497.858" y="222" type="curve" smooth="yes"/>
      <point x="462.051" y="85.7627" type="line" smooth="yes"/>
      <point x="449.789" y="39.1087"/>
      <point x="417.231" y="20"/>
      <point x="350" y="20" type="curve" smooth="yes"/>
      <point x="242" y="20"/>
      <point x="189" y="97"/>
      <point x="189" y="201" type="curve" smooth="yes"/>
      <point x="189" y="353"/>
      <point x="279" y="649"/>
      <point x="470" y="649" type="curve" smooth="yes"/>
      <point x="582" y="649"/>
      <point x="613" y="566"/>
      <point x="613" y="468" type="curve"/>
      <point x="642" y="464" type="line"/>
      <point x="693" y="685" type="line"/>
      <point x="662" y="685" type="line"/>
      <point x="655" y="667"/>
      <point x="640" y="655"/>
      <point x="620" y="655" type="curve" smooth="yes"/>
      <point x="577.601" y="655"/>
      <point x="549.059" y="685"/>
      <point x="454" y="685" type="curve" smooth="yes"/>
      <point x="221" y="685"/>
      <point x="33" y="483"/>
      <point x="33" y="253" type="curve" smooth="yes"/>
      <point x="33" y="77"/>
      <point x="168" y="-18"/>
      <point x="334" y="-18" type="curve" smooth="yes"/>
      <point x="423" y="-18"/>
      <point x="511" y="3"/>
      <point x="591" y="41" type="curve"/>
      <point x="639" y="222" type="line" smooth="yes"/>
      <point x="653" y="276"/>
      <point x="666.777" y="301.139"/>
    </contour>
  </outline>
  <guideline angle="255.147" x="497.858" y="222"/>
  <guideline angle="74.5" x="439.247" y="652.99"/>
</glyph>
<glyph name="H" format="2">
  <advance width="778"/>
  <unicode hex="0048"/>
  <anchor x="471.367" y="770" name="macron"/>
  <anchor x="458.662" y="723" name="top"/>
  <anchor x="238.744" y="-70" name="bottom"/>
  <anchor x="506.695" y="10" name="cedilla"/>
  <anchor x="75.8639" y="692" name="t.tonos"/>
  <anchor x="111" y="722" name="gr.diacritics"/>
  <anchor x="246" y="-50" name="b.ypogegrammeni"/>
  <outline>
    <contour>
      <point x="251" y="329" type="line"/>
      <point x="520" y="329" type="line"/>
      <point x="532" y="373" type="line"/>
      <point x="263" y="373" type="line"/>
    </contour>
    <contour>
      <point x="66.7011" y="133.44" type="line" name=".sk1"/>
      <point x="57.1824" y="97.23" type="line" smooth="yes"/>
      <point x="42.7053" y="44.16"/>
      <point x="26.9797" y="32.02"/>
      <point x="-23.3581" y="25" type="curve"/>
      <point x="-23.3581" y="0" type="line"/>
      <point x="276.645" y="0" type="line"/>
      <point x="276.645" y="25" type="line"/>
      <point x="213.22" y="30.01"/>
      <point x="203.152" y="36.03"/>
      <point x="203.152" y="68.13" type="curve" smooth="yes"/>
      <point x="203.152" y="79.83"/>
      <point x="206.323" y="94.21"/>
      <point x="212.193" y="117.35" type="curve"/>
      <point x="215.716" y="133.495" type="line"/>
      <point x="326.88" y="537.672" type="line" name=".sk2"/>
      <point x="336.824" y="573.77" type="line" smooth="yes"/>
      <point x="351.362" y="627.1"/>
      <point x="368.034" y="639.98"/>
      <point x="419.378" y="644" type="curve"/>
      <point x="419.378" y="669" type="line"/>
      <point x="130.439" y="669" type="line"/>
      <point x="130.439" y="644" type="line"/>
      <point x="171.716" y="637.98"/>
      <point x="190.845" y="630.04"/>
      <point x="190.845" y="608.88" type="curve" smooth="yes"/>
      <point x="190.845" y="593.11"/>
      <point x="188.218" y="574.792"/>
      <point x="183.354" y="557.08" type="curve" smooth="yes"/>
      <point x="177.884" y="537.687" type="line" name=".sk3"/>
    </contour>
    <contour>
      <point x="451.701" y="133.44" type="line" name=".sk1"/>
      <point x="442.182" y="97.23" type="line" smooth="yes"/>
      <point x="427.705" y="44.16"/>
      <point x="411.98" y="32.02"/>
      <point x="361.642" y="25" type="curve"/>
      <point x="361.642" y="0" type="line"/>
      <point x="661.645" y="0" type="line"/>
      <point x="661.645" y="25" type="line"/>
      <point x="598.22" y="30.01"/>
      <point x="588.152" y="36.03"/>
      <point x="588.152" y="68.13" type="curve" smooth="yes"/>
      <point x="588.152" y="79.83"/>
      <point x="591.323" y="94.21"/>
      <point x="597.193" y="117.35" type="curve"/>
      <point x="600.716" y="133.495" type="line"/>
      <point x="711.88" y="537.672" type="line" name=".sk2"/>
      <point x="721.824" y="573.77" type="line" smooth="yes"/>
      <point x="736.362" y="627.1"/>
      <point x="753.034" y="639.98"/>
      <point x="804.378" y="644" type="curve"/>
      <point x="804.378" y="669" type="line"/>
      <point x="515.439" y="669" type="line"/>
      <point x="515.439" y="644" type="line"/>
      <point x="556.716" y="637.98"/>
      <point x="575.845" y="630.04"/>
      <point x="575.845" y="608.88" type="curve" smooth="yes"/>
      <point x="575.845" y="593.11"/>
      <point x="573.218" y="574.792"/>
      <point x="568.354" y="557.08" type="curve" smooth="yes"/>
      <point x="562.884" y="537.687" type="line" name=".sk3"/>
    </contour>
  </outline>
  <guideline angle="0" x="0" y="133"/>
  <guideline angle="74.7989" x="130.37" y="97"/>
  <guideline angle="74.6801" x="441" y="97"/>
  <guideline angle="254.652" x="718" y="572"/>
  <guideline angle="74.5" x="439.247" y="652.99"/>
</glyph>
<glyph name="I" format="2">
  <advance width="393"/>
  <unicode hex="0049"/>
  <anchor x="301.185" y="723" name="top"/>
  <anchor x="301.163" y="770" name="macron"/>
  <anchor x="85.724" y="-70" name="bottom"/>
  <anchor x="104.6" y="10" name="ogonek"/>
  <anchor x="75.8639" y="692" name="t.tonos"/>
  <anchor x="111" y="722" name="gr.diacritics"/>
  <anchor x="57" y="-50" name="b.ypogegrammeni"/>
  <outline>
    <contour>
      <point x="66.6835" y="133.377" type="line" name=".sk1"/>
      <point x="57" y="97.23" type="line" smooth="yes"/>
      <point x="42.62" y="44.16"/>
      <point x="27" y="32.02"/>
      <point x="-23" y="25" type="curve"/>
      <point x="-23" y="0" type="line"/>
      <point x="274.99" y="0" type="line"/>
      <point x="274.99" y="25" type="line"/>
      <point x="211.99" y="30.01"/>
      <point x="201.99" y="36.03"/>
      <point x="201.99" y="68.13" type="curve" smooth="yes"/>
      <point x="201.99" y="79.83"/>
      <point x="205.14" y="94.21"/>
      <point x="210.97" y="117.35" type="curve" smooth="yes"/>
      <point x="214.698" y="133.431" type="line"/>
      <point x="326.897" y="537.733" type="line" name=".sk2"/>
      <point x="337" y="573.77" type="line" smooth="yes"/>
      <point x="351.44" y="627.1"/>
      <point x="368" y="639.98"/>
      <point x="419" y="644" type="curve"/>
      <point x="419" y="669" type="line"/>
      <point x="132" y="669" type="line"/>
      <point x="132" y="644" type="line"/>
      <point x="173" y="637.98"/>
      <point x="192" y="630.04"/>
      <point x="192" y="608.88" type="curve" smooth="yes"/>
      <point x="192" y="593.11"/>
      <point x="189.392" y="574.792"/>
      <point x="184.56" y="557.08" type="curve" smooth="yes"/>
      <point x="178.901" y="537.748" type="line" name=".sk3"/>
    </contour>
  </outline>
  <guideline angle="0" x="0" y="536"/>
  <guideline angle="78.1619" x="-21.5724" y="0"/>
</glyph>
<glyph name="J" format="2">
  <advance width="500"/>
  <unicode hex="004A"/>
  <anchor x="407.252" y="723" name="top"/>
  <anchor x="421.554" y="770" name="macron"/>
  <anchor x="198.311" y="-70" name="bottom"/>
  <outline>
    <contour>
      <point x="-24.117" y="80.171" type="curve" smooth="yes"/>
      <point x="-24.117" y="7.45956"/>
      <point x="67.3465" y="-18"/>
      <point x="134.645" y="-18" type="curve" smooth="yes"/>
      <point x="235.883" y="-18"/>
      <point x="301.47" y="42.0248"/>
      <point x="337.506" y="174.377" type="curve" smooth="yes"/>
      <point x="436.415" y="537.641" type="line" name=".sk1"/>
      <point x="446.181" y="573.77" type="line" smooth="yes"/>
      <point x="460.621" y="627.1"/>
      <point x="477.181" y="639.98"/>
      <point x="528.181" y="644" type="curve"/>
      <point x="528.181" y="669" type="line"/>
      <point x="241.181" y="669" type="line"/>
      <point x="241.181" y="644" type="line"/>
      <point x="282.181" y="637.98"/>
      <point x="301.181" y="630.04"/>
      <point x="301.181" y="608.88" type="curve" smooth="yes"/>
      <point x="301.181" y="593.11"/>
      <point x="298.573" y="574.792"/>
      <point x="293.741" y="557.08" type="curve" smooth="yes"/>
      <point x="288.115" y="537.739" type="line"/>
      <point x="196.003" y="195" type="line" smooth="yes"/>
      <point x="159.616" y="62.5699"/>
      <point x="144.224" y="16"/>
      <point x="103.632" y="16" type="curve" smooth="yes"/>
      <point x="88.883" y="16"/>
      <point x="79.883" y="22.0889"/>
      <point x="79.883" y="34.2667" type="curve" smooth="yes"/>
      <point x="79.883" y="55.3393"/>
      <point x="102.883" y="63.6706"/>
      <point x="102.883" y="95.7602" type="curve" smooth="yes"/>
      <point x="102.883" y="130.855"/>
      <point x="75.2048" y="153"/>
      <point x="42.4275" y="153" type="curve" smooth="yes"/>
      <point x="2.05847" y="153"/>
      <point x="-24.117" y="119.409"/>
    </contour>
  </outline>
  <guideline angle="74.6801" x="179.408" y="133"/>
  <guideline angle="254.837" x="445.781" y="572"/>
  <guideline angle="254.8" x="250.717" y="133"/>
</glyph>
<glyph name="K" format="2">
  <advance width="688"/>
  <unicode hex="004B"/>
  <anchor x="445.92" y="723" name="top"/>
  <anchor x="230.459" y="-70" name="bottom"/>
  <outline>
    <contour>
      <point x="329" y="0" type="line"/>
      <point x="609" y="0" type="line"/>
      <point x="609" y="25" type="line"/>
      <point x="571" y="29.013"/>
      <point x="557" y="36.0357"/>
      <point x="546" y="60.1135" type="curve" smooth="yes"/>
      <point x="389" y="399.209" type="line"/>
      <point x="605" y="597.851" type="line" smooth="yes"/>
      <point x="630.258" y="621.079"/>
      <point x="668.869" y="640.035"/>
      <point x="699" y="644" type="curve"/>
      <point x="699" y="669" type="line"/>
      <point x="488" y="669" type="line"/>
      <point x="488" y="644" type="line"/>
      <point x="523.965" y="640" type="line" smooth="yes"/>
      <point x="535.87" y="638.676"/>
      <point x="544" y="630.121"/>
      <point x="544" y="616.024" type="curve" smooth="yes"/>
      <point x="544" y="593.946"/>
      <point x="524.061" y="562.462"/>
      <point x="482.591" y="526.996" type="curve" smooth="yes"/>
      <point x="266.181" y="341.919" type="line"/>
      <point x="381" y="95.2269" type="line" smooth="yes"/>
      <point x="390" y="75.1621"/>
      <point x="394" y="63.1232"/>
      <point x="394" y="52.0875" type="curve" smooth="yes"/>
      <point x="394" y="30.0162"/>
      <point x="367" y="28.0097"/>
      <point x="329" y="25" type="curve"/>
    </contour>
    <contour>
      <point x="66.6835" y="133.377" type="line" name=".sk1"/>
      <point x="57" y="97.23" type="line" smooth="yes"/>
      <point x="42.62" y="44.16"/>
      <point x="27" y="32.02"/>
      <point x="-23" y="25" type="curve"/>
      <point x="-23" y="0" type="line"/>
      <point x="274.99" y="0" type="line"/>
      <point x="274.99" y="25" type="line"/>
      <point x="211.99" y="30.01"/>
      <point x="201.99" y="36.03"/>
      <point x="201.99" y="68.13" type="curve" smooth="yes"/>
      <point x="201.99" y="79.83"/>
      <point x="205.14" y="94.21"/>
      <point x="210.97" y="117.35" type="curve" smooth="yes"/>
      <point x="214.698" y="133.431" type="line"/>
      <point x="326.897" y="537.733" type="line" name=".sk2"/>
      <point x="337" y="573.77" type="line" smooth="yes"/>
      <point x="351.44" y="627.1"/>
      <point x="368" y="639.98"/>
      <point x="419" y="644" type="curve"/>
      <point x="419" y="669" type="line"/>
      <point x="132" y="669" type="line"/>
      <point x="132" y="644" type="line"/>
      <point x="173" y="637.98"/>
      <point x="192" y="630.04"/>
      <point x="192" y="608.88" type="curve" smooth="yes"/>
      <point x="192" y="593.11"/>
      <point x="189.392" y="574.792"/>
      <point x="184.56" y="557.08" type="curve" smooth="yes"/>
      <point x="178.901" y="537.748" type="line" name=".sk3"/>
    </contour>
  </outline>
  <guideline angle="295.03" x="268" y="337"/>
  <guideline angle="220.694" x="349.437" y="412.491"/>
  <guideline angle="254.8" x="285.615" y="133"/>
</glyph>
<glyph name="L" format="2">
  <advance width="650"/>
  <unicode hex="004C"/>
  <anchor x="468.611" y="723" name="top"/>
  <anchor x="253.15" y="-70" name="bottom"/>
  <anchor x="656.306" y="685" name="t.apo"/>
  <anchor x="495" y="377" name="ldot"/>
  <anchor x="293.576" y="723" name="t.top"/>
  <outline>
    <contour>
      <point x="66.4622" y="133.395" type="line" name=".sk1"/>
      <point x="56.58" y="97.2334" type="line" smooth="yes"/>
      <point x="42.809" y="46.3867"/>
      <point x="26.8677" y="32.344"/>
      <point x="-25.42" y="25" type="curve"/>
      <point x="-25.42" y="0" type="line"/>
      <point x="104.595" y="0" type="line"/>
      <point x="179" y="0" type="line"/>
      <point x="326.897" y="537.733" type="line" name=".sk2"/>
      <point x="337" y="573.77" type="line" smooth="yes"/>
      <point x="351.44" y="627.1"/>
      <point x="368" y="639.98"/>
      <point x="419" y="644" type="curve"/>
      <point x="419" y="669" type="line"/>
      <point x="132" y="669" type="line"/>
      <point x="132" y="644" type="line"/>
      <point x="173" y="637.98"/>
      <point x="192" y="630.04"/>
      <point x="192" y="608.88" type="curve" smooth="yes"/>
      <point x="192" y="593.11"/>
      <point x="189.392" y="574.792"/>
      <point x="184.56" y="557.08" type="curve" smooth="yes"/>
      <point x="178.901" y="537.748" type="line" name=".sk3"/>
    </contour>
    <contour>
      <point x="93.8619" y="0" type="line"/>
      <point x="527" y="0" type="line"/>
      <point x="586" y="194" type="line"/>
      <point x="561" y="199" type="line"/>
      <point x="497" y="82"/>
      <point x="391" y="32"/>
      <point x="260" y="32" type="curve" smooth="yes"/>
      <point x="232" y="32"/>
      <point x="195" y="32"/>
      <point x="195" y="64" type="curve" smooth="yes"/>
      <point x="195" y="75.5735"/>
      <point x="196.543" y="85.6515"/>
      <point x="209.558" y="133" type="curve"/>
      <point x="129.862" y="133" type="line"/>
    </contour>
  </outline>
  <guideline angle="254.8" x="308.306" y="133"/>
  <guideline angle="0" x="0" y="685"/>
</glyph>
<glyph name="M" format="2">
  <advance width="896"/>
  <unicode hex="004D"/>
  <anchor x="525.121" y="723" name="top"/>
  <anchor x="535.982" y="770" name="macron"/>
  <anchor x="308.111" y="-70" name="bottom"/>
  <outline>
    <contour>
      <point x="-29" y="0" type="line"/>
      <point x="178" y="0" type="line"/>
      <point x="178" y="25" type="line"/>
      <point x="113.843" y="33.0196"/>
      <point x="98" y="45.1"/>
      <point x="98" y="80.6825" type="curve" smooth="yes"/>
      <point x="98" y="101.474"/>
      <point x="103.534" y="128.312"/>
      <point x="117" y="178" type="curve" smooth="yes"/>
      <point x="217" y="547" type="line"/>
      <point x="219" y="547" type="line"/>
      <point x="285" y="-12" type="line"/>
      <point x="313" y="-12" type="line"/>
      <point x="687.087" y="561.409" type="line"/>
      <point x="688.913" y="560.591" type="line"/>
      <point x="563" y="97" type="line" smooth="yes"/>
      <point x="548.182" y="42.4438"/>
      <point x="527.757" y="28.985"/>
      <point x="463" y="25" type="curve"/>
      <point x="463" y="0" type="line"/>
      <point x="775" y="0" type="line"/>
      <point x="775" y="25" type="line"/>
      <point x="716.669" y="28.0171"/>
      <point x="703" y="36.1805"/>
      <point x="703" y="65.7856" type="curve" smooth="yes"/>
      <point x="703" y="79.375"/>
      <point x="705.88" y="94.1997"/>
      <point x="711" y="113" type="curve" smooth="yes"/>
      <point x="836" y="572" type="line" smooth="yes"/>
      <point x="850.11" y="623.813"/>
      <point x="865.856" y="637.983"/>
      <point x="917" y="644" type="curve"/>
      <point x="917" y="669" type="line"/>
      <point x="705" y="669" type="line"/>
      <point x="395.973" y="188.771" type="line"/>
      <point x="394.026" y="189.229" type="line"/>
      <point x="341" y="669" type="line"/>
      <point x="120" y="669" type="line"/>
      <point x="120" y="644" type="line"/>
      <point x="183.428" y="640.98"/>
      <point x="192" y="636.812"/>
      <point x="192" y="612.083" type="curve" smooth="yes"/>
      <point x="192" y="596.545"/>
      <point x="188.616" y="577.061"/>
      <point x="181" y="551" type="curve" smooth="yes"/>
      <point x="72" y="178" type="line" smooth="yes"/>
      <point x="34.6871" y="50.3147"/>
      <point x="26.4055" y="37.3123"/>
      <point x="-29" y="25" type="curve"/>
    </contour>
  </outline>
  <guideline angle="254.8" x="364.816" y="133"/>
</glyph>
<glyph name="N" format="2">
  <advance width="722"/>
  <unicode hex="004E"/>
  <outline>
    <contour>
      <point x="-29" y="0" type="line"/>
      <point x="179" y="0" type="line"/>
      <point x="179" y="25" type="line"/>
      <point x="120.214" y="29.9819"/>
      <point x="99" y="44.8679"/>
      <point x="99" y="81.5156" type="curve" smooth="yes"/>
      <point x="99" y="100.665"/>
      <point x="104.792" y="134.102"/>
      <point x="117" y="178" type="curve" smooth="yes"/>
      <point x="216" y="534" type="line"/>
      <point x="473" y="-15" type="line"/>
      <point x="501" y="-15" type="line"/>
      <point x="644" y="491" type="line" smooth="yes"/>
      <point x="680.673" y="620.765"/>
      <point x="687.02" y="630.78"/>
      <point x="746" y="644" type="curve"/>
      <point x="746" y="669" type="line"/>
      <point x="537" y="669" type="line"/>
      <point x="537" y="644" type="line"/>
      <point x="596.994" y="638.916"/>
      <point x="617" y="622.256"/>
      <point x="617" y="582.388" type="curve" smooth="yes"/>
      <point x="617" y="561.946"/>
      <point x="611.741" y="536.707"/>
      <point x="599" y="491" type="curve" smooth="yes"/>
      <point x="519" y="204" type="line"/>
      <point x="304" y="669" type="line"/>
      <point x="109" y="669" type="line"/>
      <point x="109" y="644" type="line"/>
      <point x="163.968" y="639.003"/>
      <point x="172.989" y="633.025"/>
      <point x="192" y="589" type="curve"/>
      <point x="72" y="178" type="line" smooth="yes"/>
      <point x="33.5868" y="46.4347"/>
      <point x="25.8494" y="35.9699"/>
      <point x="-29" y="25" type="curve"/>
    </contour>
  </outline>
</glyph>
<glyph name="O" format="2">
  <advance width="722"/>
  <unicode hex="004F"/>
  <anchor x="458.662" y="723" name="top"/>
  <anchor x="480.209" y="743" name="macron"/>
  <anchor x="121.25" y="692" name="t.tonos"/>
  <anchor x="228.919" y="-70" name="bottom"/>
  <anchor x="269.49" y="10" name="ogonek"/>
  <anchor x="105" y="722" name="gr.diacritics"/>
  <anchor x="195" y="-50" name="b.ypogegrammeni"/>
  <outline>
    <contour>
      <point x="691" y="434.59" type="curve" smooth="yes"/>
      <point x="691" y="587.205"/>
      <point x="592.799" y="685"/>
      <point x="450.538" y="685" type="curve" smooth="yes"/>
      <point x="231.563" y="685"/>
      <point x="27" y="453.291"/>
      <point x="27" y="233.705" type="curve" smooth="yes"/>
      <point x="27" y="78.5504"/>
      <point x="129.129" y="-18"/>
      <point x="267.275" y="-18" type="curve" smooth="yes"/>
      <point x="479.968" y="-18"/>
      <point x="691" y="210.866"/>
    </contour>
    <contour>
      <point x="547" y="501.881" type="curve" smooth="yes"/>
      <point x="547" y="299.125"/>
      <point x="396" y="16"/>
      <point x="262.016" y="16" type="curve" smooth="yes"/>
      <point x="207.448" y="16"/>
      <point x="171" y="62.9615"/>
      <point x="171" y="164.923" type="curve" smooth="yes"/>
      <point x="171" y="372.292"/>
      <point x="321.758" y="651"/>
      <point x="454.187" y="651" type="curve" smooth="yes"/>
      <point x="508.14" y="651"/>
      <point x="547" y="604.738"/>
    </contour>
  </outline>
  <guideline angle="74.5" x="439.247" y="652.99"/>
</glyph>
<glyph name="P" format="2">
  <advance width="614"/>
  <unicode hex="0050"/>
  <anchor x="401.092" y="723" name="top"/>
  <anchor x="111" y="722" name="gr.diacritics"/>
  <outline>
    <contour>
      <point x="66.6835" y="133.377" type="line" name=".sk1"/>
      <point x="57" y="97.23" type="line" smooth="yes"/>
      <point x="42.62" y="44.16"/>
      <point x="27" y="32.02"/>
      <point x="-23" y="25" type="curve"/>
      <point x="-23" y="0" type="line"/>
      <point x="274.99" y="0" type="line"/>
      <point x="274.99" y="25" type="line"/>
      <point x="211.99" y="30.01"/>
      <point x="201.99" y="36.03"/>
      <point x="201.99" y="68.13" type="curve" smooth="yes"/>
      <point x="201.99" y="79.83"/>
      <point x="205.14" y="94.21"/>
      <point x="210.97" y="117.35" type="curve" smooth="yes"/>
      <point x="214.698" y="133.431" type="line"/>
      <point x="363" y="669" type="line" name=".sk2"/>
      <point x="214.37" y="668.996" type="line" name=".sk3"/>
      <point x="131" y="669.018" type="line"/>
      <point x="130.995" y="644.018" type="line"/>
      <point x="171.349" y="637.936"/>
      <point x="189.406" y="623.39"/>
      <point x="189.509" y="593.376" type="curve" smooth="yes"/>
      <point x="189.543" y="583.528"/>
      <point x="187.644" y="572.015"/>
      <point x="183.966" y="558.59" type="curve" smooth="yes"/>
      <point x="178.233" y="537.664" type="line"/>
    </contour>
    <contour>
      <point x="259.042" y="356.121" type="curve"/>
      <point x="250.027" y="323.522" type="line"/>
      <point x="286.018" y="318"/>
      <point x="322.009" y="315"/>
      <point x="358" y="315" type="curve" smooth="yes"/>
      <point x="476" y="315"/>
      <point x="619" y="374"/>
      <point x="619" y="512" type="curve" smooth="yes"/>
      <point x="619" y="638"/>
      <point x="512" y="669"/>
      <point x="406" y="669" type="curve" smooth="yes"/>
      <point x="284.44" y="669" type="line"/>
      <point x="248" y="536" type="line"/>
      <point x="322.297" y="536" type="line"/>
      <point x="339" y="593" type="line" smooth="yes"/>
      <point x="347.46" y="621.869"/>
      <point x="354" y="637"/>
      <point x="388" y="637" type="curve" smooth="yes"/>
      <point x="450" y="637"/>
      <point x="473" y="597"/>
      <point x="473" y="541" type="curve" smooth="yes"/>
      <point x="473" y="433"/>
      <point x="428" y="352"/>
      <point x="313" y="352" type="curve" smooth="yes"/>
      <point x="294.877" y="352"/>
      <point x="278.697" y="353"/>
    </contour>
  </outline>
  <guideline angle="254.5" x="244.328" y="546"/>
</glyph>
<glyph name="Q" format="2">
  <advance width="722"/>
  <unicode hex="0051"/>
  <anchor x="458.662" y="723" name="top"/>
  <outline>
    <contour>
      <point x="28" y="-165" type="line"/>
      <point x="42" y="-189" type="line"/>
      <point x="77" y="-175"/>
      <point x="116" y="-161"/>
      <point x="154" y="-161" type="curve" smooth="yes"/>
      <point x="196.253" y="-161"/>
      <point x="235.788" y="-172.614"/>
      <point x="275.552" y="-184.295" type="curve" smooth="yes"/>
      <point x="315.782" y="-196.113"/>
      <point x="356.247" y="-208"/>
      <point x="400" y="-208" type="curve" smooth="yes"/>
      <point x="517" y="-208"/>
      <point x="590" y="-150"/>
      <point x="655" y="-59" type="curve"/>
      <point x="634" y="-40" type="line"/>
      <point x="589" y="-88"/>
      <point x="547" y="-118"/>
      <point x="479" y="-118" type="curve" smooth="yes"/>
      <point x="441.174" y="-118"/>
      <point x="403.699" y="-106.377"/>
      <point x="365.253" y="-94.4522" type="curve" smooth="yes"/>
      <point x="324.761" y="-81.8932"/>
      <point x="283.192" y="-69"/>
      <point x="239" y="-69" type="curve" smooth="yes"/>
      <point x="223.115" y="-69"/>
      <point x="213" y="-70.2427"/>
      <point x="198.789" y="-73.0278" type="curve"/>
      <point x="262.379" y="-6.22301" type="line"/>
      <point x="214.421" y="-6.22301" type="line"/>
    </contour>
    <contour>
      <point x="691" y="434.59" type="curve" smooth="yes"/>
      <point x="691" y="587.205"/>
      <point x="592.799" y="685"/>
      <point x="450.538" y="685" type="curve" smooth="yes"/>
      <point x="231.563" y="685"/>
      <point x="27" y="453.291"/>
      <point x="27" y="233.705" type="curve" smooth="yes"/>
      <point x="27" y="78.5504"/>
      <point x="129.129" y="-18"/>
      <point x="267.275" y="-18" type="curve" smooth="yes"/>
      <point x="479.968" y="-18"/>
      <point x="691" y="210.866"/>
    </contour>
    <contour>
      <point x="547" y="501.881" type="curve" smooth="yes"/>
      <point x="547" y="299.125"/>
      <point x="396" y="16"/>
      <point x="262.016" y="16" type="curve" smooth="yes"/>
      <point x="207.448" y="16"/>
      <point x="171" y="62.9615"/>
      <point x="171" y="164.923" type="curve" smooth="yes"/>
      <point x="171" y="372.292"/>
      <point x="321.758" y="651"/>
      <point x="454.187" y="651" type="curve" smooth="yes"/>
      <point x="508.14" y="651"/>
      <point x="547" y="604.738"/>
    </contour>
  </outline>
</glyph>
<glyph name="R" format="2">
  <advance width="688"/>
  <unicode hex="0052"/>
  <outline>
    <contour>
      <point x="293.386" y="345.273" type="line"/>
      <point x="405" y="0" type="line"/>
      <point x="607" y="0" type="line"/>
      <point x="607" y="25" type="line"/>
      <point x="551" y="30"/>
      <point x="539" y="37"/>
      <point x="519" y="97" type="curve" smooth="yes"/>
      <point x="431.205" y="357.213" type="line"/>
    </contour>
    <contour>
      <point x="248.49" y="538" type="line"/>
      <point x="323.011" y="538" type="line"/>
      <point x="338" y="593" type="line" smooth="yes"/>
      <point x="345" y="619"/>
      <point x="353" y="637"/>
      <point x="383" y="637" type="curve" smooth="yes"/>
      <point x="445" y="637"/>
      <point x="477" y="603"/>
      <point x="477" y="542" type="curve" smooth="yes"/>
      <point x="477" y="417.266"/>
      <point x="429.216" y="360.984"/>
      <point x="306.542" y="360.984" type="curve" smooth="yes"/>
      <point x="285.907" y="360.984"/>
      <point x="270.639" y="361.779"/>
      <point x="259.866" y="363.322" type="curve"/>
      <point x="257.4" y="331" type="line"/>
      <point x="270.798" y="328"/>
      <point x="330.522" y="327.025"/>
      <point x="348.722" y="327.025" type="curve" smooth="yes"/>
      <point x="391.662" y="327.025"/>
      <point x="628" y="357.983"/>
      <point x="628" y="526" type="curve" smooth="yes"/>
      <point x="628" y="622"/>
      <point x="550" y="669"/>
      <point x="392" y="669" type="curve" smooth="yes"/>
      <point x="285.716" y="669" type="line"/>
    </contour>
    <contour>
      <point x="66.6835" y="133.377" type="line" name=".sk1"/>
      <point x="57" y="97.23" type="line" smooth="yes"/>
      <point x="42.62" y="44.16"/>
      <point x="27" y="32.02"/>
      <point x="-23" y="25" type="curve"/>
      <point x="-23" y="0" type="line"/>
      <point x="274.99" y="0" type="line"/>
      <point x="274.99" y="25" type="line"/>
      <point x="211.99" y="30.01"/>
      <point x="201.99" y="36.03"/>
      <point x="201.99" y="68.13" type="curve" smooth="yes"/>
      <point x="201.99" y="79.83"/>
      <point x="205.14" y="94.21"/>
      <point x="210.97" y="117.35" type="curve" smooth="yes"/>
      <point x="214.698" y="133.431" type="line"/>
      <point x="363" y="669" type="line" name=".sk2"/>
      <point x="214.37" y="668.996" type="line" name=".sk3"/>
      <point x="131" y="669.018" type="line"/>
      <point x="130.995" y="644.018" type="line"/>
      <point x="171.349" y="637.936"/>
      <point x="189.406" y="623.39"/>
      <point x="189.509" y="593.376" type="curve" smooth="yes"/>
      <point x="189.543" y="583.528"/>
      <point x="187.644" y="572.015"/>
      <point x="183.966" y="558.59" type="curve" smooth="yes"/>
      <point x="178.233" y="537.664" type="line"/>
    </contour>
  </outline>
</glyph>
<glyph name="S" format="2">
  <advance width="556"/>
  <unicode hex="0053"/>
  <anchor x="352.789" y="723" name="top"/>
  <anchor x="248.682" y="5" name="cedilla"/>
  <anchor x="213" y="-50" name="bottom"/>
  <outline>
    <contour>
      <point x="526" y="681" type="line"/>
      <point x="496" y="681" type="line"/>
      <point x="487" y="665"/>
      <point x="470" y="655"/>
      <point x="452" y="655" type="curve" smooth="yes"/>
      <point x="404" y="655"/>
      <point x="358" y="685"/>
      <point x="307" y="685" type="curve" smooth="yes"/>
      <point x="191" y="685"/>
      <point x="102" y="607"/>
      <point x="102" y="488" type="curve" smooth="yes"/>
      <point x="102" y="326"/>
      <point x="347" y="273"/>
      <point x="347" y="142" type="curve" smooth="yes"/>
      <point x="347" y="70"/>
      <point x="294" y="16"/>
      <point x="222" y="16" type="curve" smooth="yes"/>
      <point x="124.568" y="16"/>
      <point x="64.4183" y="90.7673"/>
      <point x="64.4183" y="174.077" type="curve" smooth="yes"/>
      <point x="64.4183" y="183.968"/>
      <point x="65.2661" y="193.979"/>
      <point x="67" y="204" type="curve"/>
      <point x="38" y="206" type="line"/>
      <point x="2" y="-18" type="line"/>
      <point x="32" y="-18" type="line"/>
      <point x="40" y="3"/>
      <point x="47" y="17"/>
      <point x="72" y="17" type="curve" smooth="yes"/>
      <point x="115" y="17"/>
      <point x="172" y="-18"/>
      <point x="233" y="-18" type="curve" smooth="yes"/>
      <point x="371" y="-18"/>
      <point x="468" y="48"/>
      <point x="468" y="194" type="curve" smooth="yes"/>
      <point x="468" y="375"/>
      <point x="223" y="426"/>
      <point x="223" y="543" type="curve" smooth="yes"/>
      <point x="223" y="606"/>
      <point x="260" y="650"/>
      <point x="326" y="650" type="curve" smooth="yes"/>
      <point x="427" y="650"/>
      <point x="450" y="567"/>
      <point x="459" y="484" type="curve"/>
      <point x="486" y="480" type="line"/>
    </contour>
  </outline>
</glyph>
<glyph name="T" format="2">
  <advance width="611"/>
  <unicode hex="0054"/>
  <anchor x="401.224" y="723" name="top"/>
  <anchor x="224" y="5" name="cedilla"/>
  <anchor x="189" y="-50" name="bottom"/>
  <outline>
    <contour>
      <point x="50" y="0" type="line"/>
      <point x="381" y="0" type="line"/>
      <point x="381" y="25" type="line"/>
      <point x="319.521" y="32.4679"/>
      <point x="298" y="43.0985"/>
      <point x="298" y="66" type="curve" smooth="yes"/>
      <point x="298" y="81"/>
      <point x="301.819" y="102.049"/>
      <point x="309" y="128" type="curve" smooth="yes"/>
      <point x="449" y="633.909" type="line"/>
      <point x="459.219" y="633.909" type="line" smooth="yes"/>
      <point x="533.353" y="633.909"/>
      <point x="592.278" y="587.664"/>
      <point x="592.278" y="516.926" type="curve" smooth="yes"/>
      <point x="592.278" y="504.951"/>
      <point x="590.59" y="492.274"/>
      <point x="587" y="479" type="curve"/>
      <point x="614" y="477" type="line"/>
      <point x="650" y="669" type="line"/>
      <point x="99" y="669" type="line"/>
      <point x="61" y="498" type="line"/>
      <point x="86" y="491" type="line"/>
      <point x="136.05" y="587.249"/>
      <point x="196.238" y="634"/>
      <point x="291.686" y="634" type="curve" smooth="yes"/>
      <point x="303" y="634" type="line"/>
      <point x="155" y="97" type="line" smooth="yes"/>
      <point x="141.543" y="48.1718"/>
      <point x="110.416" y="31.7957"/>
      <point x="50" y="25" type="curve"/>
    </contour>
  </outline>
</glyph>
<glyph name="V" format="2">
  <advance width="667"/>
  <unicode hex="0056"/>
  <anchor x="408.431" y="723" name="top"/>
  <anchor x="247.954" y="-70" name="bottom"/>
  <outline>
    <contour>
      <point x="231" y="-18" type="line"/>
      <point x="263" y="-18" type="line"/>
      <point x="656" y="604" type="line" smooth="yes"/>
      <point x="668.297" y="623.462"/>
      <point x="687" y="635"/>
      <point x="715" y="644" type="curve"/>
      <point x="715" y="669" type="line"/>
      <point x="523" y="669" type="line"/>
      <point x="523" y="644" type="line"/>
      <point x="571.126" y="642.275"/>
      <point x="588" y="633.708"/>
      <point x="588" y="611" type="curve" smooth="yes"/>
      <point x="588" y="589"/>
      <point x="568" y="545"/>
      <point x="529" y="484" type="curve" smooth="yes"/>
      <point x="339" y="182" type="line"/>
      <point x="288" y="583" type="line" smooth="yes"/>
      <point x="287.233" y="589.034"/>
      <point x="287" y="593"/>
      <point x="287" y="599" type="curve" smooth="yes"/>
      <point x="287" y="633"/>
      <point x="296" y="638"/>
      <point x="363" y="644" type="curve"/>
      <point x="363" y="669" type="line"/>
      <point x="65" y="669" type="line"/>
      <point x="65" y="644" type="line"/>
      <point x="127" y="644"/>
      <point x="133" y="634"/>
      <point x="155" y="491" type="curve" smooth="yes"/>
    </contour>
  </outline>
</glyph>
<glyph name="W" format="2">
  <advance width="889"/>
  <unicode hex="0057"/>
  <anchor x="522.715" y="723" name="top"/>
  <anchor x="400.391" y="-70" name="bottom"/>
  <outline>
    <contour>
      <point x="220" y="-18" type="line"/>
      <point x="249" y="-18" type="line"/>
      <point x="481" y="471" type="line"/>
      <point x="483" y="471" type="line"/>
      <point x="541" y="-18" type="line"/>
      <point x="570" y="-18" type="line"/>
      <point x="856" y="572" type="line" smooth="yes"/>
      <point x="881" y="624"/>
      <point x="898" y="639"/>
      <point x="940" y="645" type="curve"/>
      <point x="940" y="669" type="line"/>
      <point x="753" y="669" type="line"/>
      <point x="753" y="644" type="line"/>
      <point x="809" y="640"/>
      <point x="816" y="635"/>
      <point x="816" y="599" type="curve" smooth="yes"/>
      <point x="816" y="587"/>
      <point x="813" y="579"/>
      <point x="801" y="553" type="curve" smooth="yes"/>
      <point x="645" y="226" type="line"/>
      <point x="612" y="521" type="line" smooth="yes"/>
      <point x="606" y="572"/>
      <point x="606" y="575"/>
      <point x="606" y="586" type="curve" smooth="yes"/>
      <point x="606" y="630"/>
      <point x="616" y="639"/>
      <point x="669" y="644" type="curve"/>
      <point x="669" y="669" type="line"/>
      <point x="400" y="669" type="line"/>
      <point x="400" y="645" type="line"/>
      <point x="454.953" y="637.673"/>
      <point x="462.397" y="624.565"/>
      <point x="469.034" y="557.015" type="curve" smooth="yes"/>
      <point x="471" y="537" type="line"/>
      <point x="321" y="226" type="line"/>
      <point x="283.303" y="563.755" type="line" smooth="yes"/>
      <point x="281.55" y="579.459"/>
      <point x="281" y="588.208"/>
      <point x="281" y="591" type="curve" smooth="yes"/>
      <point x="281" y="627"/>
      <point x="295" y="638"/>
      <point x="342" y="644" type="curve"/>
      <point x="342" y="669" type="line"/>
      <point x="65" y="669" type="line"/>
      <point x="65" y="645" type="line"/>
      <point x="130" y="634"/>
      <point x="132" y="632"/>
      <point x="142" y="561" type="curve" smooth="yes"/>
    </contour>
  </outline>
</glyph>
<glyph name="X" format="2">
  <advance width="667"/>
  <unicode hex="0058"/>
  <anchor x="414.715" y="723" name="top"/>
  <outline>
    <contour>
      <point x="-24" y="0" type="line"/>
      <point x="190" y="0" type="line"/>
      <point x="190" y="25" type="line"/>
      <point x="164" y="27"/>
      <point x="125" y="33"/>
      <point x="125" y="67" type="curve" smooth="yes"/>
      <point x="125" y="77.215"/>
      <point x="139.624" y="101.5"/>
      <point x="163.192" y="127.138" type="curve" smooth="yes"/>
      <point x="289" y="264" type="line"/>
      <point x="329.131" y="141.6" type="line" smooth="yes"/>
      <point x="338.929" y="111.717"/>
      <point x="346" y="83.5768"/>
      <point x="346" y="64" type="curve" smooth="yes"/>
      <point x="346" y="27"/>
      <point x="305" y="27"/>
      <point x="278" y="25" type="curve"/>
      <point x="278" y="0" type="line"/>
      <point x="586" y="0" type="line"/>
      <point x="586" y="25" type="line"/>
      <point x="503" y="33"/>
      <point x="493" y="67"/>
      <point x="470" y="141" type="curve" smooth="yes"/>
      <point x="396" y="378" type="line"/>
      <point x="595" y="583" type="line" smooth="yes"/>
      <point x="625" y="614"/>
      <point x="650" y="637"/>
      <point x="694" y="644" type="curve"/>
      <point x="694" y="669" type="line"/>
      <point x="491" y="669" type="line"/>
      <point x="491" y="644" type="line"/>
      <point x="513" y="642"/>
      <point x="546" y="645"/>
      <point x="546" y="615" type="curve" smooth="yes"/>
      <point x="546" y="601.633"/>
      <point x="522.003" y="567.898"/>
      <point x="490" y="534.319" type="curve" smooth="yes"/>
      <point x="382" y="421" type="line"/>
      <point x="343.664" y="546.887" type="line" smooth="yes"/>
      <point x="335.928" y="572.288"/>
      <point x="331" y="593.782"/>
      <point x="331" y="602" type="curve" smooth="yes"/>
      <point x="331" y="645"/>
      <point x="372" y="641"/>
      <point x="405" y="644" type="curve"/>
      <point x="405" y="669" type="line"/>
      <point x="100" y="669" type="line"/>
      <point x="100" y="644" type="line"/>
      <point x="149" y="639"/>
      <point x="175" y="632"/>
      <point x="191" y="581" type="curve" smooth="yes"/>
      <point x="275" y="309" type="line"/>
      <point x="124.454" y="141.52" type="line" smooth="yes"/>
      <point x="72.8074" y="84.0629"/>
      <point x="16.5223" y="36.4416"/>
      <point x="-24" y="25" type="curve"/>
    </contour>
  </outline>
</glyph>
<glyph name="Y" format="2">
  <advance width="611"/>
  <unicode hex="0059"/>
  <outline>
    <contour>
      <point x="73" y="0" type="line"/>
      <point x="395" y="0" type="line"/>
      <point x="395" y="25" type="line"/>
      <point x="338.513" y="31.728"/>
      <point x="318" y="42.8184"/>
      <point x="318" y="69" type="curve" smooth="yes"/>
      <point x="318" y="84.4015"/>
      <point x="319.853" y="104.792"/>
      <point x="326.115" y="126.676" type="curve" smooth="yes"/>
      <point x="378" y="308" type="line"/>
      <point x="568" y="575" type="line" smooth="yes"/>
      <point x="592" y="609"/>
      <point x="616" y="636"/>
      <point x="659" y="644" type="curve"/>
      <point x="659" y="669" type="line"/>
      <point x="451" y="669" type="line"/>
      <point x="451" y="644" type="line"/>
      <point x="481" y="644"/>
      <point x="518" y="641"/>
      <point x="518" y="603" type="curve" smooth="yes"/>
      <point x="518" y="584.629"/>
      <point x="508" y="562"/>
      <point x="492" y="538" type="curve" smooth="yes"/>
      <point x="363" y="352" type="line"/>
      <point x="293.872" y="565.504" type="line" smooth="yes"/>
      <point x="287.915" y="583.903"/>
      <point x="286" y="599.316"/>
      <point x="286" y="608" type="curve" smooth="yes"/>
      <point x="286" y="634.256"/>
      <point x="308.54" y="641.934"/>
      <point x="356" y="644" type="curve"/>
      <point x="356" y="669" type="line"/>
      <point x="73" y="669" type="line"/>
      <point x="73" y="644" type="line"/>
      <point x="125" y="637"/>
      <point x="129" y="632"/>
      <point x="146" y="581" type="curve" smooth="yes"/>
      <point x="234" y="313" type="line"/>
      <point x="174" y="97" type="line" smooth="yes"/>
      <point x="160.692" y="49.0907"/>
      <point x="144.284" y="31.0123"/>
      <point x="73" y="25" type="curve"/>
    </contour>
  </outline>
</glyph>
<glyph name="Z" format="2">
  <advance width="611"/>
  <unicode hex="005A"/>
  <anchor x="357.314" y="723" name="top"/>
  <anchor x="245" y="-50" name="bottom"/>
  <outline>
    <contour>
      <point x="-11" y="0" type="line"/>
      <point x="495" y="0" type="line"/>
      <point x="554" y="194" type="line"/>
      <point x="527" y="199" type="line"/>
      <point x="450.592" y="75.7607"/>
      <point x="371.226" y="35"/>
      <point x="226" y="35" type="curve" smooth="yes"/>
      <point x="156" y="35" type="line"/>
      <point x="590" y="640" type="line"/>
      <point x="590" y="669" type="line"/>
      <point x="122" y="669" type="line"/>
      <point x="65" y="491" type="line"/>
      <point x="93" y="487" type="line"/>
      <point x="172" y="597"/>
      <point x="235" y="634"/>
      <point x="345" y="634" type="curve" smooth="yes"/>
      <point x="423" y="634" type="line"/>
      <point x="-11" y="29" type="line"/>
    </contour>
  </outline>
</glyph>
<glyph name="bracketleft" format="2">
  <advance width="333"/>
  <unicode hex="005B"/>
  <outline>
    <contour>
      <point x="355" y="639" type="line"/>
      <point x="362" y="674" type="line"/>
      <point x="162" y="674" type="line"/>
      <point x="-37" y="-159" type="line"/>
      <point x="182" y="-159" type="line"/>
      <point x="189" y="-124" type="line"/>
      <point x="111" y="-124" type="line" smooth="yes"/>
      <point x="96" y="-124"/>
      <point x="88" y="-122"/>
      <point x="83" y="-117" type="curve" smooth="yes"/>
      <point x="79" y="-113"/>
      <point x="75" y="-104"/>
      <point x="76" y="-100" type="curve" smooth="yes"/>
      <point x="234" y="576" type="line" smooth="yes"/>
      <point x="248" y="636"/>
      <point x="250" y="639"/>
      <point x="286" y="639" type="curve" smooth="yes"/>
    </contour>
  </outline>
</glyph>
<glyph name="bracketright" format="2">
  <advance width="333"/>
  <unicode hex="005D"/>
  <outline>
    <contour>
      <point x="-49" y="-123" type="line"/>
      <point x="-56" y="-157" type="line"/>
      <point x="143" y="-157" type="line"/>
      <point x="343" y="674" type="line"/>
      <point x="123" y="674" type="line"/>
      <point x="116" y="640" type="line"/>
      <point x="194" y="640" type="line" smooth="yes"/>
      <point x="213.313" y="640"/>
      <point x="227.256" y="628.955"/>
      <point x="227.256" y="612.863" type="curve" smooth="yes"/>
      <point x="227.256" y="610.624"/>
      <point x="226.986" y="608.288"/>
      <point x="226.423" y="605.87" type="curve" smooth="yes"/>
      <point x="71" y="-61.8396" type="line" smooth="yes"/>
      <point x="57.4395" y="-120.096"/>
      <point x="46.1396" y="-123"/>
      <point x="19" y="-123" type="curve" smooth="yes"/>
    </contour>
  </outline>
</glyph>
<glyph name="a" format="2">
  <advance width="500"/>
  <unicode hex="0061"/>
  <anchor x="319.68" y="516" name="top"/>
  <anchor x="138.024" y="-70" name="b.ring"/>
  <anchor x="138" y="-70" name="bottom"/>
  <anchor x="334" y="492" name="macron"/>
  <anchor x="319.68" y="516" name="t.hook"/>
  <anchor x="508.412" y="540" name="t.righthalfring"/>
  <anchor x="339.559" y="10" name="ogonek"/>
  <outline>
    <contour>
      <point x="455" y="112" type="curve"/>
      <point x="434" y="127" type="line"/>
      <point x="422" y="111"/>
      <point x="385" y="57"/>
      <point x="363" y="57" type="curve" smooth="yes"/>
      <point x="355" y="57"/>
      <point x="350" y="65"/>
      <point x="350" y="72" type="curve" smooth="yes"/>
      <point x="350" y="148"/>
      <point x="440" y="406"/>
      <point x="455.622" y="455.217" type="curve"/>
      <point x="454.378" y="456.783" type="line"/>
      <point x="344.783" y="449.622" type="line"/>
      <point x="343.217" y="448.378" type="line"/>
      <point x="327" y="394" type="line"/>
      <point x="325" y="394" type="line"/>
      <point x="319" y="437"/>
      <point x="296" y="462"/>
      <point x="250" y="462" type="curve" smooth="yes"/>
      <point x="112" y="462"/>
      <point x="-21" y="242"/>
      <point x="-21" y="117" type="curve" smooth="yes"/>
      <point x="-21" y="48"/>
      <point x="11" y="-13"/>
      <point x="88" y="-13" type="curve" smooth="yes"/>
      <point x="164" y="-13"/>
      <point x="213" y="55"/>
      <point x="248" y="114" type="curve"/>
      <point x="250" y="115" type="line"/>
      <point x="242.96" y="95.0243"/>
      <point x="237" y="73"/>
      <point x="237" y="52" type="curve" smooth="yes"/>
      <point x="237" y="11.6038"/>
      <point x="263.487" y="-14"/>
      <point x="304" y="-14" type="curve" smooth="yes"/>
      <point x="367" y="-14"/>
      <point x="425" y="64"/>
    </contour>
    <contour>
      <point x="303" y="370.865" type="curve" smooth="yes"/>
      <point x="303" y="299.669"/>
      <point x="234" y="57"/>
      <point x="146" y="57" type="curve" smooth="yes"/>
      <point x="116" y="57"/>
      <point x="102" y="88.0856"/>
      <point x="102" y="114.157" type="curve" smooth="yes"/>
      <point x="102" y="183.348"/>
      <point x="184" y="420"/>
      <point x="266" y="420" type="curve" smooth="yes"/>
      <point x="292" y="420"/>
      <point x="303" y="392.925"/>
    </contour>
  </outline>
</glyph>
<glyph name="b" format="2">
  <advance width="500"/>
  <unicode hex="0062"/>
  <anchor x="123.773" y="-70" name="bottom"/>
  <anchor x="318.9" y="749" name="top"/>
  <outline>
    <contour>
      <point x="-14" y="47" type="curve" smooth="yes"/>
      <point x="-14" y="19"/>
      <point x="59" y="-13"/>
      <point x="124" y="-13" type="curve" smooth="yes"/>
      <point x="287" y="-13"/>
      <point x="444" y="159"/>
      <point x="444" y="338" type="curve" smooth="yes"/>
      <point x="444" y="411"/>
      <point x="398" y="462"/>
      <point x="332" y="462" type="curve" smooth="yes"/>
      <point x="281" y="462"/>
      <point x="245" y="438"/>
      <point x="194.896" y="370.556" type="curve"/>
      <point x="193.104" y="371.444" type="line"/>
      <point x="284.677" y="698.264" type="line"/>
      <point x="283.323" y="699.736" type="line"/>
      <point x="214" y="686"/>
      <point x="165" y="679"/>
      <point x="76" y="669" type="curve"/>
      <point x="76" y="642" type="line"/>
      <point x="84.862" y="643.383"/>
      <point x="92.5829" y="644.034"/>
      <point x="99.2848" y="644.034" type="curve" smooth="yes"/>
      <point x="129.492" y="644.034"/>
      <point x="139" y="630.824"/>
      <point x="139" y="612" type="curve" smooth="yes"/>
      <point x="139" y="599"/>
      <point x="126" y="546"/>
      <point x="100" y="455" type="curve" smooth="yes"/>
      <point x="6" y="128" type="line" smooth="yes"/>
      <point x="-3" y="96"/>
      <point x="-14" y="52"/>
    </contour>
    <contour>
      <point x="109" y="51" type="curve" smooth="yes"/>
      <point x="109" y="113"/>
      <point x="189" y="394"/>
      <point x="273" y="394" type="curve" smooth="yes"/>
      <point x="312" y="394"/>
      <point x="319" y="357"/>
      <point x="319" y="326" type="curve" smooth="yes"/>
      <point x="319" y="237"/>
      <point x="252" y="20"/>
      <point x="141" y="20" type="curve" smooth="yes"/>
      <point x="122" y="20"/>
      <point x="109" y="30"/>
    </contour>
  </outline>
</glyph>
<glyph name="c" format="2">
  <advance width="444"/>
  <unicode hex="0063"/>
  <anchor x="303.134" y="516" name="top"/>
  <anchor x="153.515" y="5" name="cedilla"/>
  <outline>
    <contour>
      <point x="392" y="370.856" type="curve" smooth="yes"/>
      <point x="392" y="426.161"/>
      <point x="345.165" y="462"/>
      <point x="280.423" y="462" type="curve" smooth="yes"/>
      <point x="141.005" y="462"/>
      <point x="-5" y="295.803"/>
      <point x="-5" y="146.471" type="curve" smooth="yes"/>
      <point x="-5" y="49.9899"/>
      <point x="55.9448" y="-13"/>
      <point x="151.843" y="-13" type="curve" smooth="yes"/>
      <point x="223.699" y="-13"/>
      <point x="276.227" y="22.3656"/>
      <point x="346" y="123" type="curve"/>
      <point x="318" y="141" type="line"/>
      <point x="276.079" y="79.6156"/>
      <point x="237.289" y="51"/>
      <point x="196.813" y="51" type="curve" smooth="yes"/>
      <point x="150.814" y="51"/>
      <point x="123" y="87.9589"/>
      <point x="123" y="153.224" type="curve" smooth="yes"/>
      <point x="123" y="267.109"/>
      <point x="207.69" y="429"/>
      <point x="269.903" y="429" type="curve" smooth="yes"/>
      <point x="283.118" y="429"/>
      <point x="293" y="421.696"/>
      <point x="293" y="412.054" type="curve" smooth="yes"/>
      <point x="293" y="398"/>
      <point x="272" y="381"/>
      <point x="272" y="354.134" type="curve" smooth="yes"/>
      <point x="272" y="324.816"/>
      <point x="297.01" y="302"/>
      <point x="330.09" y="302" type="curve" smooth="yes"/>
      <point x="367.062" y="302"/>
      <point x="392" y="330.5"/>
    </contour>
  </outline>
</glyph>
<glyph name="e" format="2">
  <advance width="444"/>
  <unicode hex="0065"/>
  <anchor x="299" y="516" name="top"/>
  <anchor x="155.027" y="-70" name="bottom"/>
  <outline>
    <contour>
      <point x="5" y="148.425" type="curve" smooth="yes"/>
      <point x="5" y="50.3"/>
      <point x="66.6558" y="-13"/>
      <point x="158.443" y="-13" type="curve" smooth="yes"/>
      <point x="231.21" y="-13"/>
      <point x="286.274" y="26.7847"/>
      <point x="346" y="125" type="curve"/>
      <point x="317" y="142" type="line"/>
      <point x="274.411" y="78.1166"/>
      <point x="240.143" y="51"/>
      <point x="198.787" y="51" type="curve" smooth="yes"/>
      <point x="157.299" y="51"/>
      <point x="135" y="78.291"/>
      <point x="135" y="133.473" type="curve" smooth="yes"/>
      <point x="135" y="149.833"/>
      <point x="136.96" y="165.84"/>
      <point x="141" y="182" type="curve"/>
      <point x="283.439" y="204.406"/>
      <point x="398" y="289.101"/>
      <point x="398" y="373.714" type="curve" smooth="yes"/>
      <point x="398" y="425.092"/>
      <point x="355.761" y="462"/>
      <point x="289.834" y="462" type="curve" smooth="yes"/>
      <point x="151.598" y="462"/>
      <point x="5" y="299.731"/>
    </contour>
    <contour>
      <point x="148" y="214" type="curve"/>
      <point x="174.303" y="330.172"/>
      <point x="233.6" y="429"/>
      <point x="280.152" y="429" type="curve" smooth="yes"/>
      <point x="296.103" y="429"/>
      <point x="306" y="417.397"/>
      <point x="306" y="386.246" type="curve" smooth="yes"/>
      <point x="306" y="309.168"/>
      <point x="245.404" y="239.75"/>
    </contour>
  </outline>
</glyph>
<glyph name="g" format="2">
  <advance width="500"/>
  <unicode hex="0067"/>
  <anchor x="292.301" y="516" name="top"/>
  <outline>
    <contour>
      <point x="-52" y="-100" type="curve" smooth="yes"/>
      <point x="-52" y="-183"/>
      <point x="69" y="-203"/>
      <point x="132" y="-203" type="curve" smooth="yes"/>
      <point x="221" y="-203"/>
      <point x="375" y="-171"/>
      <point x="375" y="-55" type="curve" smooth="yes"/>
      <point x="375" y="32.0382"/>
      <point x="285.085" y="56.1711"/>
      <point x="212.46" y="75.6631" type="curve" smooth="yes"/>
      <point x="163.263" y="88.8675"/>
      <point x="122" y="99.9422"/>
      <point x="122" y="127" type="curve" smooth="yes"/>
      <point x="122" y="139"/>
      <point x="132.8" y="151.261"/>
      <point x="149" y="161" type="curve"/>
      <point x="161.254" y="155.192"/>
      <point x="180" y="153"/>
      <point x="197" y="153" type="curve" smooth="yes"/>
      <point x="300" y="153"/>
      <point x="417" y="214"/>
      <point x="417" y="330" type="curve" smooth="yes"/>
      <point x="417" y="406.436"/>
      <point x="350.492" y="462"/>
      <point x="259" y="462" type="curve" smooth="yes"/>
      <point x="158" y="462"/>
      <point x="35" y="398"/>
      <point x="35" y="283" type="curve" smooth="yes"/>
      <point x="35" y="229"/>
      <point x="65" y="189"/>
      <point x="115" y="170" type="curve"/>
      <point x="76" y="148"/>
      <point x="19" y="124"/>
      <point x="19" y="72" type="curve" smooth="yes"/>
      <point x="19" y="37"/>
      <point x="48" y="18"/>
      <point x="78" y="8" type="curve"/>
      <point x="19" y="-6"/>
      <point x="-52" y="-26"/>
    </contour>
    <contour>
      <point x="35" y="-90" type="curve" smooth="yes"/>
      <point x="35" y="-61"/>
      <point x="76.077" y="-22.3899"/>
      <point x="113" y="-6" type="curve"/>
      <point x="209.463" y="-29.9579"/>
      <point x="266" y="-47.7338"/>
      <point x="266" y="-99" type="curve" smooth="yes"/>
      <point x="266" y="-160"/>
      <point x="190" y="-169"/>
      <point x="144" y="-169" type="curve" smooth="yes"/>
      <point x="97" y="-169"/>
      <point x="35" y="-146"/>
    </contour>
    <contour>
      <point x="151" y="248" type="curve" smooth="yes"/>
      <point x="151" y="301"/>
      <point x="188" y="431"/>
      <point x="254" y="431" type="curve" smooth="yes"/>
      <point x="288" y="431"/>
      <point x="300" y="398"/>
      <point x="300" y="369" type="curve" smooth="yes"/>
      <point x="300" y="315"/>
      <point x="263" y="184"/>
      <point x="195" y="184" type="curve" smooth="yes"/>
      <point x="157" y="184"/>
      <point x="151" y="218"/>
    </contour>
    <contour>
      <point x="396" y="373" type="line"/>
      <point x="478" y="373" type="line"/>
      <point x="478" y="429" type="line"/>
      <point x="352" y="429" type="line"/>
    </contour>
  </outline>
</glyph>
<glyph name="h" format="2">
  <advance width="556"/>
  <unicode hex="0068"/>
  <anchor x="318.9" y="749" name="top"/>
  <anchor x="185.12" y="-70" name="bottom"/>
  <anchor x="226" y="755" name="t.top"/>
  <outline>
    <contour>
      <point x="-13" y="0" type="line"/>
      <point x="108" y="0" type="line"/>
      <point x="147.738" y="138.219"/>
      <point x="178.154" y="218.927"/>
      <point x="220.521" y="286.329" type="curve" smooth="yes"/>
      <point x="258.071" y="346.067"/>
      <point x="301.643" y="390"/>
      <point x="330.802" y="390" type="curve" smooth="yes"/>
      <point x="344" y="390"/>
      <point x="353" y="381"/>
      <point x="353" y="365.008" type="curve" smooth="yes"/>
      <point x="353" y="315"/>
      <point x="265" y="144"/>
      <point x="265" y="60.983" type="curve" smooth="yes"/>
      <point x="265" y="15.6385"/>
      <point x="291.254" y="-9"/>
      <point x="335.411" y="-9" type="curve" smooth="yes"/>
      <point x="389.794" y="-9"/>
      <point x="435.96" y="28.3725"/>
      <point x="498" y="127" type="curve"/>
      <point x="476" y="142" type="line"/>
      <point x="464" y="125"/>
      <point x="421" y="59"/>
      <point x="400.551" y="59" type="curve" smooth="yes"/>
      <point x="393" y="59"/>
      <point x="384" y="68"/>
      <point x="384" y="79.7231" type="curve" smooth="yes"/>
      <point x="384" y="117"/>
      <point x="475" y="317"/>
      <point x="475" y="394.496" type="curve" smooth="yes"/>
      <point x="475" y="435.519"/>
      <point x="449.5" y="462"/>
      <point x="403.675" y="462" type="curve" smooth="yes"/>
      <point x="336.431" y="462"/>
      <point x="268.595" y="404.978"/>
      <point x="190" y="288" type="curve"/>
      <point x="188" y="289" type="line"/>
      <point x="293.688" y="694.44" type="line"/>
      <point x="288.488" y="699.726" type="line"/>
      <point x="221.857" y="685.362"/>
      <point x="157.812" y="675.155"/>
      <point x="86" y="669" type="curve"/>
      <point x="86" y="642" type="line"/>
      <point x="94.767" y="642.65"/>
      <point x="100.203" y="642.906"/>
      <point x="104.792" y="642.906" type="curve" smooth="yes"/>
      <point x="134.816" y="642.906"/>
      <point x="149" y="631.925"/>
      <point x="149" y="607.808" type="curve" smooth="yes"/>
      <point x="149" y="595"/>
      <point x="145" y="581"/>
      <point x="141" y="567" type="curve" smooth="yes"/>
    </contour>
  </outline>
</glyph>
<glyph name="i" format="2">
  <advance width="278"/>
  <unicode hex="0069"/>
  <anchor x="38.4979" y="-70" name="bottom"/>
  <outline>
    <contour>
      <point x="2" y="58" type="curve" smooth="yes"/>
      <point x="2" y="16"/>
      <point x="29" y="-9"/>
      <point x="71" y="-9" type="curve" smooth="yes"/>
      <point x="137.654" y="-9"/>
      <point x="190.976" y="50.864"/>
      <point x="238" y="127" type="curve"/>
      <point x="216" y="141" type="line"/>
      <point x="203" y="121"/>
      <point x="164" y="61"/>
      <point x="138" y="61" type="curve" smooth="yes"/>
      <point x="128.678" y="61"/>
      <point x="120.978" y="67.791"/>
      <point x="120.978" y="78.054" type="curve" smooth="yes"/>
      <point x="120.978" y="92.7871"/>
      <point x="123.354" y="107.097"/>
      <point x="138" y="158.797" type="curve" smooth="yes"/>
      <point x="223.693" y="461.279" type="line"/>
      <point x="222.307" y="462.721" type="line"/>
      <point x="157" y="447"/>
      <point x="88" y="439"/>
      <point x="21" y="434" type="curve"/>
      <point x="21" y="407" type="line"/>
      <point x="61.0014" y="407"/>
      <point x="80" y="396.696"/>
      <point x="80" y="375" type="curve" smooth="yes"/>
      <point x="80" y="355.653"/>
      <point x="73.1775" y="325.395"/>
      <point x="62.4508" y="290.906" type="curve" smooth="yes"/>
      <point x="35.7923" y="205.192" type="line" smooth="yes"/>
      <point x="18.2644" y="148.835"/>
      <point x="2" y="93.0636"/>
    </contour>
    <contour>
      <point x="128" y="619" type="curve" smooth="yes"/>
      <point x="128" y="580"/>
      <point x="157" y="550"/>
      <point x="194" y="550" type="curve" smooth="yes"/>
      <point x="232" y="550"/>
      <point x="263" y="580"/>
      <point x="263" y="617" type="curve" smooth="yes"/>
      <point x="263" y="654"/>
      <point x="231" y="685"/>
      <point x="194" y="685" type="curve" smooth="yes"/>
      <point x="159" y="685"/>
      <point x="128" y="654"/>
    </contour>
  </outline>
</glyph>
<glyph name="k" format="2">
  <advance width="500"/>
  <unicode hex="006B"/>
  <anchor x="235" y="749" name="top"/>
  <anchor x="169.499" y="-70" name="bottom"/>
  <outline>
    <contour>
      <point x="-23" y="0" type="line"/>
      <point x="99" y="0" type="line"/>
      <point x="149" y="188" type="line"/>
      <point x="188" y="215" type="line"/>
      <point x="218.811" y="46.0384"/>
      <point x="248.617" y="-8"/>
      <point x="311.722" y="-8" type="curve" smooth="yes"/>
      <point x="360.903" y="-8"/>
      <point x="396.903" y="24.8232"/>
      <point x="447" y="116" type="curve"/>
      <point x="425" y="127" type="line"/>
      <point x="397.659" y="79.4056"/>
      <point x="381.766" y="63"/>
      <point x="362.806" y="63" type="curve" smooth="yes"/>
      <point x="334.935" y="63"/>
      <point x="322.912" y="98.4521"/>
      <point x="285" y="293" type="curve"/>
      <point x="348" y="348" type="line" smooth="yes"/>
      <point x="415.632" y="407.044"/>
      <point x="437.206" y="418.027"/>
      <point x="483" y="424" type="curve"/>
      <point x="483" y="449" type="line"/>
      <point x="276" y="449" type="line"/>
      <point x="276" y="424" type="line"/>
      <point x="315.515" y="421.974"/>
      <point x="327" y="416.794"/>
      <point x="327" y="401.986" type="curve" smooth="yes"/>
      <point x="327" y="378.119"/>
      <point x="297.162" y="345.882"/>
      <point x="216.518" y="281.636" type="curve" smooth="yes"/>
      <point x="163" y="239" type="line"/>
      <point x="284.661" y="690.776" type="line"/>
      <point x="274.584" y="699.735" type="line"/>
      <point x="198.262" y="685"/>
      <point x="157" y="677"/>
      <point x="78" y="669" type="curve"/>
      <point x="78" y="642" type="line"/>
      <point x="86" y="643"/>
      <point x="95" y="643"/>
      <point x="99" y="643" type="curve" smooth="yes"/>
      <point x="127.206" y="643"/>
      <point x="141" y="631.833"/>
      <point x="141" y="609.651" type="curve" smooth="yes"/>
      <point x="141" y="600.875"/>
      <point x="138.841" y="588.229"/>
      <point x="133" y="567" type="curve" smooth="yes"/>
    </contour>
  </outline>
</glyph>
<glyph name="l" format="2">
  <advance width="278"/>
  <unicode hex="006C"/>
  <anchor x="226" y="755" name="t.top"/>
  <anchor x="53.7148" y="-70" name="bottom"/>
  <anchor x="226" y="755" name="top"/>
  <anchor x="504.756" y="685" name="t.apo"/>
  <anchor x="306.667" y="374.727" name="ldot"/>
  <outline>
    <contour>
      <point x="2" y="53.6414" type="curve" smooth="yes"/>
      <point x="2" y="13.8309"/>
      <point x="25.1716" y="-9"/>
      <point x="69.6844" y="-9" type="curve" smooth="yes"/>
      <point x="126.933" y="-9"/>
      <point x="173.583" y="28.7645"/>
      <point x="238" y="127" type="curve"/>
      <point x="216" y="141" type="line"/>
      <point x="203" y="121"/>
      <point x="164" y="61"/>
      <point x="137.887" y="61" type="curve" smooth="yes"/>
      <point x="129.375" y="61"/>
      <point x="123" y="67.3753"/>
      <point x="123" y="76.7695" type="curve" smooth="yes"/>
      <point x="123" y="82.0695"/>
      <point x="124.83" y="91.7481"/>
      <point x="134.299" y="126.385" type="curve" smooth="yes"/>
      <point x="288.516" y="690.519" type="line"/>
      <point x="277.982" y="699.736" type="line"/>
      <point x="189.14" y="681.875"/>
      <point x="137.866" y="673.874"/>
      <point x="81" y="669" type="curve"/>
      <point x="81" y="642" type="line"/>
      <point x="129.561" y="640.364"/>
      <point x="144" y="633.718"/>
      <point x="144" y="609.186" type="curve" smooth="yes"/>
      <point x="144" y="595.792"/>
      <point x="139.696" y="577.536"/>
      <point x="115" y="490" type="curve" smooth="yes"/>
      <point x="21.5971" y="158.926" type="line" smooth="yes"/>
      <point x="9.86521" y="117.342"/>
      <point x="2" y="76.8354"/>
    </contour>
  </outline>
</glyph>
<glyph name="m" format="2">
  <advance width="778"/>
  <unicode hex="006D"/>
  <outline>
    <contour>
      <point x="-14" y="0" type="line"/>
      <point x="107" y="0" type="line"/>
      <point x="124.5" y="68.7022"/>
      <point x="155.022" y="173.531"/>
      <point x="199.111" y="258.672" type="curve" smooth="yes"/>
      <point x="214.317" y="288.038"/>
      <point x="276.713" y="389"/>
      <point x="318" y="389" type="curve" smooth="yes"/>
      <point x="331" y="389"/>
      <point x="337" y="376"/>
      <point x="337" y="365" type="curve" smooth="yes"/>
      <point x="337" y="354.022"/>
      <point x="328.291" y="317.998"/>
      <point x="313.958" y="273" type="curve" smooth="yes"/>
      <point x="227" y="0" type="line"/>
      <point x="347" y="0" type="line"/>
      <point x="375" y="92"/>
      <point x="400" y="189"/>
      <point x="448" y="273" type="curve" smooth="yes"/>
      <point x="467" y="306"/>
      <point x="518" y="389"/>
      <point x="559" y="389" type="curve" smooth="yes"/>
      <point x="573" y="389"/>
      <point x="583" y="380"/>
      <point x="583" y="366" type="curve" smooth="yes"/>
      <point x="583" y="314"/>
      <point x="495" y="145"/>
      <point x="495" y="56" type="curve" smooth="yes"/>
      <point x="495" y="9"/>
      <point x="522" y="-9"/>
      <point x="565" y="-9" type="curve" smooth="yes"/>
      <point x="642" y="-9"/>
      <point x="688" y="63"/>
      <point x="722" y="122" type="curve"/>
      <point x="700" y="135" type="line"/>
      <point x="689.797" y="117.057"/>
      <point x="652" y="59"/>
      <point x="632" y="59" type="curve" smooth="yes"/>
      <point x="623" y="59"/>
      <point x="615" y="64"/>
      <point x="615" y="74" type="curve" smooth="yes"/>
      <point x="615" y="143"/>
      <point x="704" y="295"/>
      <point x="704" y="383" type="curve" smooth="yes"/>
      <point x="704" y="432"/>
      <point x="674" y="462"/>
      <point x="625" y="462" type="curve" smooth="yes"/>
      <point x="537" y="462"/>
      <point x="474" y="363"/>
      <point x="433" y="297" type="curve"/>
      <point x="432" y="299" type="line"/>
      <point x="444" y="330"/>
      <point x="455" y="361"/>
      <point x="455" y="395" type="curve" smooth="yes"/>
      <point x="455" y="436"/>
      <point x="429" y="462"/>
      <point x="389" y="462" type="curve" smooth="yes"/>
      <point x="289.538" y="462"/>
      <point x="222.502" y="352.124"/>
      <point x="177" y="273" type="curve"/>
      <point x="174" y="275" type="line"/>
      <point x="231.743" y="451.31" type="line"/>
      <point x="221.406" y="461.738" type="line"/>
      <point x="156.081" y="446"/>
      <point x="102" y="439"/>
      <point x="34" y="433" type="curve"/>
      <point x="34" y="406" type="line"/>
      <point x="45.9132" y="407.371" type="line" smooth="yes"/>
      <point x="64.668" y="409.529"/>
      <point x="88" y="403.801"/>
      <point x="88" y="381" type="curve" smooth="yes"/>
      <point x="88" y="369.959"/>
      <point x="83.2454" y="342.896"/>
      <point x="73.4835" y="308.475" type="curve" smooth="yes"/>
    </contour>
  </outline>
</glyph>
<glyph name="n" format="2">
  <advance width="556"/>
  <unicode hex="006E"/>
  <anchor x="333.544" y="516" name="top"/>
  <anchor x="191.845" y="-70" name="bottom"/>
  <outline>
    <contour>
      <point x="-6" y="0" type="line"/>
      <point x="115" y="0" type="line"/>
      <point x="140.019" y="121.707"/>
      <point x="184.156" y="230.635"/>
      <point x="241.062" y="311.11" type="curve" smooth="yes"/>
      <point x="289.514" y="379.631"/>
      <point x="301.072" y="390"/>
      <point x="329" y="390" type="curve" smooth="yes"/>
      <point x="341" y="390"/>
      <point x="354" y="381"/>
      <point x="354" y="368" type="curve" smooth="yes"/>
      <point x="354" y="319"/>
      <point x="266" y="143"/>
      <point x="266" y="56" type="curve" smooth="yes"/>
      <point x="266" y="10"/>
      <point x="293" y="-9"/>
      <point x="336" y="-9" type="curve" smooth="yes"/>
      <point x="412" y="-9"/>
      <point x="459" y="64"/>
      <point x="493" y="122" type="curve"/>
      <point x="471" y="135" type="line"/>
      <point x="461.279" y="113.442"/>
      <point x="425" y="59"/>
      <point x="402" y="59" type="curve" smooth="yes"/>
      <point x="392" y="59"/>
      <point x="387" y="68"/>
      <point x="387" y="77" type="curve" smooth="yes"/>
      <point x="387" y="137"/>
      <point x="474" y="298"/>
      <point x="474" y="383" type="curve" smooth="yes"/>
      <point x="474" y="437"/>
      <point x="450" y="462"/>
      <point x="398" y="462" type="curve" smooth="yes"/>
      <point x="301" y="462"/>
      <point x="230.981" y="351.658"/>
      <point x="185" y="273" type="curve"/>
      <point x="182" y="275" type="line"/>
      <point x="240.37" y="453.227" type="line"/>
      <point x="232.573" y="461.739" type="line"/>
      <point x="170.247" y="447"/>
      <point x="107" y="434"/>
      <point x="42" y="434" type="curve"/>
      <point x="42" y="407" type="line"/>
      <point x="61.8117" y="408.044"/>
      <point x="96" y="408.726"/>
      <point x="96" y="381" type="curve" smooth="yes"/>
      <point x="96" y="372.499"/>
      <point x="91.6165" y="348.503"/>
      <point x="82.7467" y="316.837" type="curve" smooth="yes"/>
    </contour>
  </outline>
</glyph>
<glyph name="p" format="2">
  <advance width="500"/>
  <unicode hex="0070"/>
  <anchor x="319.68" y="516" name="top"/>
  <outline>
    <contour>
      <point x="-45" y="-104" type="line" smooth="yes"/>
      <point x="-58.4712" y="-155.359"/>
      <point x="-64.2034" y="-178"/>
      <point x="-120" y="-178" type="curve"/>
      <point x="-120" y="-205" type="line"/>
      <point x="129" y="-205" type="line"/>
      <point x="129" y="-178" type="line"/>
      <point x="80" y="-177"/>
      <point x="64" y="-169"/>
      <point x="64" y="-145" type="curve" smooth="yes"/>
      <point x="64" y="-133"/>
      <point x="72" y="-100"/>
      <point x="90" y="-32" type="curve" smooth="yes"/>
      <point x="101" y="9" type="line"/>
      <point x="136" y="-9"/>
      <point x="148" y="-13"/>
      <point x="169" y="-13" type="curve" smooth="yes"/>
      <point x="304" y="-13"/>
      <point x="446" y="168"/>
      <point x="446" y="341" type="curve" smooth="yes"/>
      <point x="446" y="415"/>
      <point x="404" y="462"/>
      <point x="338" y="462" type="curve" smooth="yes"/>
      <point x="281" y="462"/>
      <point x="237" y="430"/>
      <point x="178" y="347" type="curve"/>
      <point x="213.736" y="455.397" type="line"/>
      <point x="206.85" y="462.763" type="line"/>
      <point x="120.451" y="445.385"/>
      <point x="75" y="440"/>
      <point x="23" y="434" type="curve"/>
      <point x="23" y="407" type="line"/>
      <point x="68" y="405"/>
      <point x="77" y="401"/>
      <point x="77" y="382" type="curve" smooth="yes"/>
      <point x="77" y="373"/>
      <point x="68" y="333"/>
      <point x="55" y="284" type="curve" smooth="yes"/>
    </contour>
    <contour>
      <point x="113" y="61" type="curve" smooth="yes"/>
      <point x="113" y="94"/>
      <point x="170" y="274"/>
      <point x="186" y="308" type="curve" smooth="yes"/>
      <point x="203" y="342"/>
      <point x="239" y="391"/>
      <point x="281" y="391" type="curve" smooth="yes"/>
      <point x="309" y="391"/>
      <point x="321" y="364"/>
      <point x="321" y="340" type="curve" smooth="yes"/>
      <point x="321" y="263"/>
      <point x="248" y="22"/>
      <point x="153" y="22" type="curve" smooth="yes"/>
      <point x="130" y="22"/>
      <point x="113" y="37"/>
    </contour>
  </outline>
</glyph>
<glyph name="q" format="2">
  <advance width="500"/>
  <unicode hex="0071"/>
  <anchor x="319.68" y="516" name="top"/>
  <outline>
    <contour>
      <point x="1" y="112.301" type="curve" smooth="yes"/>
      <point x="1" y="35.9381"/>
      <point x="36.9336" y="-13"/>
      <point x="103.718" y="-13" type="curve" smooth="yes"/>
      <point x="160.702" y="-13"/>
      <point x="210.719" y="22.6288"/>
      <point x="252" y="91" type="curve"/>
      <point x="254" y="89" type="line"/>
      <point x="194" y="-115" type="line" smooth="yes"/>
      <point x="179.314" y="-164.934"/>
      <point x="164.034" y="-175.777"/>
      <point x="104" y="-178" type="curve"/>
      <point x="104" y="-205" type="line"/>
      <point x="371" y="-205" type="line"/>
      <point x="371" y="-178" type="line"/>
      <point x="368.538" y="-178"/>
      <point x="365.888" y="-178.021"/>
      <point x="364.059" y="-178.021" type="curve" smooth="yes"/>
      <point x="323.331" y="-178.021"/>
      <point x="305" y="-167.605"/>
      <point x="305" y="-139.748" type="curve" smooth="yes"/>
      <point x="305" y="-127.333"/>
      <point x="308.64" y="-109.77"/>
      <point x="317" y="-81" type="curve" smooth="yes"/>
      <point x="471" y="449" type="line"/>
      <point x="362" y="449" type="line"/>
      <point x="348" y="394" type="line"/>
      <point x="346" y="394" type="line"/>
      <point x="339.776" y="442.753"/>
      <point x="318.265" y="462"/>
      <point x="279.151" y="462" type="curve" smooth="yes"/>
      <point x="155.886" y="462"/>
      <point x="1" y="270.84"/>
    </contour>
    <contour>
      <point x="126" y="117.488" type="curve" smooth="yes"/>
      <point x="126" y="234.27"/>
      <point x="227.726" y="419"/>
      <point x="290.968" y="419" type="curve" smooth="yes"/>
      <point x="311.28" y="419"/>
      <point x="325" y="399.944"/>
      <point x="325" y="358.366" type="curve" smooth="yes"/>
      <point x="325" y="248.152"/>
      <point x="228.594" y="59"/>
      <point x="159.526" y="59" type="curve" smooth="yes"/>
      <point x="137.891" y="59"/>
      <point x="126" y="77.561"/>
    </contour>
  </outline>
</glyph>
<glyph name="r" format="2">
  <advance width="389"/>
  <unicode hex="0072"/>
  <anchor x="244.414" y="516" name="top"/>
  <anchor x="28" y="-50" name="bottom"/>
  <outline>
    <contour>
      <point x="-21" y="0" type="line"/>
      <point x="100" y="0" type="line"/>
      <point x="112.821" y="48.7012"/>
      <point x="198.958" y="361"/>
      <point x="270" y="361" type="curve" smooth="yes"/>
      <point x="284" y="361"/>
      <point x="296" y="323"/>
      <point x="330" y="323" type="curve" smooth="yes"/>
      <point x="369" y="323"/>
      <point x="389" y="361"/>
      <point x="389" y="396" type="curve" smooth="yes"/>
      <point x="389" y="431"/>
      <point x="368" y="462"/>
      <point x="331" y="462" type="curve" smooth="yes"/>
      <point x="263" y="462"/>
      <point x="214.514" y="368.366"/>
      <point x="190.698" y="315.33" type="curve" smooth="yes"/>
      <point x="173.861" y="277.835" type="line"/>
      <point x="171.995" y="278.555" type="line"/>
      <point x="225.894" y="455.663" type="line"/>
      <point x="216.156" y="462.725" type="line"/>
      <point x="150.844" y="445"/>
      <point x="95" y="440"/>
      <point x="27" y="434" type="curve"/>
      <point x="27" y="407" type="line"/>
      <point x="29.5455" y="407"/>
      <point x="32.2672" y="407.029"/>
      <point x="35.0851" y="407.029" type="curve" smooth="yes"/>
      <point x="55.5152" y="407.029"/>
      <point x="81" y="405.485"/>
      <point x="81" y="378.698" type="curve" smooth="yes"/>
      <point x="81" y="361.97"/>
      <point x="72.6747" y="317.494"/>
      <point x="57.2389" y="265.177" type="curve" smooth="yes"/>
    </contour>
  </outline>
</glyph>
<glyph name="s" format="2">
  <advance width="389"/>
  <unicode hex="0073"/>
  <anchor x="240.489" y="516" name="top"/>
  <anchor x="153.515" y="5" name="cedilla"/>
  <anchor x="117" y="-50" name="bottom"/>
  <outline>
    <contour>
      <point x="-19" y="-13" type="line"/>
      <point x="8" y="-13" type="line"/>
      <point x="12" y="-2"/>
      <point x="26" y="7"/>
      <point x="37" y="7" type="curve" smooth="yes"/>
      <point x="67" y="7"/>
      <point x="96" y="-13"/>
      <point x="129" y="-13" type="curve" smooth="yes"/>
      <point x="209" y="-13"/>
      <point x="279" y="36"/>
      <point x="279" y="121" type="curve" smooth="yes"/>
      <point x="279" y="225"/>
      <point x="142" y="311"/>
      <point x="142" y="375" type="curve" smooth="yes"/>
      <point x="142" y="407"/>
      <point x="162" y="429"/>
      <point x="195" y="429" type="curve" smooth="yes"/>
      <point x="255" y="429"/>
      <point x="275" y="358"/>
      <point x="283" y="310" type="curve"/>
      <point x="310" y="308" type="line"/>
      <point x="333" y="461" type="line"/>
      <point x="304" y="461" type="line"/>
      <point x="297" y="448"/>
      <point x="292" y="440"/>
      <point x="276" y="440" type="curve" smooth="yes"/>
      <point x="243" y="440"/>
      <point x="216" y="462"/>
      <point x="181" y="462" type="curve" smooth="yes"/>
      <point x="105" y="462"/>
      <point x="47" y="416"/>
      <point x="47" y="337" type="curve" smooth="yes"/>
      <point x="47" y="217"/>
      <point x="183" y="151"/>
      <point x="183" y="72" type="curve" smooth="yes"/>
      <point x="183" y="40"/>
      <point x="157" y="17"/>
      <point x="126" y="17" type="curve" smooth="yes"/>
      <point x="60" y="17"/>
      <point x="36" y="97"/>
      <point x="30" y="150" type="curve"/>
      <point x="3" y="153" type="line"/>
    </contour>
  </outline>
</glyph>
<glyph name="t" format="2">
  <advance width="278"/>
  <unicode hex="0074"/>
  <anchor x="235" y="657" name="top"/>
  <anchor x="72.1831" y="5" name="cedilla"/>
  <anchor x="49" y="-50" name="bottom"/>
  <outline>
    <contour>
      <point x="-11" y="58" type="curve" smooth="yes"/>
      <point x="-11" y="15"/>
      <point x="18" y="-9"/>
      <point x="61" y="-9" type="curve" smooth="yes"/>
      <point x="139" y="-9"/>
      <point x="188" y="69"/>
      <point x="225" y="127" type="curve"/>
      <point x="203" y="141" type="line"/>
      <point x="191" y="121"/>
      <point x="151" y="61"/>
      <point x="126" y="61" type="curve" smooth="yes"/>
      <point x="119" y="61"/>
      <point x="111" y="69"/>
      <point x="111" y="76" type="curve" smooth="yes"/>
      <point x="111" y="89.0789"/>
      <point x="116.259" y="118.776"/>
      <point x="126.511" y="154.924" type="curve" smooth="yes"/>
      <point x="198" y="407" type="line"/>
      <point x="281" y="407" type="line"/>
      <point x="281" y="449" type="line"/>
      <point x="209" y="449" type="line"/>
      <point x="248" y="594" type="line"/>
      <point x="213" y="594" type="line"/>
      <point x="166" y="521"/>
      <point x="111" y="473"/>
      <point x="30" y="442" type="curve"/>
      <point x="30" y="407" type="line"/>
      <point x="81" y="407" type="line"/>
      <point x="6.38393" y="147.436" type="line" smooth="yes"/>
      <point x="-5.0826" y="107.548"/>
      <point x="-11" y="73.9775"/>
    </contour>
  </outline>
</glyph>
<glyph name="u" format="2">
  <advance width="556"/>
  <unicode hex="0075"/>
  <anchor x="319" y="516" name="top"/>
  <anchor x="206.911" y="-70" name="bottom"/>
  <anchor x="319" y="516" name="t.ring"/>
  <anchor x="319" y="516" name="t.top"/>
  <anchor x="337" y="0" name="ogonek"/>
  <outline>
    <contour>
      <point x="15" y="69" type="curve" smooth="yes"/>
      <point x="15" y="17"/>
      <point x="37" y="-9"/>
      <point x="92" y="-9" type="curve" smooth="yes"/>
      <point x="181" y="-9"/>
      <point x="240" y="91"/>
      <point x="286" y="155" type="curve"/>
      <point x="288" y="154" type="line"/>
      <point x="276" y="119"/>
      <point x="266" y="84"/>
      <point x="266" y="47" type="curve" smooth="yes"/>
      <point x="266" y="4"/>
      <point x="296" y="-9"/>
      <point x="333" y="-9" type="curve" smooth="yes"/>
      <point x="407" y="-9"/>
      <point x="460" y="62"/>
      <point x="492" y="120" type="curve"/>
      <point x="471" y="133" type="line"/>
      <point x="459" y="114"/>
      <point x="423" y="59"/>
      <point x="400" y="59" type="curve" smooth="yes"/>
      <point x="389" y="59"/>
      <point x="385" y="68"/>
      <point x="385" y="78" type="curve" smooth="yes"/>
      <point x="385" y="92.4584"/>
      <point x="393.676" y="132.284"/>
      <point x="408.052" y="180.553" type="curve" smooth="yes"/>
      <point x="488" y="449" type="line"/>
      <point x="370" y="449" type="line"/>
      <point x="344" y="358"/>
      <point x="317" y="266"/>
      <point x="271" y="182" type="curve" smooth="yes"/>
      <point x="254" y="150"/>
      <point x="195" y="63"/>
      <point x="157" y="63" type="curve" smooth="yes"/>
      <point x="141" y="63"/>
      <point x="134" y="71"/>
      <point x="134" y="87" type="curve" smooth="yes"/>
      <point x="134" y="110"/>
      <point x="142.202" y="131.937"/>
      <point x="149" y="154" type="curve" smooth="yes"/>
      <point x="241.844" y="455.307" type="line"/>
      <point x="234.34" y="462.733" type="line"/>
      <point x="163.468" y="445.841"/>
      <point x="105" y="437"/>
      <point x="34" y="434" type="curve"/>
      <point x="34" y="407" type="line"/>
      <point x="72.445" y="403.592"/>
      <point x="90" y="395.751"/>
      <point x="90" y="378" type="curve" smooth="yes"/>
      <point x="90" y="356.541"/>
      <point x="87.6592" y="333.628"/>
      <point x="80.2484" y="310.976" type="curve" smooth="yes"/>
      <point x="30" y="157.387" type="line" smooth="yes"/>
      <point x="20.2136" y="127.474"/>
      <point x="15" y="97.4272"/>
    </contour>
  </outline>
</glyph>
<glyph name="v" format="2">
  <advance width="444"/>
  <unicode hex="0076"/>
  <anchor x="252.351" y="516" name="top"/>
  <anchor x="84.5397" y="-70" name="bottom"/>
  <outline>
    <contour>
      <point x="85" y="-13" type="curve"/>
      <point x="111" y="-13" type="line"/>
      <point x="199" y="69"/>
      <point x="401" y="264"/>
      <point x="401" y="394" type="curve" smooth="yes"/>
      <point x="401" y="429"/>
      <point x="374" y="462"/>
      <point x="338" y="462" type="curve" smooth="yes"/>
      <point x="309" y="462"/>
      <point x="284" y="433"/>
      <point x="284" y="405" type="curve" smooth="yes"/>
      <point x="284" y="360"/>
      <point x="328" y="348"/>
      <point x="328" y="315" type="curve" smooth="yes"/>
      <point x="328" y="262.379"/>
      <point x="227.266" y="149.798"/>
      <point x="196.969" y="123.437" type="curve"/>
      <point x="202" y="115.283" type="line"/>
      <point x="204.639" y="142.489"/>
      <point x="205.873" y="170.734"/>
      <point x="205.873" y="199.239" type="curve" smooth="yes"/>
      <point x="205.873" y="292.062"/>
      <point x="192.788" y="387.64"/>
      <point x="172.524" y="459.048" type="curve"/>
      <point x="163.778" y="462.501" type="line"/>
      <point x="113.643" y="449"/>
      <point x="67.7303" y="439.095"/>
      <point x="16" y="434" type="curve"/>
      <point x="16" y="407" type="line"/>
      <point x="17.6106" y="407.035"/>
      <point x="19.1698" y="407.053"/>
      <point x="20.6794" y="407.053" type="curve" smooth="yes"/>
      <point x="72.5108" y="407.053"/>
      <point x="85" y="344.425"/>
    </contour>
  </outline>
</glyph>
<glyph name="w" format="2">
  <advance width="667"/>
  <unicode hex="0077"/>
  <anchor x="379.851" y="516" name="top"/>
  <anchor x="379.851" y="516" name="t.ring"/>
  <anchor x="250.385" y="-70" name="bottom"/>
  <outline>
    <contour>
      <point x="95" y="-13" type="curve"/>
      <point x="122" y="-13" type="line"/>
      <point x="290" y="269" type="line"/>
      <point x="292" y="269" type="line"/>
      <point x="315" y="-13" type="line"/>
      <point x="342" y="-13" type="line"/>
      <point x="423" y="71"/>
      <point x="614" y="282"/>
      <point x="614" y="397" type="curve" smooth="yes"/>
      <point x="614" y="432"/>
      <point x="589" y="462"/>
      <point x="553" y="462" type="curve" smooth="yes"/>
      <point x="522" y="462"/>
      <point x="497" y="433"/>
      <point x="497" y="403" type="curve" smooth="yes"/>
      <point x="497" y="364"/>
      <point x="538" y="344"/>
      <point x="538" y="309" type="curve" smooth="yes"/>
      <point x="538" y="266"/>
      <point x="450.838" y="162.706"/>
      <point x="419" y="130" type="curve"/>
      <point x="387" y="462" type="line"/>
      <point x="360" y="462" type="line"/>
      <point x="194.303" y="169.428" type="line"/>
      <point x="205.183" y="169.831" type="line"/>
      <point x="208.616" y="266.023"/>
      <point x="197.331" y="369.167"/>
      <point x="174.191" y="457.655" type="curve"/>
      <point x="164.004" y="462.511" type="line"/>
      <point x="113.241" y="449.678"/>
      <point x="68" y="441"/>
      <point x="16" y="434" type="curve"/>
      <point x="16" y="407" type="line"/>
      <point x="19.0292" y="407.129"/>
      <point x="21.8756" y="407.195"/>
      <point x="24.553" y="407.195" type="curve" smooth="yes"/>
      <point x="63.4158" y="407.195"/>
      <point x="66.6445" y="393.164"/>
      <point x="76" y="352" type="curve" smooth="yes"/>
      <point x="96" y="263"/>
      <point x="97" y="163"/>
      <point x="97" y="72" type="curve" smooth="yes"/>
      <point x="97" y="44"/>
      <point x="96" y="15"/>
    </contour>
  </outline>
</glyph>
<glyph name="x" format="2">
  <advance width="500"/>
  <unicode hex="0078"/>
  <anchor x="284.15" y="516" name="top"/>
  <outline>
    <contour>
      <point x="180.124" y="103.241" type="line" smooth="yes"/>
      <point x="194.132" y="32.5765"/>
      <point x="231.944" y="-13"/>
      <point x="272" y="-13" type="curve" smooth="yes"/>
      <point x="335" y="-13"/>
      <point x="389" y="62"/>
      <point x="421" y="109" type="curve"/>
      <point x="400" y="123" type="line"/>
      <point x="383.562" y="98"/>
      <point x="359" y="64"/>
      <point x="334" y="64" type="curve" smooth="yes"/>
      <point x="312.253" y="64"/>
      <point x="304.612" y="75.4377"/>
      <point x="296" y="117" type="curve" smooth="yes"/>
      <point x="249.882" y="339.574" type="line" smooth="yes"/>
      <point x="240.77" y="383.551"/>
      <point x="233.477" y="417.885"/>
      <point x="213.602" y="455.684" type="curve"/>
      <point x="202.44" y="462.449" type="line"/>
      <point x="150" y="450.665"/>
      <point x="93.9449" y="441.575"/>
      <point x="41" y="438" type="curve"/>
      <point x="41" y="411" type="line"/>
      <point x="52.8246" y="412.182"/>
      <point x="63.0179" y="412.977"/>
      <point x="71.8632" y="412.977" type="curve" smooth="yes"/>
      <point x="107.901" y="412.977"/>
      <point x="121.344" y="399.753"/>
      <point x="132" y="346" type="curve" smooth="yes"/>
    </contour>
    <contour>
      <point x="-46" y="47" type="curve" smooth="yes"/>
      <point x="-46" y="11"/>
      <point x="-20" y="-13"/>
      <point x="16" y="-13" type="curve" smooth="yes"/>
      <point x="87.4152" y="-13"/>
      <point x="151.088" y="87.6084"/>
      <point x="179.952" y="152.958" type="curve"/>
      <point x="174.272" y="209.716" type="line"/>
      <point x="165.707" y="190.873"/>
      <point x="108.46" y="81"/>
      <point x="71" y="81" type="curve" smooth="yes"/>
      <point x="52" y="81"/>
      <point x="39" y="102"/>
      <point x="9" y="102" type="curve" smooth="yes"/>
      <point x="-22" y="102"/>
      <point x="-46" y="78"/>
    </contour>
    <contour>
      <point x="258.727" y="266.073" type="line"/>
      <point x="281.876" y="307.851"/>
      <point x="315.106" y="368"/>
      <point x="354" y="368" type="curve" smooth="yes"/>
      <point x="377" y="368"/>
      <point x="387" y="348"/>
      <point x="413" y="348" type="curve" smooth="yes"/>
      <point x="441" y="348"/>
      <point x="469" y="371"/>
      <point x="469" y="400" type="curve" smooth="yes"/>
      <point x="469" y="429"/>
      <point x="445" y="462"/>
      <point x="414" y="462" type="curve" smooth="yes"/>
      <point x="338.162" y="462"/>
      <point x="286.663" y="370.11"/>
      <point x="245.891" y="314.114" type="curve"/>
    </contour>
  </outline>
</glyph>
<glyph name="y" format="2">
  <advance width="444"/>
  <unicode hex="0079"/>
  <anchor x="246.914" y="516" name="top"/>
  <anchor x="333" y="-70" name="bottom"/>
  <anchor x="246.914" y="516" name="t.ring"/>
  <outline>
    <contour>
      <point x="-41" y="-90" type="curve" smooth="yes"/>
      <point x="-71" y="-90"/>
      <point x="-94" y="-115"/>
      <point x="-94" y="-145" type="curve" smooth="yes"/>
      <point x="-94" y="-177"/>
      <point x="-67" y="-205"/>
      <point x="-35" y="-205" type="curve" smooth="yes"/>
      <point x="139.227" y="-205"/>
      <point x="392" y="243.865"/>
      <point x="392" y="400" type="curve" smooth="yes"/>
      <point x="392" y="433"/>
      <point x="362" y="462"/>
      <point x="329" y="462" type="curve" smooth="yes"/>
      <point x="300" y="462"/>
      <point x="273" y="435"/>
      <point x="273" y="406" type="curve" smooth="yes"/>
      <point x="273" y="343"/>
      <point x="328" y="357"/>
      <point x="328" y="313" type="curve" smooth="yes"/>
      <point x="328" y="270"/>
      <point x="268.543" y="153.339"/>
      <point x="243" y="113" type="curve"/>
      <point x="241" y="113" type="line"/>
      <point x="234" y="230.607"/>
      <point x="212.711" y="344.418"/>
      <point x="166.367" y="453.434" type="curve"/>
      <point x="152.199" y="460.624" type="line"/>
      <point x="99.4863" y="445.543"/>
      <point x="67.9702" y="442.318"/>
      <point x="14" y="438" type="curve"/>
      <point x="14" y="411" type="line"/>
      <point x="18.8663" y="411.794"/>
      <point x="26.6144" y="412.681"/>
      <point x="30.3863" y="412.681" type="curve" smooth="yes"/>
      <point x="113.39" y="412.681"/>
      <point x="142" y="54.7505"/>
      <point x="142" y="-6" type="curve" smooth="yes"/>
      <point x="142" y="-21.4938"/>
      <point x="134.338" y="-45.583"/>
      <point x="120.029" y="-66.8285" type="curve" smooth="yes"/>
      <point x="107.853" y="-84.9076" type="line" smooth="yes"/>
      <point x="92.0913" y="-108.31"/>
      <point x="69.9726" y="-125"/>
      <point x="51" y="-125" type="curve" smooth="yes"/>
      <point x="25" y="-125"/>
      <point x="-5" y="-90"/>
    </contour>
  </outline>
</glyph>
<glyph name="z" format="2">
  <advance width="389"/>
  <unicode hex="007A"/>
  <anchor x="237.228" y="516" name="top"/>
  <anchor x="113" y="-70" name="bottom"/>
  <outline>
    <contour>
      <point x="-43" y="-1" type="line"/>
      <point x="-18" y="-23" type="line"/>
      <point x="-2" y="-11"/>
      <point x="14" y="5"/>
      <point x="35" y="5" type="curve" smooth="yes"/>
      <point x="89" y="5"/>
      <point x="143" y="-78"/>
      <point x="239" y="-78" type="curve" smooth="yes"/>
      <point x="289" y="-78"/>
      <point x="346" y="-45"/>
      <point x="346" y="11" type="curve" smooth="yes"/>
      <point x="346" y="41"/>
      <point x="322" y="65"/>
      <point x="292" y="65" type="curve" smooth="yes"/>
      <point x="266" y="65"/>
      <point x="243" y="41"/>
      <point x="243" y="15" type="curve" smooth="yes"/>
      <point x="243" y="-13"/>
      <point x="263" y="-20"/>
      <point x="263" y="-34" type="curve" smooth="yes"/>
      <point x="263" y="-44"/>
      <point x="250" y="-49"/>
      <point x="242" y="-49" type="curve" smooth="yes"/>
      <point x="219.201" y="-49"/>
      <point x="207.552" y="-27.8553"/>
      <point x="192.471" y="-0.483122" type="curve" smooth="yes"/>
      <point x="173.155" y="34.5764"/>
      <point x="148.211" y="79.8527"/>
      <point x="87" y="104" type="curve"/>
      <point x="368" y="439" type="line"/>
      <point x="368" y="449" type="line"/>
      <point x="56" y="449" type="line"/>
      <point x="13" y="295" type="line"/>
      <point x="41" y="292" type="line"/>
      <point x="52" y="322"/>
      <point x="67" y="353"/>
      <point x="104" y="353" type="curve" smooth="yes"/>
      <point x="249" y="353" type="line"/>
    </contour>
  </outline>
</glyph>
<glyph name="braceleft" format="2">
  <advance width="348"/>
  <unicode hex="007B"/>
  <outline>
    <contour>
      <point x="28" y="-96" type="curve" smooth="yes"/>
      <point x="28" y="-171.833"/>
      <point x="117.624" y="-185.781"/>
      <point x="212" y="-187" type="curve"/>
      <point x="215" y="-175" type="line"/>
      <point x="154.746" y="-164"/>
      <point x="132" y="-143"/>
      <point x="132" y="-97" type="curve" smooth="yes"/>
      <point x="132" y="-78.7648"/>
      <point x="134.64" y="-47.534"/>
      <point x="146.475" y="-9.8872" type="curve" smooth="yes"/>
      <point x="166.261" y="53.0538" type="line" smooth="yes"/>
      <point x="183.625" y="108.291"/>
      <point x="193" y="151.301"/>
      <point x="193" y="173" type="curve" smooth="yes"/>
      <point x="193" y="207.172"/>
      <point x="175.424" y="229"/>
      <point x="99" y="249" type="curve"/>
      <point x="199" y="268"/>
      <point x="229" y="294"/>
      <point x="252" y="379" type="curve" smooth="yes"/>
      <point x="297" y="550" type="line" smooth="yes"/>
      <point x="317" y="626"/>
      <point x="354" y="659"/>
      <point x="435" y="674" type="curve"/>
      <point x="438" y="686" type="line"/>
      <point x="279" y="686"/>
      <point x="221" y="653"/>
      <point x="189.898" y="544" type="curve"/>
      <point x="142.339" y="365" type="line" smooth="yes"/>
      <point x="122" y="293"/>
      <point x="94" y="268"/>
      <point x="5" y="249" type="curve"/>
      <point x="67" y="233"/>
      <point x="89" y="214"/>
      <point x="89" y="179" type="curve" smooth="yes"/>
      <point x="89" y="158.419"/>
      <point x="81.875" y="123.06"/>
      <point x="69.4614" y="83.2249" type="curve" smooth="yes"/>
      <point x="49.9574" y="20.6366" type="line" smooth="yes"/>
      <point x="35.7158" y="-25.0647"/>
      <point x="28" y="-73.9949"/>
    </contour>
  </outline>
</glyph>
<glyph name="braceright" format="2">
  <advance width="348"/>
  <unicode hex="007D"/>
  <outline>
    <contour>
      <point x="-129" y="-187" type="line"/>
      <point x="30" y="-187"/>
      <point x="88" y="-154"/>
      <point x="119" y="-45" type="curve"/>
      <point x="165" y="134" type="line"/>
      <point x="185.465" y="206"/>
      <point x="214.767" y="230"/>
      <point x="302" y="250" type="curve"/>
      <point x="241.279" y="266"/>
      <point x="220" y="285"/>
      <point x="220" y="320" type="curve" smooth="yes"/>
      <point x="220" y="337.72"/>
      <point x="224.526" y="366.568"/>
      <point x="234.26" y="399.426" type="curve" smooth="yes"/>
      <point x="256.123" y="473.227" type="line" smooth="yes"/>
      <point x="270.444" y="521.569"/>
      <point x="279" y="573.447"/>
      <point x="279" y="598" type="curve" smooth="yes"/>
      <point x="279" y="655.598"/>
      <point x="232.301" y="678.944"/>
      <point x="97" y="686" type="curve"/>
      <point x="94" y="674" type="line"/>
      <point x="151" y="663"/>
      <point x="175" y="641"/>
      <point x="175" y="597" type="curve" smooth="yes"/>
      <point x="175" y="577.746"/>
      <point x="169.6" y="545.887"/>
      <point x="156.748" y="500.496" type="curve" smooth="yes"/>
      <point x="134.602" y="422.281" type="line" smooth="yes"/>
      <point x="121.366" y="375.535"/>
      <point x="116" y="343.99"/>
      <point x="116" y="326" type="curve" smooth="yes"/>
      <point x="116" y="284"/>
      <point x="133" y="270"/>
      <point x="209.535" y="250" type="curve"/>
      <point x="110" y="231"/>
      <point x="80" y="205"/>
      <point x="57" y="120" type="curve" smooth="yes"/>
      <point x="12" y="-51" type="line" smooth="yes"/>
      <point x="-8" y="-127"/>
      <point x="-45" y="-160"/>
      <point x="-126" y="-175" type="curve"/>
    </contour>
  </outline>
</glyph>
<glyph name="cent" format="2">
  <advance width="500"/>
  <unicode hex="00A2"/>
  <outline>
    <contour>
      <point x="144" y="-143" type="line"/>
      <point x="178" y="-143" type="line"/>
      <point x="431" y="576" type="line"/>
      <point x="396" y="576" type="line"/>
    </contour>
    <contour>
      <point x="439" y="371.385" type="curve" smooth="yes"/>
      <point x="439" y="426.69"/>
      <point x="392.165" y="462.53"/>
      <point x="327.423" y="462.53" type="curve" smooth="yes"/>
      <point x="188.005" y="462.53"/>
      <point x="42" y="296.333"/>
      <point x="42" y="147" type="curve" smooth="yes"/>
      <point x="42" y="50.5194"/>
      <point x="102.945" y="-12.4705"/>
      <point x="198.843" y="-12.4705" type="curve" smooth="yes"/>
      <point x="270.699" y="-12.4705"/>
      <point x="323.227" y="22.8951"/>
      <point x="393" y="123.53" type="curve"/>
      <point x="365" y="141.53" type="line"/>
      <point x="323.079" y="80.1451"/>
      <point x="284.289" y="51.5295"/>
      <point x="243.813" y="51.5295" type="curve" smooth="yes"/>
      <point x="197.814" y="51.5295"/>
      <point x="170" y="88.4884"/>
      <point x="170" y="153.754" type="curve" smooth="yes"/>
      <point x="170" y="267.638"/>
      <point x="254.69" y="429.53"/>
      <point x="316.903" y="429.53" type="curve" smooth="yes"/>
      <point x="330.118" y="429.53"/>
      <point x="340" y="422.225"/>
      <point x="340" y="412.584" type="curve" smooth="yes"/>
      <point x="340" y="398.53"/>
      <point x="319" y="381.53"/>
      <point x="319" y="354.664" type="curve" smooth="yes"/>
      <point x="319" y="325.345"/>
      <point x="344.01" y="302.53"/>
      <point x="377.09" y="302.53" type="curve" smooth="yes"/>
      <point x="414.062" y="302.53"/>
      <point x="439" y="331.03"/>
    </contour>
  </outline>
</glyph>
<glyph name="sterling" format="2">
  <advance width="500"/>
  <unicode hex="00A3"/>
  <outline>
    <contour>
      <point x="-32" y="75" type="curve" smooth="yes"/>
      <point x="-32" y="25"/>
      <point x="5" y="-11"/>
      <point x="58" y="-11" type="curve" smooth="yes"/>
      <point x="101" y="-11"/>
      <point x="129" y="6"/>
      <point x="156" y="49" type="curve"/>
      <point x="208" y="4"/>
      <point x="241" y="-12"/>
      <point x="283" y="-12" type="curve" smooth="yes"/>
      <point x="380.516" y="-12"/>
      <point x="417.008" y="74.2899"/>
      <point x="434" y="155" type="curve"/>
      <point x="409" y="155" type="line"/>
      <point x="387" y="106"/>
      <point x="367" y="92"/>
      <point x="319" y="92" type="curve" smooth="yes"/>
      <point x="287" y="92"/>
      <point x="254" y="101"/>
      <point x="194" y="124" type="curve"/>
      <point x="230.472" y="180.366"/>
      <point x="254.344" y="244.614"/>
      <point x="269" y="310" type="curve"/>
      <point x="384" y="310" type="line"/>
      <point x="394" y="370" type="line"/>
      <point x="280" y="370" type="line"/>
      <point x="319" y="572" type="line" smooth="yes"/>
      <point x="329" y="622"/>
      <point x="350" y="649"/>
      <point x="379" y="649" type="curve" smooth="yes"/>
      <point x="393" y="649"/>
      <point x="403" y="640"/>
      <point x="403" y="628" type="curve" smooth="yes"/>
      <point x="403" y="611.316"/>
      <point x="396" y="593.437"/>
      <point x="396" y="575" type="curve" smooth="yes"/>
      <point x="396" y="546"/>
      <point x="419" y="524"/>
      <point x="449" y="524" type="curve" smooth="yes"/>
      <point x="483" y="524"/>
      <point x="510" y="554"/>
      <point x="510" y="592" type="curve" smooth="yes"/>
      <point x="510" y="644"/>
      <point x="464" y="683"/>
      <point x="401" y="683" type="curve" smooth="yes"/>
      <point x="237.743" y="683"/>
      <point x="176.171" y="499.808"/>
      <point x="150" y="370" type="curve"/>
      <point x="45" y="370" type="line"/>
      <point x="35" y="310" type="line"/>
      <point x="144" y="310" type="line"/>
      <point x="125" y="148" type="line"/>
      <point x="100" y="159"/>
      <point x="85" y="162"/>
      <point x="64" y="162" type="curve" smooth="yes"/>
      <point x="7" y="162"/>
      <point x="-32" y="127"/>
    </contour>
    <contour>
      <point x="-2" y="70" type="curve" smooth="yes"/>
      <point x="-2" y="100"/>
      <point x="18" y="120"/>
      <point x="49" y="120" type="curve" smooth="yes"/>
      <point x="71" y="120"/>
      <point x="91" y="111"/>
      <point x="113" y="90" type="curve"/>
      <point x="102" y="41"/>
      <point x="84" y="19"/>
      <point x="54" y="19" type="curve" smooth="yes"/>
      <point x="21" y="19"/>
      <point x="-2" y="40"/>
    </contour>
  </outline>
</glyph>
<glyph name="currency" format="2">
  <advance width="500"/>
  <unicode hex="00A4"/>
  <outline>
    <contour>
      <point x="-26" y="92" type="line"/>
      <point x="32" y="34" type="line"/>
      <point x="128" y="132" type="line"/>
      <point x="169" y="106"/>
      <point x="206" y="95"/>
      <point x="250" y="95" type="curve" smooth="yes"/>
      <point x="294" y="95"/>
      <point x="331" y="106"/>
      <point x="372" y="132" type="curve"/>
      <point x="468" y="34" type="line"/>
      <point x="526" y="92" type="line"/>
      <point x="428" y="190" type="line"/>
      <point x="454" y="226"/>
      <point x="465" y="263"/>
      <point x="465" y="310" type="curve" smooth="yes"/>
      <point x="465" y="356"/>
      <point x="455" y="389"/>
      <point x="428" y="432" type="curve"/>
      <point x="526" y="530" type="line"/>
      <point x="468" y="586" type="line"/>
      <point x="372" y="490" type="line"/>
      <point x="332" y="515"/>
      <point x="296" y="525"/>
      <point x="250" y="525" type="curve" smooth="yes"/>
      <point x="204" y="525"/>
      <point x="168" y="515"/>
      <point x="128" y="490" type="curve"/>
      <point x="32" y="586" type="line"/>
      <point x="-26" y="530" type="line"/>
      <point x="72" y="432" type="line"/>
      <point x="46" y="393"/>
      <point x="35" y="356"/>
      <point x="35" y="310" type="curve" smooth="yes"/>
      <point x="35" y="263"/>
      <point x="46" y="228"/>
      <point x="72" y="190" type="curve"/>
    </contour>
    <contour>
      <point x="250" y="443" type="curve" smooth="yes"/>
      <point x="321" y="443"/>
      <point x="377" y="383"/>
      <point x="377" y="308" type="curve" smooth="yes"/>
      <point x="377" y="237"/>
      <point x="319" y="177"/>
      <point x="250" y="177" type="curve" smooth="yes"/>
      <point x="179" y="177"/>
      <point x="123" y="236"/>
      <point x="123" y="310" type="curve" smooth="yes"/>
      <point x="123" y="385"/>
      <point x="179" y="443"/>
    </contour>
  </outline>
</glyph>
<glyph name="yen" format="2">
  <advance width="500"/>
  <unicode hex="00A5"/>
  <outline>
    <contour>
      <point x="46" y="0" type="line"/>
      <point x="368" y="0" type="line"/>
      <point x="368" y="25" type="line"/>
      <point x="301" y="28"/>
      <point x="287" y="36"/>
      <point x="287" y="68" type="curve" smooth="yes"/>
      <point x="287" y="87"/>
      <point x="291" y="110"/>
      <point x="303" y="153" type="curve" smooth="yes"/>
      <point x="306" y="164" type="line"/>
      <point x="462" y="164" type="line"/>
      <point x="472" y="214" type="line"/>
      <point x="320" y="214" type="line"/>
      <point x="340.206" y="291.392" type="line"/>
      <point x="341.794" y="292" type="line"/>
      <point x="491" y="292" type="line"/>
      <point x="502" y="342" type="line"/>
      <point x="369" y="342" type="line"/>
      <point x="535" y="575" type="line"/>
      <point x="569" y="621"/>
      <point x="588" y="636"/>
      <point x="628" y="644" type="curve"/>
      <point x="628" y="669" type="line"/>
      <point x="428" y="669" type="line"/>
      <point x="428" y="644" type="line"/>
      <point x="484" y="642"/>
      <point x="498" y="633"/>
      <point x="498" y="598" type="curve" smooth="yes"/>
      <point x="498" y="580"/>
      <point x="492" y="567"/>
      <point x="472" y="538" type="curve" smooth="yes"/>
      <point x="337" y="344" type="line"/>
      <point x="257" y="580" type="line" smooth="yes"/>
      <point x="253" y="592"/>
      <point x="251" y="603"/>
      <point x="251" y="612" type="curve" smooth="yes"/>
      <point x="251" y="635"/>
      <point x="269" y="642"/>
      <point x="326" y="644" type="curve"/>
      <point x="326" y="669" type="line"/>
      <point x="46" y="669" type="line"/>
      <point x="46" y="644" type="line"/>
      <point x="101" y="638"/>
      <point x="110.807" y="633.014"/>
      <point x="128" y="581" type="curve" smooth="yes"/>
      <point x="207" y="342" type="line"/>
      <point x="82" y="342" type="line"/>
      <point x="68" y="292" type="line"/>
      <point x="209.396" y="292" type="line"/>
      <point x="210.604" y="291.203" type="line"/>
      <point x="188" y="214" type="line"/>
      <point x="47" y="214" type="line"/>
      <point x="33" y="164" type="line"/>
      <point x="174" y="164" type="line"/>
      <point x="155" y="97" type="line" smooth="yes"/>
      <point x="138.692" y="39.493"/>
      <point x="123" y="30"/>
      <point x="46" y="25" type="curve"/>
    </contour>
  </outline>
</glyph>
<glyph name="dieresis" format="2">
  <advance width="333"/>
  <unicode hex="00A8"/>
  <anchor x="229.784" y="516" name="_top"/>
  <anchor x="225.94" y="682" name="t.top"/>
  <anchor x="229.784" y="516" name="_t.gr"/>
  <outline>
    <contour>
      <point x="119" y="655" type="curve" smooth="yes"/>
      <point x="84" y="655"/>
      <point x="55" y="625"/>
      <point x="55" y="589" type="curve" smooth="yes"/>
      <point x="55" y="555"/>
      <point x="85" y="525"/>
      <point x="119" y="525" type="curve" smooth="yes"/>
      <point x="154" y="525"/>
      <point x="185" y="555"/>
      <point x="185" y="589" type="curve" smooth="yes"/>
      <point x="185" y="625"/>
      <point x="155" y="655"/>
    </contour>
    <contour>
      <point x="331" y="655" type="curve" smooth="yes"/>
      <point x="296" y="655"/>
      <point x="267" y="625"/>
      <point x="267" y="589" type="curve" smooth="yes"/>
      <point x="267" y="555"/>
      <point x="297" y="525"/>
      <point x="331" y="525" type="curve" smooth="yes"/>
      <point x="366" y="525"/>
      <point x="397" y="555"/>
      <point x="397" y="589" type="curve" smooth="yes"/>
      <point x="397" y="625"/>
      <point x="367" y="655"/>
    </contour>
  </outline>
</glyph>
<glyph name="copyright" format="2">
  <advance width="747"/>
  <unicode hex="00A9"/>
  <outline>
    <contour>
      <point x="526" y="250" type="line"/>
      <point x="497" y="189"/>
      <point x="461" y="163"/>
      <point x="403" y="163" type="curve" smooth="yes"/>
      <point x="315" y="163"/>
      <point x="265" y="228"/>
      <point x="265" y="342" type="curve" smooth="yes"/>
      <point x="265" y="454"/>
      <point x="314" y="518"/>
      <point x="400" y="518" type="curve" smooth="yes"/>
      <point x="461" y="518"/>
      <point x="497" y="488"/>
      <point x="510" y="428" type="curve"/>
      <point x="527" y="428" type="line"/>
      <point x="527" y="499" type="line" smooth="yes"/>
      <point x="527" y="508"/>
      <point x="520.281" y="514.755"/>
      <point x="505" y="520" type="curve" smooth="yes"/>
      <point x="497.928" y="522.427" type="line" smooth="yes"/>
      <point x="464.55" y="533.883"/>
      <point x="438.667" y="538"/>
      <point x="405" y="538" type="curve" smooth="yes"/>
      <point x="269" y="538"/>
      <point x="180" y="457"/>
      <point x="180" y="335" type="curve" smooth="yes"/>
      <point x="180" y="214"/>
      <point x="262" y="140"/>
      <point x="396" y="140" type="curve" smooth="yes"/>
      <point x="425.355" y="140"/>
      <point x="474.835" y="148.56"/>
      <point x="504.698" y="160.04" type="curve" smooth="yes"/>
      <point x="515" y="164" type="line" smooth="yes"/>
      <point x="523.855" y="167.404"/>
      <point x="525" y="168"/>
      <point x="527" y="178" type="curve"/>
      <point x="544" y="250" type="line"/>
    </contour>
    <contour>
      <point x="374" y="685" type="curve" smooth="yes"/>
      <point x="182" y="685"/>
      <point x="30" y="529"/>
      <point x="30" y="332" type="curve" smooth="yes"/>
      <point x="30" y="139"/>
      <point x="182" y="-18"/>
      <point x="369" y="-18" type="curve" smooth="yes"/>
      <point x="568" y="-18"/>
      <point x="718" y="134"/>
      <point x="718" y="334" type="curve" smooth="yes"/>
      <point x="718" y="530"/>
      <point x="566" y="685"/>
    </contour>
    <contour>
      <point x="374" y="639" type="curve" smooth="yes"/>
      <point x="528" y="639"/>
      <point x="657" y="500"/>
      <point x="657" y="334" type="curve" smooth="yes"/>
      <point x="657" y="164"/>
      <point x="530" y="28"/>
      <point x="370" y="28" type="curve" smooth="yes"/>
      <point x="220" y="28"/>
      <point x="91" y="168"/>
      <point x="91" y="333" type="curve" smooth="yes"/>
      <point x="91" y="501"/>
      <point x="219" y="639"/>
    </contour>
  </outline>
</glyph>
<glyph name="ordfeminine" format="2">
  <advance width="266"/>
  <unicode hex="00AA"/>
  <outline>
    <contour>
      <point x="16" y="476" type="curve" smooth="yes"/>
      <point x="16" y="431"/>
      <point x="45" y="400"/>
      <point x="86" y="400" type="curve" smooth="yes"/>
      <point x="130" y="400"/>
      <point x="159" y="423"/>
      <point x="196" y="488" type="curve"/>
      <point x="186" y="454"/>
      <point x="185" y="448"/>
      <point x="185" y="437" type="curve" smooth="yes"/>
      <point x="185" y="414.338"/>
      <point x="202.894" y="399"/>
      <point x="229" y="399" type="curve" smooth="yes"/>
      <point x="259" y="399"/>
      <point x="288" y="422"/>
      <point x="326" y="475" type="curve"/>
      <point x="313" y="484" type="line"/>
      <point x="304.106" y="471.732"/>
      <point x="279.136" y="442"/>
      <point x="267" y="442" type="curve" smooth="yes"/>
      <point x="264" y="442"/>
      <point x="262" y="446"/>
      <point x="262" y="451" type="curve" smooth="yes"/>
      <point x="262" y="467"/>
      <point x="268" y="493"/>
      <point x="284" y="540" type="curve" smooth="yes"/>
      <point x="330" y="680" type="line"/>
      <point x="254" y="676" type="line"/>
      <point x="243" y="640" type="line"/>
      <point x="236" y="672"/>
      <point x="222" y="685"/>
      <point x="196" y="685" type="curve" smooth="yes"/>
      <point x="114" y="685"/>
      <point x="16" y="572"/>
    </contour>
    <contour>
      <point x="94" y="473" type="curve" smooth="yes"/>
      <point x="94" y="536.973"/>
      <point x="160.836" y="658.094"/>
      <point x="196.315" y="658.094" type="curve" smooth="yes"/>
      <point x="210.584" y="658.094"/>
      <point x="218" y="642.324"/>
      <point x="218" y="630" type="curve" smooth="yes"/>
      <point x="218" y="588.312"/>
      <point x="172.466" y="445"/>
      <point x="118" y="445" type="curve" smooth="yes"/>
      <point x="105" y="445"/>
      <point x="94" y="458"/>
    </contour>
  </outline>
</glyph>
<glyph name="guillemotleft" format="2">
  <advance width="500"/>
  <unicode hex="00AB"/>
  <outline>
    <contour>
      <point x="12" y="217" type="line"/>
      <point x="53.25" y="173.147"/>
      <point x="97.1413" y="129.252"/>
      <point x="137" y="84.1125" type="curve" smooth="yes"/>
      <point x="181.083" y="34.1893"/>
      <point x="178.792" y="32"/>
      <point x="196" y="32" type="curve" smooth="yes"/>
      <point x="203" y="32"/>
      <point x="210" y="38"/>
      <point x="210" y="48" type="curve" smooth="yes"/>
      <point x="210" y="79.1208"/>
      <point x="177.924" y="142.246"/>
      <point x="137" y="220" type="curve"/>
      <point x="207.237" y="285.845"/>
      <point x="283" y="367"/>
      <point x="283" y="403" type="curve" smooth="yes"/>
      <point x="283" y="409"/>
      <point x="278" y="415"/>
      <point x="269" y="415" type="curve" smooth="yes"/>
      <point x="254" y="415"/>
      <point x="227" y="383"/>
      <point x="193" y="358" type="curve" smooth="yes"/>
      <point x="133.27" y="314.44"/>
      <point x="71.73" y="269.56"/>
      <point x="12" y="226" type="curve"/>
    </contour>
    <contour>
      <point x="197" y="217" type="line"/>
      <point x="237.464" y="175.158"/>
      <point x="281.721" y="134.383"/>
      <point x="319.619" y="90.2047" type="curve" smooth="yes"/>
      <point x="366.691" y="35.3306"/>
      <point x="363.097" y="32"/>
      <point x="381" y="32" type="curve" smooth="yes"/>
      <point x="388" y="32"/>
      <point x="395" y="38"/>
      <point x="395" y="48" type="curve" smooth="yes"/>
      <point x="395" y="79.1208"/>
      <point x="377.843" y="115.569"/>
      <point x="322" y="220" type="curve"/>
      <point x="391.017" y="284.857"/>
      <point x="468" y="367"/>
      <point x="468" y="403" type="curve" smooth="yes"/>
      <point x="468" y="409"/>
      <point x="463" y="415"/>
      <point x="454" y="415" type="curve" smooth="yes"/>
      <point x="439" y="415"/>
      <point x="412" y="383"/>
      <point x="378" y="358" type="curve" smooth="yes"/>
      <point x="318.27" y="314.44"/>
      <point x="256.73" y="269.56"/>
      <point x="197" y="226" type="curve"/>
    </contour>
  </outline>
</glyph>
<glyph name="logicalnot" format="2">
  <advance width="606"/>
  <unicode hex="00AC"/>
  <outline>
    <contour>
      <point x="467" y="108" type="line"/>
      <point x="555" y="108" type="line"/>
      <point x="555" y="399" type="line"/>
      <point x="51" y="399" type="line"/>
      <point x="51" y="311" type="line"/>
      <point x="467" y="311" type="line"/>
    </contour>
  </outline>
</glyph>
<glyph name="uni00AD" format="2">
  <advance width="333"/>
  <unicode hex="00AD"/>
  <outline>
    <contour>
      <point x="271" y="282" type="line"/>
      <point x="26" y="282" type="line"/>
      <point x="2" y="166" type="line"/>
      <point x="248" y="166" type="line"/>
    </contour>
  </outline>
</glyph>
<glyph name="registered" format="2">
  <advance width="747"/>
  <unicode hex="00AE"/>
  <outline>
    <contour>
      <point x="210" y="511" type="line"/>
      <point x="257" y="506"/>
      <point x="257" y="506"/>
      <point x="257" y="464" type="curve" smooth="yes"/>
      <point x="257" y="215" type="line" smooth="yes"/>
      <point x="257" y="172"/>
      <point x="257" y="172"/>
      <point x="210" y="167" type="curve"/>
      <point x="210" y="151" type="line"/>
      <point x="376" y="151" type="line"/>
      <point x="376" y="167" type="line"/>
      <point x="328" y="172"/>
      <point x="328" y="172"/>
      <point x="328" y="215" type="curve" smooth="yes"/>
      <point x="328" y="317" type="line"/>
      <point x="372" y="317" type="line"/>
      <point x="395" y="282"/>
      <point x="406" y="263"/>
      <point x="424" y="232" type="curve" smooth="yes"/>
      <point x="458" y="171"/>
      <point x="474" y="151"/>
      <point x="492" y="151" type="curve" smooth="yes"/>
      <point x="562" y="151" type="line"/>
      <point x="562" y="162" type="line"/>
      <point x="542" y="178"/>
      <point x="519" y="204"/>
      <point x="488" y="246" type="curve" smooth="yes"/>
      <point x="429" y="328" type="line"/>
      <point x="483" y="348"/>
      <point x="510" y="384"/>
      <point x="510" y="432" type="curve" smooth="yes"/>
      <point x="510" y="490"/>
      <point x="465" y="527"/>
      <point x="393" y="527" type="curve" smooth="yes"/>
      <point x="210" y="527" type="line"/>
    </contour>
    <contour>
      <point x="328" y="506" type="line"/>
      <point x="368" y="506" type="line" smooth="yes"/>
      <point x="414" y="506"/>
      <point x="437" y="480"/>
      <point x="437" y="428" type="curve" smooth="yes"/>
      <point x="437" y="370"/>
      <point x="412" y="337"/>
      <point x="369" y="337" type="curve" smooth="yes"/>
      <point x="328" y="337" type="line"/>
    </contour>
    <contour>
      <point x="374" y="685" type="curve" smooth="yes"/>
      <point x="182" y="685"/>
      <point x="30" y="529"/>
      <point x="30" y="332" type="curve" smooth="yes"/>
      <point x="30" y="139"/>
      <point x="182" y="-18"/>
      <point x="369" y="-18" type="curve" smooth="yes"/>
      <point x="568" y="-18"/>
      <point x="718" y="134"/>
      <point x="718" y="334" type="curve" smooth="yes"/>
      <point x="718" y="530"/>
      <point x="566" y="685"/>
    </contour>
    <contour>
      <point x="374" y="639" type="curve" smooth="yes"/>
      <point x="528" y="639"/>
      <point x="657" y="500"/>
      <point x="657" y="334" type="curve" smooth="yes"/>
      <point x="657" y="164"/>
      <point x="530" y="28"/>
      <point x="370" y="28" type="curve" smooth="yes"/>
      <point x="220" y="28"/>
      <point x="91" y="168"/>
      <point x="91" y="333" type="curve" smooth="yes"/>
      <point x="91" y="501"/>
      <point x="219" y="639"/>
    </contour>
  </outline>
</glyph>
<glyph name="macron" format="2">
  <advance width="384"/>
  <unicode hex="00AF"/>
  <outline>
    <contour>
      <point x="416" y="623" type="line"/>
      <point x="91" y="623" type="line"/>
      <point x="74" y="553" type="line"/>
      <point x="400" y="553" type="line"/>
    </contour>
  </outline>
</glyph>
<glyph name="degree" format="2">
  <advance width="400"/>
  <unicode hex="00B0"/>
  <outline>
    <contour>
      <point x="226" y="683" type="curve" smooth="yes"/>
      <point x="146" y="683"/>
      <point x="83" y="620"/>
      <point x="83" y="540" type="curve" smooth="yes"/>
      <point x="83" y="461"/>
      <point x="146" y="397"/>
      <point x="224" y="397" type="curve" smooth="yes"/>
      <point x="306" y="397"/>
      <point x="369" y="459"/>
      <point x="369" y="540" type="curve" smooth="yes"/>
      <point x="369" y="620"/>
      <point x="306" y="683"/>
    </contour>
    <contour>
      <point x="226" y="647" type="curve" smooth="yes"/>
      <point x="281" y="647"/>
      <point x="328" y="598"/>
      <point x="328" y="540" type="curve" smooth="yes"/>
      <point x="328" y="481"/>
      <point x="282" y="433"/>
      <point x="225" y="433" type="curve" smooth="yes"/>
      <point x="170" y="433"/>
      <point x="124" y="482"/>
      <point x="124" y="540" type="curve" smooth="yes"/>
      <point x="124" y="598"/>
      <point x="170" y="647"/>
    </contour>
  </outline>
</glyph>
<glyph name="twosuperior" format="2">
  <advance width="300"/>
  <unicode hex="00B2"/>
  <outline>
    <contour>
      <point x="22" y="350" type="line"/>
      <point x="260" y="350" type="line"/>
      <point x="311" y="464" type="line"/>
      <point x="295" y="464" type="line"/>
      <point x="270" y="427"/>
      <point x="255" y="418.529"/>
      <point x="205" y="418.529" type="curve" smooth="yes"/>
      <point x="118.333" y="418.529" type="line"/>
      <point x="115.667" y="419.943" type="line"/>
      <point x="241" y="520" type="line" smooth="yes"/>
      <point x="307.152" y="572.811"/>
      <point x="333" y="612"/>
      <point x="333" y="660" type="curve" smooth="yes"/>
      <point x="333" y="715"/>
      <point x="285" y="759"/>
      <point x="225" y="759" type="curve" smooth="yes"/>
      <point x="164" y="759"/>
      <point x="117" y="727"/>
      <point x="81" y="661" type="curve"/>
      <point x="99" y="650" type="line"/>
      <point x="131" y="686"/>
      <point x="152" y="698"/>
      <point x="181" y="698" type="curve" smooth="yes"/>
      <point x="217" y="698"/>
      <point x="240" y="673"/>
      <point x="240" y="632" type="curve" smooth="yes"/>
      <point x="240" y="601"/>
      <point x="224.104" y="564.007"/>
      <point x="170" y="511" type="curve" smooth="yes"/>
      <point x="22" y="366" type="line"/>
    </contour>
  </outline>
</glyph>
<glyph name="threesuperior" format="2">
  <advance width="300"/>
  <unicode hex="00B3"/>
  <outline>
    <contour>
      <point x="34" y="400" type="curve" smooth="yes"/>
      <point x="34" y="369"/>
      <point x="66" y="350"/>
      <point x="119" y="350" type="curve" smooth="yes"/>
      <point x="225" y="350"/>
      <point x="311" y="421"/>
      <point x="311" y="508" type="curve" smooth="yes"/>
      <point x="311" y="545.719"/>
      <point x="298.124" y="568.78"/>
      <point x="262.67" y="593.447" type="curve" smooth="yes"/>
      <point x="259" y="596" type="line"/>
      <point x="266" y="600" type="line" smooth="yes"/>
      <point x="323.939" y="633.108"/>
      <point x="338" y="650"/>
      <point x="338" y="687" type="curve" smooth="yes"/>
      <point x="338" y="733"/>
      <point x="295" y="768"/>
      <point x="239" y="768" type="curve" smooth="yes"/>
      <point x="186" y="768"/>
      <point x="146" y="744"/>
      <point x="106" y="688" type="curve"/>
      <point x="120" y="675" type="line"/>
      <point x="148" y="707"/>
      <point x="167" y="717"/>
      <point x="195" y="717" type="curve" smooth="yes"/>
      <point x="229" y="717"/>
      <point x="250" y="697"/>
      <point x="250" y="665" type="curve" smooth="yes"/>
      <point x="250" y="622"/>
      <point x="211" y="595"/>
      <point x="129" y="580" type="curve"/>
      <point x="127" y="566" type="line"/>
      <point x="194" y="563"/>
      <point x="227" y="533"/>
      <point x="227" y="475" type="curve" smooth="yes"/>
      <point x="227" y="423"/>
      <point x="196" y="383"/>
      <point x="157" y="383" type="curve" smooth="yes"/>
      <point x="138" y="383"/>
      <point x="135" y="385"/>
      <point x="114" y="413" type="curve"/>
      <point x="101" y="432"/>
      <point x="87" y="441"/>
      <point x="71" y="441" type="curve" smooth="yes"/>
      <point x="50" y="441"/>
      <point x="34" y="424"/>
    </contour>
  </outline>
</glyph>
<glyph name="uni00B5" format="2">
  <advance width="576"/>
  <unicode hex="00B5"/>
  <outline>
    <contour>
      <point x="14" y="74" type="line" smooth="yes"/>
      <point x="-5.93081" y="6.23524"/>
      <point x="-60" y="-80.2179"/>
      <point x="-60" y="-146" type="curve" smooth="yes"/>
      <point x="-60" y="-185"/>
      <point x="-42" y="-207"/>
      <point x="-10" y="-207" type="curve" smooth="yes"/>
      <point x="54" y="-207"/>
      <point x="69" y="-145"/>
      <point x="69" y="-126" type="curve" smooth="yes"/>
      <point x="69" y="-82"/>
      <point x="70" y="-45"/>
      <point x="92" y="24" type="curve"/>
      <point x="118" y="5"/>
      <point x="130" y="0"/>
      <point x="154" y="0" type="curve" smooth="yes"/>
      <point x="200" y="0"/>
      <point x="231" y="28"/>
      <point x="284" y="118" type="curve"/>
      <point x="275" y="80"/>
      <point x="273" y="69"/>
      <point x="273" y="50" type="curve" smooth="yes"/>
      <point x="273" y="14"/>
      <point x="300" y="-13"/>
      <point x="336" y="-13" type="curve" smooth="yes"/>
      <point x="403" y="-13"/>
      <point x="463.22" y="63.4176"/>
      <point x="503" y="118" type="curve"/>
      <point x="482" y="134" type="line"/>
      <point x="452" y="90"/>
      <point x="434" y="72"/>
      <point x="419" y="72" type="curve" smooth="yes"/>
      <point x="412" y="72"/>
      <point x="407" y="78"/>
      <point x="407" y="86" type="curve" smooth="yes"/>
      <point x="407" y="93"/>
      <point x="409" y="103"/>
      <point x="412" y="113" type="curve" smooth="yes"/>
      <point x="516" y="449" type="line"/>
      <point x="381" y="449" type="line"/>
      <point x="330" y="285" type="line" smooth="yes"/>
      <point x="296" y="177"/>
      <point x="221" y="70"/>
      <point x="179" y="70" type="curve" smooth="yes"/>
      <point x="167" y="70"/>
      <point x="160" y="79"/>
      <point x="160" y="95" type="curve" smooth="yes"/>
      <point x="160" y="106"/>
      <point x="163" y="123"/>
      <point x="167" y="137" type="curve" smooth="yes"/>
      <point x="260" y="449" type="line"/>
      <point x="125" y="449" type="line"/>
    </contour>
  </outline>
</glyph>
<glyph name="paragraph" format="2">
  <advance width="500"/>
  <unicode hex="00B6"/>
  <outline>
    <contour>
      <point x="-57" y="-193" type="line"/>
      <point x="113" y="-193" type="line"/>
      <point x="330" y="644" type="line"/>
      <point x="385" y="644" type="line"/>
      <point x="168" y="-193" type="line"/>
      <point x="339" y="-193" type="line"/>
      <point x="346" y="-168" type="line"/>
      <point x="292.228" y="-160.519"/>
      <point x="272.95" y="-152.804"/>
      <point x="272.95" y="-142.365" type="curve" smooth="yes"/>
      <point x="272.95" y="-134.841"/>
      <point x="285.748" y="-81.0096"/>
      <point x="289" y="-68" type="curve" smooth="yes"/>
      <point x="458" y="581" type="line" smooth="yes"/>
      <point x="472" y="635"/>
      <point x="475" y="637"/>
      <point x="556" y="644" type="curve"/>
      <point x="562" y="669" type="line"/>
      <point x="267" y="669" type="line" smooth="yes"/>
      <point x="91.4465" y="669"/>
      <point x="-4" y="564.38"/>
      <point x="-4" y="388" type="curve" smooth="yes"/>
      <point x="-4" y="291.267"/>
      <point x="55.7752" y="261.409"/>
      <point x="141" y="258" type="curve"/>
      <point x="56" y="-68" type="line" smooth="yes"/>
      <point x="33.6768" y="-154.503"/>
      <point x="13.4692" y="-160.242"/>
      <point x="-50" y="-168" type="curve"/>
    </contour>
    <contour>
      <point x="147" y="283" type="line"/>
      <point x="101" y="302"/>
      <point x="75" y="342"/>
      <point x="75" y="394" type="curve" smooth="yes"/>
      <point x="75" y="509.124"/>
      <point x="124.79" y="614.486"/>
      <point x="241" y="644" type="curve"/>
    </contour>
  </outline>
</glyph>
<glyph name="onesuperior" format="2">
  <advance width="311"/>
  <unicode hex="00B9"/>
  <outline>
    <contour>
      <point x="38" y="350" type="line"/>
      <point x="262" y="350" type="line"/>
      <point x="262" y="369" type="line"/>
      <point x="213" y="369"/>
      <point x="203" y="373"/>
      <point x="203" y="395" type="curve" smooth="yes"/>
      <point x="203" y="404"/>
      <point x="205.302" y="416.904"/>
      <point x="209" y="429" type="curve" smooth="yes"/>
      <point x="308.543" y="754.562" type="line"/>
      <point x="303.333" y="759.738" type="line"/>
      <point x="237.951" y="742.801"/>
      <point x="202.256" y="737.144"/>
      <point x="132" y="728" type="curve"/>
      <point x="130" y="707" type="line"/>
      <point x="146.165" y="708.955"/>
      <point x="158.789" y="710"/>
      <point x="173" y="710" type="curve" smooth="yes"/>
      <point x="184.756" y="710"/>
      <point x="198.627" y="702.244"/>
      <point x="198.627" y="686.731" type="curve" smooth="yes"/>
      <point x="198.627" y="684.992"/>
      <point x="198.014" y="680.259"/>
      <point x="197" y="677" type="curve" smooth="yes"/>
      <point x="117" y="420" type="line" smooth="yes"/>
      <point x="107" y="388"/>
      <point x="94" y="369"/>
      <point x="38" y="369" type="curve"/>
    </contour>
  </outline>
</glyph>
<glyph name="ordmasculine" format="2">
  <advance width="300"/>
  <unicode hex="00BA"/>
  <outline>
    <contour>
      <point x="56" y="489" type="curve" smooth="yes"/>
      <point x="56" y="438"/>
      <point x="101" y="400"/>
      <point x="162" y="400" type="curve" smooth="yes"/>
      <point x="254" y="400"/>
      <point x="342.145" y="493.46"/>
      <point x="347.145" y="592.46" type="curve"/>
      <point x="347.145" y="646.6"/>
      <point x="303.97" y="685"/>
      <point x="243" y="685" type="curve" smooth="yes"/>
      <point x="148" y="685"/>
      <point x="56" y="589"/>
    </contour>
    <contour>
      <point x="137" y="455" type="curve" smooth="yes"/>
      <point x="137" y="501.875"/>
      <point x="173.134" y="665.04"/>
      <point x="239.408" y="665.04" type="curve" smooth="yes"/>
      <point x="259.459" y="665.04"/>
      <point x="266.075" y="647.633"/>
      <point x="266.075" y="630.399" type="curve" smooth="yes"/>
      <point x="266.075" y="583.617"/>
      <point x="228.802" y="420"/>
      <point x="165" y="420" type="curve" smooth="yes"/>
      <point x="148" y="420"/>
      <point x="137" y="433"/>
    </contour>
  </outline>
</glyph>
<glyph name="guillemotright" format="2">
  <advance width="500"/>
  <unicode hex="00BB"/>
  <outline>
    <contour>
      <point x="197" y="44" type="curve" smooth="yes"/>
      <point x="197" y="38"/>
      <point x="202" y="32"/>
      <point x="211" y="32" type="curve" smooth="yes"/>
      <point x="226.851" y="32"/>
      <point x="382.083" y="158.342"/>
      <point x="468" y="221" type="curve"/>
      <point x="468" y="230" type="line"/>
      <point x="402.068" y="294.961"/>
      <point x="300.88" y="415"/>
      <point x="284" y="415" type="curve" smooth="yes"/>
      <point x="277" y="415"/>
      <point x="270" y="409"/>
      <point x="270" y="399" type="curve" smooth="yes"/>
      <point x="270" y="367.879"/>
      <point x="293.871" y="312.92"/>
      <point x="343" y="227" type="curve"/>
      <point x="276.787" y="163.11"/>
      <point x="197" y="80"/>
    </contour>
    <contour>
      <point x="12" y="44" type="curve" smooth="yes"/>
      <point x="12" y="38"/>
      <point x="17" y="32"/>
      <point x="26" y="32" type="curve" smooth="yes"/>
      <point x="37.9006" y="32"/>
      <point x="197.083" y="158.342"/>
      <point x="283" y="221" type="curve"/>
      <point x="283" y="230" type="line"/>
      <point x="215.899" y="295.399"/>
      <point x="116.557" y="415"/>
      <point x="99" y="415" type="curve" smooth="yes"/>
      <point x="92" y="415"/>
      <point x="85" y="409"/>
      <point x="85" y="399" type="curve" smooth="yes"/>
      <point x="85" y="367.879"/>
      <point x="113.835" y="306.788"/>
      <point x="158" y="227" type="curve"/>
      <point x="92.8094" y="163.986"/>
      <point x="12" y="80"/>
    </contour>
  </outline>
</glyph>
<glyph name="questiondown" format="2">
  <advance width="500"/>
  <unicode hex="00BF"/>
  <outline>
    <contour>
      <point x="30" y="-60" type="curve" smooth="yes"/>
      <point x="30" y="-147"/>
      <point x="101" y="-205"/>
      <point x="206" y="-205" type="curve" smooth="yes"/>
      <point x="307" y="-205"/>
      <point x="381" y="-151"/>
      <point x="381" y="-76" type="curve" smooth="yes"/>
      <point x="381" y="-38"/>
      <point x="354" y="-9"/>
      <point x="320" y="-9" type="curve" smooth="yes"/>
      <point x="286" y="-9"/>
      <point x="259" y="-36"/>
      <point x="259" y="-69" type="curve" smooth="yes"/>
      <point x="259" y="-83"/>
      <point x="264" y="-97"/>
      <point x="277" y="-113" type="curve"/>
      <point x="285" y="-124"/>
      <point x="288" y="-130"/>
      <point x="288" y="-136" type="curve" smooth="yes"/>
      <point x="288" y="-155"/>
      <point x="258" y="-174"/>
      <point x="226" y="-174" type="curve" smooth="yes"/>
      <point x="184" y="-174"/>
      <point x="157" y="-143"/>
      <point x="157" y="-94" type="curve" smooth="yes"/>
      <point x="157" y="-47"/>
      <point x="177" y="-1"/>
      <point x="221" y="54" type="curve" smooth="yes"/>
      <point x="262" y="105" type="line" smooth="yes"/>
      <point x="308" y="163"/>
      <point x="328" y="209"/>
      <point x="333" y="264" type="curve"/>
      <point x="304" y="271" type="line"/>
      <point x="276" y="201"/>
      <point x="260" y="178"/>
      <point x="222" y="153" type="curve" smooth="yes"/>
      <point x="156" y="110" type="line" smooth="yes"/>
      <point x="67" y="52"/>
      <point x="30" y="2"/>
    </contour>
    <contour>
      <point x="348" y="492" type="curve" smooth="yes"/>
      <point x="306" y="492"/>
      <point x="273" y="460"/>
      <point x="273" y="418" type="curve" smooth="yes"/>
      <point x="273" y="376"/>
      <point x="305" y="344"/>
      <point x="346" y="344" type="curve" smooth="yes"/>
      <point x="388" y="344"/>
      <point x="421" y="376"/>
      <point x="421" y="418" type="curve" smooth="yes"/>
      <point x="421" y="458"/>
      <point x="388" y="492"/>
    </contour>
  </outline>
</glyph>
<glyph name="AE" format="2">
  <advance width="944"/>
  <unicode hex="00C6"/>
  <anchor x="621.126" y="723" name="top"/>
  <outline>
    <contour>
      <point x="-64" y="0" type="line"/>
      <point x="131" y="0" type="line"/>
      <point x="131" y="25" type="line"/>
      <point x="108" y="26"/>
      <point x="67" y="28"/>
      <point x="67" y="60" type="curve" smooth="yes"/>
      <point x="67" y="72.7354"/>
      <point x="79.8391" y="98.8559"/>
      <point x="100.251" y="126.293" type="curve" smooth="yes"/>
      <point x="478" y="627" type="line"/>
      <point x="490" y="627" type="line"/>
      <point x="342" y="96" type="line" smooth="yes"/>
      <point x="327" y="43"/>
      <point x="317" y="34"/>
      <point x="264" y="25" type="curve"/>
      <point x="264" y="0" type="line"/>
      <point x="791" y="0" type="line"/>
      <point x="850" y="196" type="line"/>
      <point x="824" y="199" type="line"/>
      <point x="754.716" y="82.9029"/>
      <point x="688.171" y="32.2669"/>
      <point x="560.021" y="32.2669" type="curve" smooth="yes"/>
      <point x="533" y="32.2669" type="line" smooth="yes"/>
      <point x="509" y="32.2669"/>
      <point x="485" y="41"/>
      <point x="485" y="69" type="curve" smooth="yes"/>
      <point x="485" y="84.4425"/>
      <point x="490.921" y="115.846"/>
      <point x="500.891" y="151.95" type="curve" smooth="yes"/>
      <point x="626" y="605" type="line" smooth="yes"/>
      <point x="634.377" y="635.334"/>
      <point x="651.712" y="637.011"/>
      <point x="678.262" y="637.011" type="curve" smooth="yes"/>
      <point x="688" y="637.011" type="line" smooth="yes"/>
      <point x="794.436" y="637.011"/>
      <point x="850.668" y="605.372"/>
      <point x="850.668" y="513.246" type="curve" smooth="yes"/>
      <point x="850.668" y="504.103"/>
      <point x="850.114" y="494.363"/>
      <point x="849" y="484" type="curve"/>
      <point x="873" y="479" type="line"/>
      <point x="918" y="669" type="line"/>
      <point x="329" y="669" type="line"/>
      <point x="329" y="646" type="line"/>
      <point x="348" y="645"/>
      <point x="410" y="647"/>
      <point x="410" y="617" type="curve" smooth="yes"/>
      <point x="410" y="603"/>
      <point x="398.335" y="584.749"/>
      <point x="390" y="574" type="curve" smooth="yes"/>
      <point x="24" y="102" type="line" smooth="yes"/>
      <point x="-31.1411" y="30.8891"/>
      <point x="-41.9956" y="26"/>
      <point x="-64" y="25" type="curve"/>
    </contour>
    <contour>
      <point x="181" y="255" type="line"/>
      <point x="403" y="255" type="line"/>
      <point x="413" y="294" type="line"/>
      <point x="210" y="294" type="line"/>
    </contour>
    <contour>
      <point x="522.058" y="334.007" type="line"/>
      <point x="547.169" y="332" type="line" smooth="yes"/>
      <point x="639.922" y="324.586"/>
      <point x="683.447" y="296.203"/>
      <point x="683.447" y="241" type="curve" smooth="yes"/>
      <point x="683.447" y="228"/>
      <point x="681.447" y="214"/>
      <point x="679.447" y="201" type="curve"/>
      <point x="707.447" y="196" type="line"/>
      <point x="781.447" y="469" type="line"/>
      <point x="753.447" y="473" type="line"/>
      <point x="705.102" y="380.363"/>
      <point x="679.063" y="374.224"/>
      <point x="579" y="369" type="curve" smooth="yes"/>
      <point x="530.748" y="366.481" type="line"/>
    </contour>
  </outline>
</glyph>
<glyph name="Eth" format="2">
  <advance width="722"/>
  <unicode hex="00D0"/>
  <outline>
    <contour>
      <point x="10" y="329" type="line"/>
      <point x="382" y="329" type="line"/>
      <point x="394" y="373" type="line"/>
      <point x="22" y="373" type="line"/>
    </contour>
    <contour>
      <point x="707" y="392.472" type="curve" smooth="yes"/>
      <point x="707" y="566.278"/>
      <point x="596.736" y="669"/>
      <point x="406" y="669" type="curve" smooth="yes"/>
      <point x="116" y="669" type="line"/>
      <point x="116" y="644" type="line"/>
      <point x="169.218" y="636.923"/>
      <point x="190.576" y="624.246"/>
      <point x="190.576" y="598.464" type="curve" smooth="yes"/>
      <point x="190.576" y="593.372"/>
      <point x="189.743" y="587.486"/>
      <point x="188" y="581.093" type="curve" smooth="yes"/>
      <point x="56" y="96.8957" type="line" smooth="yes"/>
      <point x="42.3412" y="46.7932"/>
      <point x="23.0625" y="29.7063"/>
      <point x="-24" y="25" type="curve"/>
      <point x="-24" y="0" type="line"/>
      <point x="262" y="0" type="line" smooth="yes"/>
      <point x="518.625" y="0"/>
      <point x="707" y="165.298"/>
    </contour>
    <contour>
      <point x="560" y="432.741" type="curve" smooth="yes"/>
      <point x="560" y="210.672"/>
      <point x="432.45" y="34"/>
      <point x="259.211" y="34" type="curve" smooth="yes"/>
      <point x="216.843" y="34"/>
      <point x="199" y="44.5672"/>
      <point x="199" y="67.7586" type="curve" smooth="yes"/>
      <point x="199" y="76.1499"/>
      <point x="201.336" y="86.4228"/>
      <point x="212" y="125.848" type="curve" smooth="yes"/>
      <point x="340" y="599.063" type="line" smooth="yes"/>
      <point x="347.692" y="627.501"/>
      <point x="362.316" y="637"/>
      <point x="403.24" y="637" type="curve" smooth="yes"/>
      <point x="506.724" y="637"/>
      <point x="560" y="576.261"/>
    </contour>
  </outline>
</glyph>
<glyph name="Oslash" format="2">
  <advance width="722"/>
  <unicode hex="00D8"/>
  <outline>
    <contour>
      <point x="65" y="-125" type="line"/>
      <point x="113" y="-125" type="line"/>
      <point x="633" y="764" type="line"/>
      <point x="584" y="764" type="line"/>
    </contour>
    <contour>
      <point x="27" y="207" type="curve" smooth="yes"/>
      <point x="27" y="73.54"/>
      <point x="135.554" y="-18"/>
      <point x="265" y="-18" type="curve" smooth="yes"/>
      <point x="493" y="-18"/>
      <point x="691" y="225"/>
      <point x="691" y="444" type="curve" smooth="yes"/>
      <point x="691" y="588.978"/>
      <point x="589.12" y="685"/>
      <point x="449" y="685" type="curve" smooth="yes"/>
      <point x="211" y="685"/>
      <point x="27" y="430"/>
    </contour>
    <contour>
      <point x="171" y="150" type="curve" smooth="yes"/>
      <point x="171" y="283"/>
      <point x="274" y="651"/>
      <point x="441" y="651" type="curve" smooth="yes"/>
      <point x="515.388" y="651"/>
      <point x="547" y="591.389"/>
      <point x="547" y="524" type="curve" smooth="yes"/>
      <point x="547" y="389"/>
      <point x="444" y="16"/>
      <point x="275" y="16" type="curve" smooth="yes"/>
      <point x="193.019" y="16"/>
      <point x="171" y="79.5227"/>
    </contour>
  </outline>
</glyph>
<glyph name="Thorn" format="2">
  <advance width="611"/>
  <unicode hex="00DE"/>
  <outline>
    <contour>
      <point x="210.074" y="193.78" type="line"/>
      <point x="232.935" y="186.415"/>
      <point x="271.887" y="182"/>
      <point x="308.339" y="182" type="curve" smooth="yes"/>
      <point x="464.856" y="182"/>
      <point x="573" y="263.92"/>
      <point x="573" y="385.845" type="curve" smooth="yes"/>
      <point x="573" y="486.128"/>
      <point x="499.84" y="533.989"/>
      <point x="331.694" y="533.989" type="curve" smooth="yes"/>
      <point x="292.504" y="533.989" type="line"/>
      <point x="267.741" y="441.272" type="line"/>
      <point x="295.587" y="441.272" type="line"/>
      <point x="300.072" y="457.845" type="line" smooth="yes"/>
      <point x="309.684" y="493.36"/>
      <point x="318.279" y="502"/>
      <point x="345.873" y="502" type="curve" smooth="yes"/>
      <point x="399.792" y="502"/>
      <point x="429" y="468.896"/>
      <point x="429" y="391.387" type="curve" smooth="yes"/>
      <point x="429" y="283.313"/>
      <point x="372.214" y="216"/>
      <point x="271.284" y="216" type="curve" smooth="yes"/>
      <point x="246.99" y="216"/>
      <point x="231.182" y="220.198"/>
      <point x="218.331" y="229.457" type="curve"/>
    </contour>
    <contour>
      <point x="63.6835" y="133.377" type="line" name=".sk1"/>
      <point x="54" y="97.23" type="line" smooth="yes"/>
      <point x="39.62" y="44.16"/>
      <point x="24" y="32.02"/>
      <point x="-26" y="25" type="curve"/>
      <point x="-26" y="0" type="line"/>
      <point x="271.99" y="0" type="line"/>
      <point x="271.99" y="25" type="line"/>
      <point x="208.99" y="30.01"/>
      <point x="198.99" y="36.03"/>
      <point x="198.99" y="68.13" type="curve" smooth="yes"/>
      <point x="198.99" y="79.83"/>
      <point x="202.14" y="94.21"/>
      <point x="207.97" y="117.35" type="curve" smooth="yes"/>
      <point x="211.698" y="133.431" type="line"/>
      <point x="323.897" y="537.733" type="line" name=".sk2"/>
      <point x="334" y="573.77" type="line" smooth="yes"/>
      <point x="348.44" y="627.1"/>
      <point x="365" y="639.98"/>
      <point x="416" y="644" type="curve"/>
      <point x="416" y="669" type="line"/>
      <point x="129" y="669" type="line"/>
      <point x="129" y="644" type="line"/>
      <point x="170" y="637.98"/>
      <point x="189" y="630.04"/>
      <point x="189" y="608.88" type="curve" smooth="yes"/>
      <point x="189" y="593.11"/>
      <point x="186.392" y="574.792"/>
      <point x="181.56" y="557.08" type="curve" smooth="yes"/>
      <point x="175.901" y="537.748" type="line" name=".sk3"/>
    </contour>
  </outline>
</glyph>
